<svg width="56" height="56" xmlns="http://www.w3.org/2000/svg"><g fill="none" fill-rule="evenodd"><path d="M19.23 0h17.54c6.687 0 9.112.696 11.556 2.003a13.63 13.63 0 015.67 5.67C55.305 10.119 56 12.544 56 19.23v17.542c0 6.686-.696 9.11-2.003 11.555a13.63 13.63 0 01-5.67 5.67C45.881 55.305 43.456 56 36.77 56H19.229c-6.686 0-9.11-.696-11.555-2.003a13.63 13.63 0 01-5.67-5.67C.695 45.881 0 43.456 0 36.77V19.229c0-6.686.696-9.11 2.003-11.555a13.63 13.63 0 015.67-5.67C10.119.695 12.544 0 19.23 0z" fill="#0093BB"/><path d="M21.674 36.042c-.516-.145-.834-.338-.59-.9 2.445-5.635 4.892-11.269 7.443-17.142 2.514 5.782 4.89 11.276 7.3 16.756.307.697.254 1.037-.558 1.27-4.535 1.298-9.06 1.294-13.595.016zM27.408 14c-3.744 8.736-7.49 17.47-11.231 26.207C15.538 41.7 15 42.96 15 42.992c0 0 1.601.008 3.447.008.675-1.66 1.365-3.312 2.016-4.98.224-.575.54-.708 1.131-.53 4.775 1.44 9.556 1.427 14.315-.06.679-.211.971-.096 1.224.562.527 1.369 2.073 4.927 2.073 4.927s1.152-.02 1.794-.02L28.733 14h-1.325z" fill="#FDFDFD"/></g></svg>