<svg xmlns="http://www.w3.org/2000/svg" xmlns:xlink="http://www.w3.org/1999/xlink" width="84" height="83" viewBox="0 0 84 83"><defs><linearGradient id="a" x1="76.277%" x2="1.011%" y1="-26.087%" y2="191.85%"><stop offset="0%" stop-color="#F1F9FF"/><stop offset="100%" stop-color="#DDF1FF"/></linearGradient><linearGradient id="c" x1="118.713%" x2="-78.105%" y1="-26.087%" y2="191.85%"><stop offset="0%" stop-color="#F1F9FF"/><stop offset="100%" stop-color="#DDF1FF"/></linearGradient><path id="b" d="M41.093.155c1.148-.445 2.081.099 2.084 1.217l.08 27.527c0 1.114-.926 2.377-2.074 2.822l-39 15.087c-1.155.438-2.091-.102-2.091-1.218l-.08-27.527c0-1.114.925-2.377 2.073-2.822L41.093.155z"/></defs><g fill="none" fill-rule="evenodd"><path d="M18.546 72.737l-.458-.193c-.308-.129-.504-.518-.505-1.12l.464.192c-.004.6.19.992.5 1.12z"/><path fill="url(#a)" fill-rule="nonzero" d="M29.723 9.918c.821-.64 1.48-.258 1.482.857l.08 27.527c0 1.114-.656 2.537-1.47 3.178L2.111 63.267c-.821.64-1.478.258-1.48-.856L.55 34.885c0-1.114.655-2.536 1.47-3.177l27.702-21.79z" transform="translate(17.41 9.205)"/><path fill="#D0ECFF" fill-rule="nonzero" d="M47.646 18.67l-.055-.019h-.33a.18.18 0 00-.04.01l-.035.008h-.02l-.067.023-.03.01h-.01a1.816 1.816 0 00-.11.053h-.017a1.784 1.784 0 00-.257.172L18.968 40.718l-.08.066-.04.036-.06.056-.082.081-.057.061-.08.092-.054.064c-.03.034-.055.07-.082.105l-.047.061-.01.014-.023.033c-.045.064-.087.136-.136.195 0 .012-.016.023-.024.035l-.027.05-.058.096-.03.052-.031.06c-.014.025-.026.05-.038.074l-.022.04a2.127 2.127 0 00-.051.108l-.02.042v.012a3.114 3.114 0 00-.07.157l-.01.025c0 .014-.011.03-.018.044l-.033.083-.028.08-.017.045-.008.025c-.018.05-.034.1-.05.151v.02l-.011.041-.026.09-.02.076-.012.05-.008.03-.034.162v.041l-.024.135v.034c0 .028-.006.055-.01.082-.002.027 0 .053-.01.08v.04c0 .042-.002.087-.007.133v.125l.08 27.527c0 .603.196.992.504 1.12l.464.194c-.308-.128-.503-.518-.505-1.12l-.101-27.53v-.126c0-.042 0-.088.008-.136.008-.047 0-.077.01-.116.012-.04 0-.055.01-.084l.028-.165v-.033a2.53 2.53 0 01.044-.2l.012-.05c.015-.056.03-.11.047-.166 0-.013 0-.027.01-.04.02-.066.043-.135.065-.198l.029-.039c.019-.055.04-.11.06-.163 0-.015.014-.03.019-.045.027-.066.055-.135.085-.195l.02-.04c.024-.052.048-.1.073-.15l.038-.072.062-.114.057-.096.05-.083a1.42 1.42 0 01.138-.195l.033-.047a.972.972 0 01.046-.06c.017-.02.054-.073.082-.108l.054-.064.08-.092.06-.06.08-.082.06-.055c.04-.035.08-.07.12-.1l27.693-21.794a2.12 2.12 0 01.264-.173h.019c.038-.02.078-.04.119-.056l.03-.01.087-.029.036-.01.08-.014h.03a.58.58 0 01.102 0h.01a.64.64 0 01.089.01h.028a.845.845 0 01.085.028l-.468-.199z"/><path fill="#DDF1FF" fill-rule="nonzero" d="M28.86 36.69v-.584c0-.039 0-.11.01-.166l.009-.112.017-.16c0-.044.01-.086.015-.136.005-.05.01-.073.015-.109l.022-.143c.008-.049.01-.07.018-.107l.015-.086c.023-.12.048-.238.075-.359v-.027c.027-.116.059-.232.09-.348l.025-.087c.029-.099.059-.197.09-.295 0-.015.01-.03.015-.044.036-.11.074-.218.114-.325l.033-.085c.032-.085.067-.17.1-.254l.034-.079c.045-.107.09-.212.137-.316l.028-.06c.043-.09.088-.18.137-.27.014-.026.026-.053.04-.078.059-.11.118-.218.179-.326l.027-.048c.065-.11.137-.219.199-.326l.027-.043c.086-.135.175-.263.267-.39l.037-.05c.056-.078.114-.155.17-.23l.01-.01c.064-.08.127-.158.19-.234l.124-.142.034-.039c.054-.06.11-.119.165-.177l.046-.047c.04-.042.082-.084.125-.125l.06-.06.113-.105.069-.062.113-.097.067-.057.125-.099.057-.046c.062-.047.124-.093.187-.135.062-.042.164-.11.246-.162l.07-.042c.063-.038.126-.073.187-.107l.066-.035c.059-.03.117-.06.175-.085l.042-.02c.073-.033.137-.063.215-.089.04-.016.084-.03.125-.043l.059-.02c.06-.02.12-.037.18-.052h.008c.055-.013.11-.025.163-.035l.055-.01.116-.015h.054l.12-.01h.333c.07 0 .136.015.208.03h.01c.065.012.128.03.19.046l.054.017c.054.018.107.037.159.06l.05.02-.857-.392-.024-.01-.027-.01a2.165 2.165 0 00-.16-.06l-.028-.01h-.026a1.554 1.554 0 00-.19-.048h-.008a2.315 2.315 0 00-.208-.027h-.333c-.04 0-.08 0-.121.01H33.1l-.077.013-.054.008c-.054.011-.108.022-.163.035h-.008c-.06.015-.12.032-.182.052l-.058.02c-.038.012-.075.023-.113.038h-.011c-.072.027-.137.055-.215.088l-.043.02c-.06.027-.116.056-.175.085l-.023.011-.043.024c-.062.034-.124.07-.187.107l-.07.044c-.082.05-.164.104-.246.16-.082.057-.125.09-.186.136l-.06.046-.122.098-.07.057-.111.1-.068.06c-.037.033-.076.07-.112.105l-.062.06c-.042.04-.084.082-.125.124l-.046.047a9.491 9.491 0 00-.166.18l-.033.04-.108.121-.016.02-.19.23-.01.014-.171.227-.016.022-.02.03c-.09.126-.182.256-.273.39l-.008.011c0 .01-.013.022-.02.031a6.763 6.763 0 00-.218.36l-.007.015a9.245 9.245 0 00-.18.324l-.016.031-.023.05c-.047.09-.092.18-.137.27l-.022.041v.016c-.05.106-.096.211-.137.317l-.012.026-.02.052c-.036.085-.07.17-.102.256-.007.017-.015.035-.02.053l-.013.03c-.04.11-.078.217-.113.325v.011c0 .01 0 .023-.011.034a7.701 7.701 0 00-.09.295c0 .016-.01.032-.014.047s0 .027-.011.04a7.749 7.749 0 00-.09.348v.027c-.03.12-.053.24-.076.36 0 .015-.007.03-.008.044l-.008.042-.017.107-.022.142-.015.108-.01.076c-.002.024 0 .035 0 .054l-.025.168-.008.112c0 .055 0 .11-.01.165v.651c0 .075.005.15.016.224.103 1.035.48 1.795 1.032 2.232.126.1.264.184.41.252l.859.392c-.775-.355-1.317-1.21-1.441-2.486a4.03 4.03 0 01-.018-.22l-.001-.07z"/><path fill="#C6DFFF" fill-rule="nonzero" d="M32.298 29.622c2.137-1.5 4.075-.635 4.328 1.931.253 2.567-1.278 5.865-3.421 7.365-2.143 1.501-4.077.636-4.328-1.932-.252-2.568 1.282-5.868 3.42-7.364z"/><path fill="#B6D2F7" fill-rule="nonzero" d="M32.38 30.454c1.753-1.23 3.342-.522 3.548 1.582.207 2.104-1.047 4.81-2.8 6.04-1.753 1.23-3.343.52-3.55-1.583-.206-2.104 1.048-4.809 2.802-6.039z"/><path fill="#EEF8FF" fill-rule="nonzero" d="M33.465 34.436a.513.513 0 00-.523.043c-.22.136-.4.326-.521.552l-.798 1.4.383-.217.608-1.067a.914.914 0 01.33-.349.321.321 0 01.33-.027l.61.37.384-.217-.803-.488zm-.524-.174c.22-.136.399-.327.52-.552l.795-1.393-.383.218-.602 1.06a.944.944 0 01-.33.348.323.323 0 01-.331.027l-.606-.368-.384.22.8.483a.507.507 0 00.52-.043z"/><path fill="#19859B" fill-rule="nonzero" d="M56.103 38.588c1.32-.258 2.504.655 2.645 2.04.14 1.384-.82 2.72-2.14 2.974-1.316.256-2.504-.654-2.644-2.039-.14-1.384.817-2.715 2.139-2.975z"/><path fill="#DDF1FF" fill-rule="nonzero" d="M40.826 28.023c0-.106-.008-.21-.01-.318v-.629c0-.075.007-.15.01-.224 0-.11.01-.22.019-.33 0-.077.012-.153.02-.227.009-.108.018-.217.03-.325l.03-.26.03-.217.045-.287c.01-.07.023-.143.035-.215l.033-.173c.044-.24.094-.48.15-.722l.012-.055c.054-.234.116-.467.182-.7.015-.059.032-.117.049-.176.057-.198.117-.395.182-.593l.029-.09c.072-.218.148-.435.23-.652.02-.057.043-.114.064-.17.065-.172.137-.342.205-.513.022-.053.042-.105.066-.158.09-.214.185-.426.283-.637l.056-.118.274-.54c.027-.054.053-.107.082-.16.115-.22.234-.438.357-.653l.057-.096c.13-.225.263-.444.4-.656l.055-.086c.172-.27.35-.53.535-.785l.074-.102c.113-.156.228-.309.346-.459l.02-.027c.124-.158.25-.312.38-.465l.247-.287.069-.077c.11-.12.22-.242.332-.36l.093-.093c.082-.085.166-.169.25-.25l.125-.12.226-.212.137-.123c.075-.068.15-.136.227-.198l.137-.113c.083-.07.167-.136.25-.2l.123-.1a12.002 12.002 0 01.868-.596l.137-.085a9.094 9.094 0 01.865-.457l.085-.04a7.415 7.415 0 01.68-.264l.12-.04a5.51 5.51 0 01.365-.103h.016c.109-.027.218-.05.328-.072l.11-.018c.077-.013.157-.024.235-.035l.104-.01c.082-.009.163-.015.243-.02h.177c.127 0 .253 0 .376.01a4.781 4.781 0 01.537.063h.017c.137.025.26.057.384.094l.11.035c.107.035.214.074.318.118l.103.042-1.726-.787-.048-.022c-.018-.008-.037-.012-.056-.02a3.918 3.918 0 00-.318-.12l-.058-.02c-.017 0-.035-.009-.051-.013a3.893 3.893 0 00-.383-.095h-.015a4.024 4.024 0 00-.42-.055l-.05-.007h-.065a5.89 5.89 0 00-.377-.01h-.177c-.08 0-.162.011-.243.02l-.105.012-.08.01a2.169 2.169 0 00-.155.025l-.11.017c-.108.02-.218.044-.33.07h-.012c-.12.03-.242.066-.365.103l-.118.041c-.075.024-.15.05-.227.077l-.024.01c-.136.052-.286.112-.43.175l-.087.042c-.116.053-.234.11-.351.17l-.047.024c-.03.014-.057.033-.086.048-.125.068-.25.136-.375.214l-.137.086c-.164.102-.33.211-.495.326-.126.088-.25.18-.374.27-.04.03-.078.063-.118.094-.083.065-.167.135-.25.2l-.136.114c-.076.065-.153.135-.227.196l-.137.123c-.076.07-.15.135-.225.21-.043.041-.085.08-.126.123-.085.08-.167.166-.25.25l-.092.094c-.113.118-.223.237-.333.36l-.068.077c-.073.083-.147.165-.218.25l-.031.037c-.13.152-.255.307-.38.465l-.02.026c-.118.15-.233.304-.346.458l-.033.045-.04.058c-.182.256-.36.518-.536.785l-.015.023c-.014.02-.026.042-.04.064a8.642 8.642 0 00-.41.657c-.011.023-.025.043-.04.065l-.015.03c-.123.216-.242.435-.36.655l-.033.063-.048.096c-.093.18-.182.363-.273.54-.014.03-.03.057-.043.087l-.015.032c-.098.211-.191.424-.283.637l-.023.052c-.01.017-.028.07-.043.105-.07.17-.137.342-.204.514l-.042.105-.022.064c-.08.218-.16.434-.231.653l-.007.02-.02.07a17.64 17.64 0 00-.183.593l-.03.096c-.01.032-.012.053-.02.08-.065.232-.126.466-.181.7v.014l-.008.04c-.056.242-.106.482-.15.722 0 .03-.014.061-.02.09-.003.03-.01.056-.014.085l-.035.215-.044.285-.03.22-.02.15c0 .037-.006.072-.01.11l-.032.322c0 .075-.012.151-.017.226-.01.11-.014.221-.02.332 0 .053 0 .106-.008.157v.696c0 .106 0 .211.01.317v.135c.009.15.02.3.035.448.204 2.085.958 3.611 2.075 4.491.25.202.527.372.82.506l1.727.788c-1.56-.71-2.648-2.433-2.9-5.003a9.338 9.338 0 01-.034-.448c-.003-.032-.004-.079-.007-.126z"/><path fill="#C6DFFF" fill-rule="nonzero" d="M47.738 13.802c4.3-3.018 8.2-1.279 8.706 3.884.506 5.162-2.57 11.797-6.87 14.815-4.3 3.018-8.2 1.28-8.707-3.885-.506-5.163 2.568-11.798 6.87-14.814z"/><path fill="#B6D2F7" fill-rule="nonzero" d="M47.903 15.482c3.528-2.476 6.722-1.05 7.14 3.188.417 4.24-2.107 9.673-5.634 12.148-3.528 2.474-6.725 1.05-7.14-3.186-.417-4.235 2.107-9.676 5.634-12.15z"/><path fill="#EEF8FF" fill-rule="nonzero" d="M52.73 18.4v-.026l-.02.026c-.395.553-.792 1.104-1.186 1.656l-2.572 3.591-3.197 4.462-.125.172.077.784.022-.028 1.386-1.94 2.196-3.066c.789-1.1 1.577-2.202 2.383-3.31.015.084.033.168.045.256a4.12 4.12 0 010 1.03c-.174 1.53-1.066 3.152-2.198 3.997l-.097.07c-.2.143-.415.26-.643.352a2.6 2.6 0 01-.684.16l-.41.575a1.433 1.433 0 00-.125.195c.085 0 .168.018.253.02a2.74 2.74 0 001.394-.423c.098-.057.193-.119.29-.185a5.716 5.716 0 001.117-1.052 7.874 7.874 0 001.623-3.49 5.63 5.63 0 00.099-1.209 4.28 4.28 0 00-.051-.576 1.063 1.063 0 01-.016-.169c.008-.28.104-.55.273-.773l.233-.323a.063.063 0 00.015-.048 16.02 16.02 0 01-.082-.728zm-3.148 3.462l1.805-2.524 1.216-1.697a.068.068 0 00.016-.055l-.071-.725v-.029l-5.984 8.355v-.023c-.011-.063-.025-.127-.035-.192a3.919 3.919 0 01-.015-1.015c.087-.78.323-1.536.697-2.228A5.583 5.583 0 0148.588 20a3.429 3.429 0 01.659-.432c.28-.14.584-.228.897-.259l.4-.56.147-.204-.034-.01c-.537-.072-1.11.08-1.72.454l-.09.054-.232.17-.085.068c-.486.39-.912.85-1.262 1.364a8.015 8.015 0 00-.847 1.574 7.177 7.177 0 00-.495 1.954c-.042.386-.04.775.007 1.16.008.065.022.124.027.19.022.294-.06.585-.231.826-.09.135-.186.27-.28.394l.076.783 1.505-2.097 2.552-3.566z"/><g transform="translate(18.27 26.321)"><mask id="d" fill="#fff"><use xlink:href="#b"/></mask><use fill="url(#c)" fill-rule="nonzero" xlink:href="#b"/><path fill="#B6D2F7" d="M28.023 17.256l.052 18.062-4.776-2.693-2.776 4.754 9.576 5.397 9.515-16.296-2.792-1.575-4.81 8.238-.052-18.134z" mask="url(#d)" opacity=".276"/></g><path fill="#D0ECFF" fill-rule="nonzero" d="M59.55 26.414l.096-.027.042-.01.09-.017.046-.01.096-.013h.034c.035 0 .07 0 .102-.007h.147c.05.002.1.006.149.013h.026c.044 0 .086.017.129.026l.028.008c.03.008.06.018.088.03l.034.011.08.034.024.01c.033.017.065.034.095.052l.022.015.067.046.058.046-.32-.27-.048-.04a.027.027 0 01-.01-.008l-.068-.045-.017-.012a.97.97 0 00-.095-.05l-.018-.009-.08-.036h-.036l-.087-.027h-.028a1.337 1.337 0 00-.13-.025h-.025a1.791 1.791 0 00-.15-.014h-.145c-.034 0-.07 0-.103.008h-.027l-.096.014-.046.008-.09.02-.05.011-.092.027-.044.012a2.204 2.204 0 00-.136.05l-39 15.086a2 2 0 00-.198.087l-.061.03-.09.047-.05.028-.038.023a3.119 3.119 0 00-.162.102l-.01.006-.083.061-.093.068-.014.012-.08.007c-.03.024-.06.048-.09.074l-.03.028-.051.048c-.018.016-.037.032-.054.05l-.05.07-.041.043-.022.022a4.537 4.537 0 00-.114.128v.01c0 .005-.012.013-.02.022l-.081.101-.032.043-.037.05-.032.045c-.022.031-.043.065-.065.097l-.023.035-.008.013a2.429 2.429 0 00-.092.155l-.008.015-.03.054-.051.103c0 .01-.01.02-.015.03l-.04.092c-.013.03-.023.05-.032.074-.01.024 0 .022-.013.034a3.583 3.583 0 00-.05.146l-.022.062v.026l-.017.062a2.663 2.663 0 00-.033.135l-.012.07c-.008.044-.015.09-.02.134v.061c0 .065-.01.128-.01.193l.08 27.527c-.02.405.142.798.444 1.073l.32.27a1.366 1.366 0 01-.47-1.076l-.081-27.527c0-.064 0-.129.01-.194l.008-.06c0-.045.01-.09.02-.136 0-.023.007-.046.013-.069a1.74 1.74 0 01.03-.135l.018-.062c.008-.03.019-.058.028-.088.01-.03.033-.097.052-.146l.044-.108c.015-.037.026-.06.04-.09.014-.032.044-.09.067-.136l.029-.055c.034-.063.07-.122.108-.183l.023-.035a2 2 0 01.099-.142c.01-.018.023-.034.035-.05a3.81 3.81 0 01.114-.145l.019-.023c.045-.054.093-.107.137-.158l.042-.042a3.01 3.01 0 01.114-.112l.05-.047c.04-.036.08-.07.12-.102l.053-.043c.034-.028.07-.054.107-.08l.082-.06c.056-.039.113-.075.17-.109l.04-.023.136-.074.06-.03c.067-.032.138-.062.199-.088l39.014-15.083a1.75 1.75 0 01.137-.049l.052-.013z"/><path fill="#DDF1FF" fill-rule="nonzero" d="M28.745 18.012v-.627c0-.038 0-.118.01-.178 0-.039 0-.08.01-.12.009-.04.01-.115.017-.173.007-.058.01-.092.017-.135l.015-.117.023-.152c.008-.05.012-.077.02-.115l.017-.094c.023-.128.05-.256.08-.385 0-.01 0-.019.006-.03.03-.124.063-.248.097-.373l.026-.095c.032-.105.063-.21.097-.316 0-.016.01-.03.015-.047.04-.117.082-.233.124-.35l.035-.09a6.6 6.6 0 01.108-.27c.013-.027.024-.056.036-.084.048-.114.098-.227.15-.34l.032-.063a9.85 9.85 0 01.144-.292l.043-.085c.062-.118.126-.234.192-.349l.03-.05c.068-.119.137-.237.214-.35l.028-.048c.092-.143.188-.282.286-.419l.04-.055a8.73 8.73 0 01.185-.245l.01-.013c.066-.084.138-.168.203-.25.044-.05.088-.102.137-.152l.033-.047c.059-.065.118-.129.178-.19l.049-.05.137-.136.067-.064.12-.113.073-.065.122-.106.072-.06.137-.107.063-.05c.066-.05.137-.1.2-.146.089-.063.176-.12.264-.174l.077-.046c.067-.04.136-.078.2-.114l.07-.038c.063-.033.126-.063.188-.09l.046-.024a6.155 6.155 0 01.367-.14l.063-.022c.066-.02.13-.038.194-.054h.009c.059-.015.117-.027.175-.038l.059-.01.126-.018h.056c.043 0 .086-.009.137-.01h.355c.077 0 .152.016.226.03h.01c.069.013.137.03.204.05l.058.02c.058.018.115.038.17.061l.055.023-.921-.42-.026-.01-.03-.014a2.457 2.457 0 00-.17-.062l-.046-.01h-.028a2.042 2.042 0 00-.205-.05h-.008a2.43 2.43 0 00-.225-.03h-.364c-.042 0-.086 0-.13.01H33.3l-.084.012-.057.01a3.66 3.66 0 00-.175.04h-.01a2.972 2.972 0 00-.194.053l-.063.021-.122.042h-.01c-.078.03-.154.06-.232.094l-.045.023a4.623 4.623 0 00-.19.09l-.024.012-.045.026a3.067 3.067 0 00-.201.115l-.075.046a4.15 4.15 0 00-.266.173c-.067.047-.137.096-.198.146l-.063.05-.137.107-.073.06-.12.106-.074.065-.12.114-.067.063-.137.135-.05.05a6.35 6.35 0 00-.177.191l-.037.042-.117.135-.016.02a8.193 8.193 0 00-.203.25l-.01.013-.185.245-.018.024-.02.031c-.1.135-.195.27-.287.42l-.01.011c-.006.011-.012.023-.02.034-.072.115-.143.233-.213.35l-.02.035-.01.017c-.066.115-.13.23-.192.35 0 .011-.012.022-.018.032l-.024.052c-.05.097-.1.193-.145.292 0 .015-.015.03-.022.046l-.008.017c-.052.113-.103.226-.152.34l-.013.028-.022.056-.11.27-.021.057a8.028 8.028 0 00-.135.382v.011c0 .012 0 .025-.011.037-.035.105-.067.21-.098.316l-.016.052c0 .014 0 .028-.01.043-.035.124-.068.25-.098.373v.03c-.03.135-.056.257-.08.385 0 .016-.008.033-.01.05-.003.015 0 .03-.007.043l-.02.115c-.005.04-.016.102-.023.153l-.016.116c0 .027 0 .055-.011.082-.011.027 0 .037 0 .056l-.016.173c0 .041-.007.082-.01.12 0 .06-.008.12-.011.18v.7c0 .08.01.16.018.24.11 1.112.513 1.927 1.108 2.396.135.108.283.2.44.27l.922.421c-.832-.376-1.416-1.294-1.553-2.663l-.018-.24a.377.377 0 000-.075z"/><path fill="#C6DFFF" fill-rule="nonzero" d="M32.436 10.422c2.295-1.612 4.379-.677 4.653 2.073.273 2.75-1.376 6.293-3.675 7.905s-4.38.676-4.652-2.074c-.274-2.75 1.376-6.299 3.674-7.905z"/><path fill="#B6D2F7" fill-rule="nonzero" d="M32.524 11.315c1.884-1.323 3.59-.562 3.812 1.7.222 2.262-1.125 5.166-3.01 6.49-1.886 1.326-3.591.56-3.813-1.7-.222-2.26 1.128-5.17 3.01-6.49z"/><path fill="#EEF8FF" fill-rule="nonzero" d="M34.007 14.973c.2.054.32.253.324.541a1.714 1.714 0 01-.79 1.352v.357l-.318.18v-.356l-.475.27v.36l-.316.182v-.364l-.476.27v-.359l.316-.18v-2.52l-.326.177v-.358l.476-.27v-.362l.318-.18v.36l.476-.27v-.36l.313-.183v.361c.438-.25.794-.052.797.443a1.635 1.635 0 01-.32.908zm-1.407-.46v1.082l.958-.54c.28-.18.457-.482.474-.812 0-.297-.215-.418-.477-.27l-.958.54h.003zm.955 1.98c.28-.18.456-.483.474-.813 0-.298-.215-.419-.476-.27l-.958.54v1.083l.958-.54h.002z"/><g fill-rule="nonzero"><path fill="#50BB58" d="M59.09 64.395l-3.875-2.225 4.766-8.157 3.875 2.226zm-15.257 1.861l3.875 2.225 2.75-4.706-3.875-2.226z"/><path fill="#68C86F" d="M55.139 48.666l.05 17.882-4.731-2.773-2.75 4.706 9.488 5.45 9.426-16.133-2.766-1.559-4.766 8.156-.051-17.954z"/><path fill="#50BB58" d="M55.19 66.548l-3.875-2.225-.051-17.882 3.875 2.225z"/><path fill="#50BB58" d="M55.164 44.216l-3.901 2.225 3.876 2.225 3.9-2.225z"/></g></g></svg>