<svg xmlns="http://www.w3.org/2000/svg" viewBox="0 0 500 500"><path d="M392.219 360.091c-8.637-7.974-18.549-15.945-29.49-23.767-12.777-42.119-47.077-74.934-90.034-85.757v-58.371h52.939v-61.554h-52.939v-23.398h84.175V45.69h-84.175V2.398h-61.554v248.169a125.561 125.561 0 00-21.427 7.525c-12.217-2.824-23.933-4.886-34.903-6.087-51.296-5.61-69.146 8.769-75.088 21.823a30.084 30.084 0 00-.869 2.142c-.031.084-.065.168-.094.252a29.638 29.638 0 00-.748 2.454c-.191.73-.36 1.481-.501 2.258l-.002.013c-2.015 11.137 1.433 27.04 19.989 48.431 5.666 6.57 12.477 13.327 20.384 20.206a126.179 126.179 0 00-2.154 23.236c0 69.583 56.609 126.192 126.192 126.192 39.795 0 75.338-18.515 98.485-47.375 11.198 1.671 21.465 2.519 30.688 2.519 8.437 0 16.012-.699 22.682-2.077l.028-.006c.75-.155 1.489-.319 2.217-.491l.129-.03a75.28 75.28 0 002.107-.536l.069-.018c11.587-3.154 19.988-8.66 24.856-16.451.102-.162.205-.324.302-.486.114-.19.224-.383.334-.576.14-.246.276-.491.407-.737.08-.15.161-.3.238-.451.212-.414.416-.828.604-1.241 5.941-13.057 5.066-35.964-32.847-70.965zM237.54 400.497a533.312 533.312 0 01-5.836-2.613 553.27 553.27 0 01-4.868-2.248l-1.096-.515a571.96 571.96 0 01-4.744-2.255c-15.296-7.373-29.987-15.354-43.609-23.671 1.886-33.966 30.102-61.028 64.531-61.028 35.645 0 64.651 29.006 64.651 64.651 0 18.242-7.609 34.73-19.805 46.493-15.765-5.073-31.981-11.244-48.243-18.382l-.981-.432zM133.833 269.749c9.153 0 19.797.9 31.709 2.817-18.887 14.384-33.608 33.952-42.002 56.579-.419-.397-.844-.796-1.253-1.19-.186-.179-.375-.359-.559-.538a178.12 178.12 0 01-2.46-2.432l-.384-.391a179.097 179.097 0 01-1.997-2.059c-.178-.187-.357-.373-.532-.56a148.747 148.747 0 01-4.335-4.784l-.261-.303C98.814 301.849 94.32 289.9 96.49 282.852l.023-.08c.122-.384.262-.755.424-1.109 3.393-7.459 16.444-11.914 36.896-11.914zm46.694 123.264a535.56 535.56 0 0032.107 16.814l.756.363c1.399.672 2.805 1.34 4.216 2.003l1.234.58c1.669.78 3.344 1.555 5.028 2.322a556.473 556.473 0 007.604 3.388c.795.348 1.588.687 2.383 1.031a576.741 576.741 0 007.959 3.37 547.94 547.94 0 005.525 2.249c.714.286 1.428.579 2.141.862 2.461.975 4.918 1.929 7.369 2.859.75.284 1.495.556 2.244.836a498.294 498.294 0 007.66 2.8 64.299 64.299 0 01-24.835 4.967c-28.593-.001-52.89-18.664-61.391-44.444zm226.821 31.164c-.01.017-.023.034-.033.052-2.674 4.421-9.37 7.984-20.092 9.745-.141.023-.279.047-.422.069-.31.049-.636.092-.953.138-8.929 1.261-20.257 1.303-33.62-.117 10.118-18.148 15.894-39.033 15.894-61.245 0-2.978-.109-5.93-.313-8.855 31.283 25.617 45.059 48.237 40.043 59.254a9.475 9.475 0 01-.504.959z"/></svg>