<svg xmlns="http://www.w3.org/2000/svg" viewBox="0 0 1500 1000"><path d="M613.218 570.586h-24.602V425.229h90.413v23.167h-65.811v40.798h59.045v22.757h-59.045v58.635zm134.573-100.459v24.192c-2.736-.41-5.332-.615-7.792-.615-17.907 0-26.857 9.773-26.857 29.317v47.564H689.36v-99.843h23.167v15.991c2.322-5.331 6.08-9.533 11.276-12.608 5.192-3.076 11.071-4.613 17.631-4.613 2.185 0 4.306.205 6.357.615zm82.496 65.606l20.092 6.355c-2.871 9.158-8.236 16.709-16.095 22.654-7.86 5.945-17.528 8.918-29.01 8.918-14.217 0-26.277-4.85-36.186-14.557-9.911-9.702-14.863-22.686-14.863-38.953 0-15.306 4.817-27.882 14.453-37.723 9.636-9.841 21.015-14.762 34.136-14.762 15.306 0 27.268 4.684 35.878 14.044 8.61 9.363 12.916 21.972 12.916 37.825 0 4.238-.205 6.766-.615 7.586h-72.986c.272 7.519 3.04 13.736 8.304 18.657 5.26 4.92 11.583 7.38 18.964 7.38 12.845.002 21.184-5.805 25.012-17.424zm-51.665-26.038h48.999c-.275-6.284-2.495-11.548-6.663-15.786-4.17-4.235-10.147-6.356-17.938-6.356-7.108 0-12.849 2.223-17.222 6.663-4.376 4.444-6.766 9.604-7.176 15.479zm90.719-63.145c-3.008-3.005-4.511-6.628-4.511-10.866 0-4.235 1.503-7.893 4.511-10.968 3.005-3.076 6.628-4.613 10.866-4.613 4.372 0 8.062 1.506 11.07 4.511 3.005 3.008 4.511 6.698 4.511 11.071 0 4.238-1.506 7.861-4.511 10.866-3.008 3.008-6.698 4.511-11.07 4.511-4.238-.001-7.861-1.503-10.866-4.512zm22.757 124.036h-23.577v-99.843h23.577v99.843zm16.811 5.535l21.937-5.74c.82 6.285 3.518 11.445 8.098 15.479 4.578 4.03 10.216 6.049 16.914 6.049 18.862 0 28.293-9.979 28.293-29.933V551.52c-2.326 4.238-6.017 7.724-11.071 10.456-5.059 2.735-11.004 4.1-17.837 4.1-13.396 0-24.432-4.577-33.11-13.735-8.681-9.155-13.019-20.774-13.019-34.854 0-13.531 4.306-25.012 12.917-34.443 8.61-9.431 19.682-14.146 33.212-14.146 14.624 0 24.465 4.853 29.522 14.556v-12.711h22.963v90.413c0 14.761-4.171 27.027-12.507 36.801-8.338 9.771-21.254 14.658-38.748 14.658-12.849 0-23.647-3.485-32.393-10.456-8.749-6.971-13.807-15.652-15.171-26.038zm50.229-30.342c7.653 0 13.839-2.563 18.555-7.688 4.715-5.126 7.072-11.993 7.072-20.604 0-8.473-2.393-15.273-7.175-20.399-4.786-5.125-10.937-7.688-18.452-7.688-7.656 0-13.909 2.563-18.759 7.688-4.854 5.125-7.278 11.926-7.278 20.399 0 8.611 2.39 15.479 7.176 20.604 4.782 5.125 11.071 7.688 18.861 7.688zm95.085-33.828v58.635h-23.782V422.153h23.782v58.225c6.423-8.335 15.921-12.506 28.497-12.506 11.754 0 20.774 3.69 27.062 11.071 6.285 7.38 9.431 16.882 9.431 28.497v63.146h-23.781v-59.045c0-6.695-1.641-12.061-4.921-16.094-3.28-4.03-8.477-6.048-15.581-6.048-6.288 0-11.244 2.121-14.864 6.355-3.624 4.239-5.571 9.637-5.843 16.197zm117.534-71.756v30.548h20.707v21.117h-20.707v46.334c0 4.376 1.025 7.554 3.075 9.533 2.051 1.982 5.26 2.973 9.636 2.973 2.732 0 5.465-.272 8.201-.82v19.682c-3.556 1.503-8.406 2.256-14.557 2.256-9.296 0-16.606-2.63-21.937-7.894-5.33-5.26-7.996-12.538-7.996-21.834v-50.229h-18.451v-21.117h5.125c5.056 0 8.884-1.436 11.481-4.306 2.595-2.87 3.896-6.628 3.896-11.276v-14.966h21.527zm104.886 95.538l20.092 6.355c-2.871 9.158-8.236 16.709-16.095 22.654-7.86 5.945-17.528 8.918-29.01 8.918-14.217 0-26.277-4.85-36.186-14.557-9.911-9.702-14.863-22.686-14.863-38.953 0-15.306 4.817-27.882 14.453-37.723 9.636-9.841 21.015-14.762 34.136-14.762 15.306 0 27.268 4.684 35.878 14.044 8.61 9.363 12.916 21.972 12.916 37.825 0 4.238-.205 6.766-.615 7.586h-72.986c.272 7.519 3.04 13.736 8.304 18.657 5.26 4.92 11.583 7.38 18.964 7.38 12.845.002 21.183-5.805 25.012-17.424zm-51.665-26.038h48.999c-.275-6.284-2.495-11.548-6.663-15.786-4.17-4.235-10.147-6.356-17.938-6.356-7.108 0-12.849 2.223-17.222 6.663-4.377 4.444-6.766 9.604-7.176 15.479zm149.066-39.568v24.192c-2.736-.41-5.331-.615-7.791-.615-17.907 0-26.857 9.773-26.857 29.317v47.564h-23.782v-99.843h23.167v15.991c2.323-5.331 6.08-9.533 11.276-12.608 5.192-3.076 11.071-4.613 17.632-4.613 2.184 0 4.304.205 6.355.615z" fill="#120277"/><linearGradient id="a" gradientUnits="userSpaceOnUse" x1="298.218" y1="244.669" x2="298.218" y2="748.431"><stop offset="0" stop-color="#a7a7f4"/><stop offset="1" stop-color="#6868f1"/></linearGradient><path fill="url(#a)" d="M438.041 606.412c-8.637-7.974-18.549-15.945-29.49-23.767-12.777-42.119-47.077-74.934-90.034-85.757v-58.371h52.939v-61.554h-52.939v-23.398h84.175v-61.554h-84.175v-43.292h-61.554v248.169a125.561 125.561 0 00-21.427 7.525c-12.217-2.824-23.933-4.886-34.903-6.087-51.296-5.61-69.146 8.769-75.088 21.823a30.084 30.084 0 00-.869 2.142c-.031.084-.065.168-.094.252a29.638 29.638 0 00-.748 2.454c-.191.73-.36 1.481-.501 2.258l-.002.013c-2.015 11.137 1.433 27.04 19.989 48.431 5.666 6.57 12.477 13.327 20.384 20.206a126.179 126.179 0 00-2.154 23.236c0 69.583 56.609 126.192 126.192 126.192 39.795 0 75.338-18.515 98.485-47.375 11.198 1.671 21.465 2.519 30.688 2.519 8.437 0 16.012-.699 22.682-2.077l.028-.006c.75-.155 1.489-.319 2.217-.491l.129-.03a75.28 75.28 0 002.107-.536l.069-.018c11.587-3.154 19.988-8.66 24.856-16.451.102-.162.205-.324.302-.486.114-.19.224-.383.334-.576.14-.246.276-.491.407-.737.08-.15.161-.3.238-.451.212-.414.416-.828.604-1.241 5.941-13.057 5.067-35.964-32.847-70.965zm-154.679 40.406a533.312 533.312 0 01-5.836-2.613 553.27 553.27 0 01-4.868-2.248l-1.096-.515a571.96 571.96 0 01-4.744-2.255c-15.296-7.373-29.987-15.354-43.609-23.671 1.886-33.966 30.102-61.028 64.531-61.028 35.645 0 64.651 29.006 64.651 64.651 0 18.242-7.609 34.73-19.805 46.493-15.765-5.073-31.981-11.244-48.243-18.382l-.981-.432zM179.655 516.07c9.153 0 19.797.9 31.709 2.817-18.887 14.384-33.608 33.952-42.002 56.579-.419-.397-.844-.796-1.253-1.19-.186-.179-.375-.359-.559-.538a178.12 178.12 0 01-2.46-2.432l-.384-.391a179.097 179.097 0 01-1.997-2.059c-.178-.187-.357-.373-.532-.56a148.747 148.747 0 01-4.335-4.784l-.261-.303c-12.945-15.039-17.439-26.988-15.269-34.036l.023-.08c.122-.384.262-.755.424-1.109 3.393-7.459 16.444-11.914 36.896-11.914zm46.694 123.264a535.56 535.56 0 0032.107 16.814l.756.363c1.399.672 2.805 1.34 4.216 2.003l1.234.58c1.669.78 3.344 1.555 5.028 2.322a556.473 556.473 0 007.604 3.388c.795.348 1.588.687 2.383 1.031a576.741 576.741 0 007.959 3.37 547.94 547.94 0 005.525 2.249c.714.286 1.428.579 2.141.862 2.461.975 4.918 1.929 7.369 2.859.75.284 1.495.556 2.244.836a498.294 498.294 0 007.66 2.8 64.299 64.299 0 01-24.835 4.967c-28.593-.001-52.89-18.664-61.391-44.444zm226.821 31.164c-.01.017-.023.034-.033.052-2.674 4.421-9.37 7.984-20.092 9.745-.141.023-.279.047-.422.069-.31.049-.636.092-.953.138-8.929 1.261-20.257 1.303-33.62-.117 10.118-18.148 15.894-39.033 15.894-61.245 0-2.978-.109-5.93-.313-8.855 31.283 25.617 45.059 48.237 40.043 59.254a9.475 9.475 0 01-.504.959z"/></svg>