<svg xmlns="http://www.w3.org/2000/svg" width="60" height="60" viewBox="0 0 60 60"><g fill="none" fill-rule="evenodd"><path d="M28 12c-7.732 0-14 6.268-14 14m3.019-2.504L14 26.12l-2.624-3.02M35.197 48c7.732 0 14-6.268 14-14m-3.019 2.504l3.02-2.624 2.624 3.019" stroke="#D8D8D8" stroke-width="2"/><circle cx="19.6" cy="41.6" r="9.6" fill="#FFF" stroke="#FF9A00" stroke-width="2"/><path fill="#FF9A00" fill-rule="nonzero" d="M20.273 43.535c-.03-.3 0-.567.09-.802.09-.235.212-.458.367-.668.155-.21.325-.412.51-.607s.36-.398.525-.608c.165-.21.302-.438.412-.683a2.01 2.01 0 00.166-.832c0-.44-.073-.822-.218-1.148a2.16 2.16 0 00-.6-.802 2.485 2.485 0 00-.9-.465 4 4 0 00-1.117-.15c-.59 0-1.128.125-1.613.375a4.1 4.1 0 00-1.253.99l1.216 1.11c.2-.2.407-.365.622-.495.215-.13.462-.195.742-.195.3 0 .543.08.728.24.185.16.277.395.277.705 0 .19-.052.373-.157.547a3.906 3.906 0 01-.398.54l-.502.578c-.175.2-.333.42-.473.66-.14.24-.247.5-.322.78-.075.28-.087.59-.038.93h1.936zm-.976 3.645c.38 0 .698-.133.953-.398a1.36 1.36 0 00.383-.982c0-.4-.128-.732-.383-.997a1.268 1.268 0 00-.953-.398c-.38 0-.695.133-.945.398s-.375.597-.375.997c0 .39.125.718.375.983.25.264.566.397.945.397z"/><circle cx="43.6" cy="17.6" r="9.6" fill="#FFF" stroke="#FF9A00" stroke-width="2"/><path fill="#FF9A00" fill-rule="nonzero" d="M44.273 19.535c-.03-.3 0-.567.09-.802a2.8 2.8 0 01.367-.668c.155-.21.325-.413.51-.608s.36-.397.525-.607a3.27 3.27 0 00.413-.683 2.01 2.01 0 00.165-.832c0-.44-.073-.823-.218-1.148a2.16 2.16 0 00-.6-.802 2.485 2.485 0 00-.9-.465 4 4 0 00-1.117-.15c-.59 0-1.128.125-1.613.375a4.1 4.1 0 00-1.253.99l1.215 1.11c.2-.2.408-.365.623-.495.215-.13.463-.195.742-.195.3 0 .543.08.728.24.185.16.277.395.277.705 0 .19-.052.373-.157.547a3.906 3.906 0 01-.398.54c-.16.186-.327.378-.502.578-.175.2-.333.42-.473.66-.14.24-.247.5-.322.78-.075.28-.087.59-.038.93h1.935zm-.976 3.645c.38 0 .698-.133.953-.398s.383-.592.383-.982c0-.4-.128-.733-.383-.998a1.268 1.268 0 00-.953-.397c-.38 0-.694.133-.944.397-.25.265-.376.598-.376.998 0 .39.126.717.376.982s.564.398.944.398z"/></g></svg>