<svg xmlns="http://www.w3.org/2000/svg" width="77" height="77"><g fill="#324351" fill-rule="evenodd" transform="translate(13 13)"><rect width="4" height="12" x="23.5" rx="2"/><rect width="4" height="12" x="23.5" y="39" opacity=".6" rx="2"/><rect width="4" height="12" x="37.289" y="5.711" opacity=".3" rx="2" transform="rotate(45 39.289 11.711)"/><rect width="4" height="12" x="9.711" y="33.289" opacity=".7" rx="2" transform="rotate(45 11.711 39.289)"/><rect width="4" height="12" x="43" y="19.5" opacity=".4" rx="2" transform="rotate(90 45 25.5)"/><rect width="4" height="12" x="4" y="19.5" opacity=".8" rx="2" transform="rotate(90 6 25.5)"/><rect width="4" height="12" x="37.289" y="33.289" opacity=".5" rx="2" transform="rotate(135 39.289 39.289)"/><rect width="4" height="12" x="9.711" y="5.711" opacity=".9" rx="2" transform="rotate(135 11.711 11.711)"/></g></svg>