<svg width="77" height="77" viewBox="0 0 77 77" xmlns="http://www.w3.org/2000/svg"><g transform="translate(13 13)" fill="#324351" fill-rule="evenodd"><rect x="23.5" width="4" height="12" rx="2"/><rect opacity=".6" x="23.5" y="39" width="4" height="12" rx="2"/><rect opacity=".3" transform="rotate(45 39.289 11.711)" x="37.289" y="5.711" width="4" height="12" rx="2"/><rect opacity=".7" transform="rotate(45 11.711 39.289)" x="9.711" y="33.289" width="4" height="12" rx="2"/><rect opacity=".4" transform="rotate(90 45 25.5)" x="43" y="19.5" width="4" height="12" rx="2"/><rect opacity=".8" transform="rotate(90 6 25.5)" x="4" y="19.5" width="4" height="12" rx="2"/><rect opacity=".5" transform="rotate(135 39.289 39.289)" x="37.289" y="33.289" width="4" height="12" rx="2"/><rect opacity=".9" transform="rotate(135 11.711 11.711)" x="9.711" y="5.711" width="4" height="12" rx="2"/></g></svg>