<svg width="16" height="12" viewBox="0 0 16 12" xmlns="http://www.w3.org/2000/svg"><path d="M14.643 12H1.357c-.364 0-.679-.113-.947-.336l4.584-4.31.316.216c.343.238.621.423.835.556.214.133.498.269.853.407.355.14.686.208.993.208h.018c.307 0 .638-.069.993-.208.355-.138.64-.274.853-.407.214-.133.492-.318.835-.556l.317-.214 4.583 4.308a1.434 1.434 0 01-.947.336zM.926 4.612c1.298.82 2.356 1.495 3.177 2.027L0 10.452V3.87c.269.278.578.525.926.741zm14.157 0c.348-.221.654-.468.917-.741v6.58l-4.103-3.81c.875-.567 1.937-1.243 3.186-2.029zM14.57 0c.387 0 .722.135 1.005.406.282.271.424.596.424.977 0 .455-.146.89-.437 1.304a4.18 4.18 0 01-1.09 1.063 8434.194 8434.194 0 00-4.312 2.9l-.246.172c-.193.135-.354.244-.482.328a9.57 9.57 0 01-.464.28 2.745 2.745 0 01-.514.234c-.16.052-.31.078-.446.078H7.99c-.137 0-.285-.026-.446-.078a2.751 2.751 0 01-.514-.233 9.147 9.147 0 01-.464-.28 18.85 18.85 0 01-.482-.33l-.246-.171-.134-.092a592.524 592.524 0 00-2.34-1.577 384.878 384.878 0 01-1.83-1.231A4.365 4.365 0 01.49 2.752C.164 2.328 0 1.935 0 1.572 0 1.123.123.75.37.45.618.15.97 0 1.429 0h13.143z" fill="#505558"/></svg>