<svg xmlns="http://www.w3.org/2000/svg" width="52" height="15" viewBox="0 0 52 15"><g fill="none" fill-rule="evenodd"><path fill="#F7F7F7" d="M5 0h44.04a2 2 0 012 2v11a2 2 0 01-2 2H5a2 2 0 01-2-2V2a2 2 0 012-2z"/><path fill="#F7F7F7" d="M3 5.172L5.828 8 3 10.828.172 8z"/><rect width="19" height="9" x="6" y="3" fill="#FFF" stroke="#FFF" stroke-width="2" rx="1"/><g fill-rule="nonzero"><path fill="#00559C" d="M13.783 5.082l-.859 4.836h1.373l.86-4.836zm-1.985.001L10.44 8.386l-.145-.499c-.268-.6-1.028-1.464-1.921-2.008l1.242 4.039 1.467-.002 2.185-4.834-1.47.001z"/><path fill="#F2A11A" d="M9.718 5.477c-.079-.296-.308-.384-.592-.395H7.017L7 5.179c1.64.387 2.726 1.321 3.177 2.444l-.459-2.146z"/><path fill="#00559C" d="M17.94 6.012c.45-.007.775.087 1.028.185l.124.056.186-1.05A3.673 3.673 0 0018.048 5c-1.358 0-2.314.657-2.322 1.599-.008.695.682 1.084 1.203 1.316.535.237.715.389.712.6-.004.325-.426.474-.821.474-.55 0-.842-.073-1.293-.254l-.177-.077-.193 1.084c.321.135.914.252 1.53.258 1.443 0 2.382-.65 2.392-1.655.006-.55-.36-.97-1.154-1.315-.48-.225-.775-.375-.772-.601 0-.202.25-.417.787-.417zm4.938-.93h-1.072c-.333 0-.58.086-.726.402l-2.06 4.434h1.457s.237-.596.291-.727l1.776.002c.042.17.17.725.17.725H24l-1.122-4.836zm-1.71 3.119l.552-1.353c-.008.014.113-.28.185-.462l.093.418.321 1.397h-1.152z"/></g><rect width="19" height="9" x="29" y="3" fill="#FFF" stroke="#FFF" stroke-width="2" rx="1"/><g fill-rule="nonzero" transform="translate(33 4)"><ellipse cx="3.431" cy="3.524" fill="#EE0005" rx="3.378" ry="3.471"/><ellipse cx="7.618" cy="3.524" fill="#F9A000" rx="3.378" ry="3.471"/><path fill="#FF6300" d="M4.24 3.524c0 1.104.502 2.088 1.285 2.725a3.505 3.505 0 001.284-2.725A3.505 3.505 0 005.525.798 3.505 3.505 0 004.24 3.524z"/></g></g></svg>