<svg width="17" height="13" viewBox="0 0 17 13" xmlns="http://www.w3.org/2000/svg"><path d="M17 1.539a7.624 7.624 0 01-2.008.518A3.305 3.305 0 0016.525.244a7.235 7.235 0 01-2.21.794A3.598 3.598 0 0011.77 0C9.84 0 8.286 1.474 8.286 3.281c0 .26.024.51.081.748C5.47 3.896 2.906 2.589 1.184.598a3.156 3.156 0 00-.477 1.658c0 1.136.621 2.143 1.548 2.726A3.608 3.608 0 01.68 4.578v.036c0 1.594 1.208 2.918 2.792 3.223a3.684 3.684 0 01-.913.108c-.224 0-.449-.012-.66-.056.451 1.299 1.733 2.254 3.256 2.285a7.286 7.286 0 01-4.32 1.399c-.287 0-.56-.012-.835-.045A10.262 10.262 0 005.346 13c6.414 0 9.92-5 9.92-9.334 0-.145-.005-.285-.013-.424A6.742 6.742 0 0017 1.539z" fill="#505558"/></svg>