<svg width="14" height="14" viewBox="0 0 14 14" xmlns="http://www.w3.org/2000/svg"><path d="M8.416 10.742l1.41 2.664A6.976 6.976 0 017 14a6.976 6.976 0 01-2.826-.594l1.41-2.664a3.999 3.999 0 002.609.077l.223-.077zM4.7 10.274l-1.41 2.664a7.032 7.032 0 01-1.298-1.047l2.3-1.946c.128.118.265.228.408.329zm5.005-.329l2.301 1.946c-.388.398-.824.75-1.298 1.047l-1.41-2.664c.143-.1.279-.21.407-.329zm-8.36-7.074l2.301 1.947A3.981 3.981 0 003 7c0 .805.238 1.555.647 2.182l-2.3 1.947A6.969 6.969 0 010 7c0-1.544.5-2.972 1.347-4.13zM14 7c0 1.544-.5 2.972-1.347 4.13l-2.3-1.948C10.763 8.555 11 7.805 11 7c0-.805-.238-1.555-.647-2.182l2.3-1.947A6.969 6.969 0 0114 7zM3.291 1.062l1.41 2.664c-.143.1-.28.211-.408.33l-2.3-1.947c.388-.398.824-.75 1.298-1.047zm8.716 1.047l-2.3 1.946a4.018 4.018 0 00-.408-.329l1.41-2.664c.474.297.91.649 1.298 1.047zM7 0c1.006 0 1.962.212 2.827.594L8.416 3.258A3.991 3.991 0 007 3c-.498 0-.976.091-1.416.258L4.173.594A6.976 6.976 0 017 0z" fill="#505558"/></svg>