<svg xmlns="http://www.w3.org/2000/svg" width="24" height="28" viewBox="0 0 24 28"><path fill="#324351" d="M23.255 22.482c-.824-.337-1.176-.783-1.142-1.449.035-.777-.408-1.346-.618-1.571.127-.483.498-2.155 0-3.607-.534-1.554-2.167-3.928-3.851-6.262-.69-.958-.723-2-.76-3.206-.036-1.15-.077-2.454-.721-3.904C15.463.905 14.058 0 12.309 0c-1.04 0-2.11.324-2.931.889C7.695 2.047 7.918 4.57 8.064 6.24c.02.23.04.445.05.63.099 1.635.01 2.497-.107 2.76-.076.17-.447.658-.84 1.174a35.564 35.564 0 00-1.246 1.702c-.45.678-.815 1.714-1.166 2.717-.258.733-.501 1.426-.738 1.84a2.498 2.498 0 00-.244 1.882c-.17.118-.415.35-.622.786-.25.533-.759.819-1.816 1.021-.485.099-.82.302-.995.605-.255.44-.116.992.01 1.37.188.555.071.907-.14 1.545-.05.147-.105.314-.161.497-.089.29-.057.554.094.785.4.607 1.564.822 2.762.963.716.084 1.5.37 2.257.646.742.27 1.51.55 2.208.634.106.014.21.02.312.02 1.054 0 1.53-.696 1.68-.982.379-.077 1.684-.324 3.03-.357 1.342-.038 2.641.226 3.01.308.115.221.42.725.907.985.267.146.639.229 1.02.229.407 0 1.18-.096 1.793-.738.612-.645 2.138-1.469 3.253-2.07.249-.134.482-.26.686-.373.626-.346.968-.84.937-1.356-.025-.429-.31-.805-.743-.981zm-13.863-.125c-.078-.547-.785-1.09-1.603-1.718-.669-.513-1.427-1.096-1.636-1.589-.431-1.017-.091-2.806.502-3.727.293-.462.533-1.161.764-1.837.25-.73.509-1.486.798-1.817.458-.516.882-1.52.957-2.311.428.408 1.094.925 1.708.925.095 0 .187-.012.275-.037.42-.12 1.039-.477 1.637-.821.516-.297 1.151-.663 1.39-.696.411.587 2.795 5.843 3.039 7.531a7.954 7.954 0 01-.114 2.873 2.128 2.128 0 00-.283-.02c-.664 0-.84.36-.886.576-.118.56-.13 2.352-.131 2.755-.24.304-1.455 1.735-3.198 1.993-.71.102-1.373.155-1.97.155-.512 0-.838-.04-.973-.06l-.876-.999c.345-.17.69-.529.6-1.176zM10.503 5.89a1.402 1.402 0 00-.08.038 1.62 1.62 0 00-.019-.18c-.095-.548-.46-.946-.868-.946a.61.61 0 00-.093.007c-.243.04-.433.222-.537.479.092-.564.412-.982.793-.982.447 0 .824.6.824 1.31 0 .09-.006.179-.02.274zm3.472.423c.041-.13.063-.27.063-.416 0-.644-.41-1.148-.933-1.148-.511 0-.928.515-.928 1.148 0 .043.002.086.007.13l-.08-.03a1.75 1.75 0 01-.088-.553c0-.77.493-1.396 1.1-1.396.608 0 1.102.626 1.102 1.396 0 .32-.09.626-.243.87zm-.447 1.499c-.009.039-.028.056-.233.163a6.296 6.296 0 00-.396.219l-.108.065c-.434.263-1.452.878-1.729.914-.187.025-.303-.048-.564-.224a8.151 8.151 0 00-.189-.125c-.47-.308-.773-.647-.807-.78.153-.118.534-.413.728-.588.395-.366.793-.612.99-.612.01 0 .02 0 .03.002.23.04.801.268 1.218.433.192.077.359.143.476.185.368.126.56.287.584.348zm3.312 17.11c.208-.935.447-2.207.409-2.957a18.96 18.96 0 00-.04-.534c-.027-.335-.067-.834-.025-.981a.18.18 0 01.027-.01c.002.428.096 1.283.782 1.581.204.089.438.134.694.134.687 0 1.45-.336 1.762-.647.184-.183.339-.408.447-.585.024.069.038.16.03.276-.04.632.268 1.47.855 1.78l.085.044c.21.11.764.4.773.537 0 0-.004.017-.035.045-.14.127-.629.376-1.102.617-.84.427-1.79.91-2.218 1.359-.602.63-1.282 1.054-1.693 1.054a.446.446 0 01-.135-.019c-.446-.138-.814-.78-.616-1.695zM1.627 22.535c-.045-.213-.081-.38-.043-.542.028-.12.624-.25.879-.305.357-.077.727-.157.97-.303.327-.198.504-.562.66-.883.113-.233.23-.473.369-.552a.078.078 0 01.043-.01c.26 0 .807.546 1.122 1.034.08.123.227.37.399.656.512.853 1.213 2.022 1.579 2.414.33.353.864 1.03.732 1.61-.096.451-.608.818-.729.899a.75.75 0 01-.162.015c-.7 0-2.088-.581-2.833-.893l-.11-.046c-.416-.174-1.096-.284-1.753-.39-.523-.084-1.238-.2-1.357-.304-.096-.107.015-.457.114-.765.07-.222.144-.451.184-.69.057-.384-.01-.695-.064-.945z"/></svg>