<svg xmlns="http://www.w3.org/2000/svg" width="24" height="24"><g fill="none" fill-rule="evenodd"><path fill="#7ED085" fill-rule="nonzero" d="M19.013 7.86l.164.144A19.063 19.063 0 0121.1 10c.343.411.587.736.722.931l.394.569-.394.569c-.135.195-.38.52-.722.93-.567.68-1.211 1.36-1.923 1.997C17.088 16.863 14.845 18 12.5 18c-1.024 0-2.03-.217-3.01-.617l1.577-1.578c.48.128.96.195 1.433.195 1.763 0 3.587-.925 5.344-2.496a17.084 17.084 0 001.9-2.004 17.084 17.084 0 00-2.15-2.223l1.419-1.417zm-3.44-2.217L14 7.214A5.573 5.573 0 0012.5 7c-1.763 0-3.587.925-5.344 2.496a17.084 17.084 0 00-1.9 2.004l.18.219a17.084 17.084 0 002.017 2.044L6.034 15.18c-.07-.06-.14-.123-.21-.185A19.063 19.063 0 013.9 13a14.006 14.006 0 01-.722-.931l-.394-.569.394-.569c.135-.195.38-.52.722-.93.567-.68 1.211-1.36 1.923-1.997C7.912 6.137 10.155 5 12.5 5c1.046 0 2.072.226 3.073.643z"/><path fill="#7ED085" fill-rule="nonzero" d="M10.018 11.197a2.501 2.501 0 012.18-2.179l-2.18 2.18zm4.95.708l-2.063 2.062a2.502 2.502 0 002.062-2.062z"/><path stroke="#7ED085" stroke-width="2" d="M6 18.044L19.012 5.032"/></g></svg>