<svg xmlns="http://www.w3.org/2000/svg" width="24" height="29"><g fill="#324351"><path d="M1.314 10.66c-2.466 4.255-.899 10.711 1.828 14.626C4.502 27.243 5.88 29 7.768 29c.035 0 .071 0 .108-.002.886-.035 1.527-.307 2.147-.57.695-.294 1.414-.599 2.543-.599 1.073 0 1.758.295 2.42.58.653.281 1.326.572 2.32.553 2.125-.04 3.43-1.935 4.582-3.607a15.951 15.951 0 002.008-4.09l.008-.025a.237.237 0 00-.127-.292l-.017-.007c-.375-.153-3.659-1.601-3.693-5.55-.032-3.207 2.463-4.906 2.964-5.214l.023-.014a.238.238 0 00.068-.334C21.4 7.323 18.76 6.945 17.697 6.9a4.812 4.812 0 00-.474-.023c-1.248 0-2.444.47-3.405.846-.663.26-1.236.485-1.63.485-.445 0-1.02-.228-1.688-.491-.892-.352-1.903-.751-2.974-.751h-.075c-2.489.037-4.84 1.453-6.137 3.695z"/><path d="M17.699 0c-1.507.061-3.315.984-4.396 2.243-.918 1.057-1.816 2.821-1.58 4.6a.238.238 0 00.22.205c.1.008.205.012.308.012 1.474 0 3.064-.81 4.15-2.116 1.142-1.379 1.72-3.148 1.545-4.732A.24.24 0 0017.7 0z"/></g></svg>