<svg width="16" height="16" viewBox="0 0 16 16" fill="none" xmlns="http://www.w3.org/2000/svg">
    <path d="M7.99976 10.6163C8.51717 10.6163 9.02296 10.4628 9.45318 10.1754C9.88339 9.88792 10.2187 9.47935 10.4167 9.00132C10.6147 8.52329 10.6665 7.99728 10.5656 7.48981C10.4646 6.98234 10.2155 6.5162 9.84961 6.15033C9.48374 5.78446 9.0176 5.53531 8.51013 5.43436C8.00266 5.33342 7.47665 5.38523 6.99862 5.58323C6.52059 5.78124 6.11202 6.11655 5.82456 6.54676C5.5371 6.97698 5.38367 7.48277 5.38367 8.00018C5.38367 8.69401 5.65929 9.35943 6.1499 9.85004C6.64051 10.3407 7.30593 10.6163 7.99976 10.6163ZM7.99976 6.95375C8.20672 6.95375 8.40904 7.01512 8.58112 7.13011C8.75321 7.24509 8.88733 7.40852 8.96654 7.59973C9.04574 7.79094 9.06646 8.00135 9.02608 8.20433C8.98571 8.40732 8.88604 8.59378 8.7397 8.74013C8.59335 8.88647 8.40689 8.98614 8.20391 9.02651C8.00092 9.06689 7.79051 9.04617 7.5993 8.96696C7.40809 8.88776 7.24466 8.75364 7.12968 8.58155C7.01469 8.40947 6.95332 8.20715 6.95332 8.00018C6.95332 7.72265 7.06357 7.45649 7.25981 7.26024C7.45606 7.064 7.72222 6.95375 7.99976 6.95375Z" fill="white"/>
    <path d="M0 9.83126L0.674951 11.019L1.72139 12.8319L2.4068 14.017L3.67037 13.4938L4.4552 13.1746C4.71517 13.3517 4.988 13.5091 5.27142 13.6455L5.39176 14.4905L5.5932 15.8483H10.4068L10.6004 14.501L10.7207 13.656C11.0042 13.5196 11.277 13.3622 11.537 13.1851L12.3218 13.5043L13.5932 14.017L14.2786 12.8293L15.325 11.0163L16 9.83126L14.93 8.9915L14.2603 8.46828C14.2725 8.31306 14.2786 8.15697 14.2786 8C14.2786 7.84303 14.2725 7.6852 14.2603 7.52649L14.93 7.00327L16 6.16874L15.325 4.98103L14.2786 3.16808L13.5932 1.983L12.3296 2.50621L11.5448 2.82538C11.2848 2.6483 11.012 2.4909 10.7286 2.35448L10.6082 1.50948L10.4068 0.151733H5.5932L5.39961 1.49902L5.27927 2.34402C4.99585 2.48044 4.72301 2.63784 4.46305 2.81491L3.67822 2.49575L2.4068 1.983L1.72139 3.1707L0.674951 4.98365L0 6.16874L1.06998 7.0085L1.7397 7.53172C1.72749 7.68694 1.72139 7.84303 1.72139 8C1.72139 8.15697 1.72749 8.3148 1.7397 8.47351L1.06998 8.99673L0 9.83126ZM3.29104 8C3.29245 7.61622 3.34077 7.23405 3.43492 6.862L2.03793 5.76586L3.08437 3.95291L4.72989 4.61216C5.2817 4.07958 5.95524 3.68982 6.69195 3.47678L6.95356 1.72139H9.04644L9.30804 3.47678C10.0488 3.68902 10.7261 4.07978 11.2806 4.61478L12.9261 3.95553L13.9725 5.76848L12.5755 6.86462C12.7679 7.61109 12.7679 8.39415 12.5755 9.14061L13.9725 10.2368L12.9261 12.0497L11.2806 11.3905C10.7255 11.9236 10.0482 12.3125 9.30804 12.5232L9.04644 14.2786H6.95356L6.69195 12.5232C5.95124 12.311 5.27393 11.9202 4.71942 11.3852L3.0739 12.0445L2.02747 10.2315L3.42446 9.13538C3.33404 8.76374 3.28924 8.38247 3.29104 8Z" fill="white"/>
</svg>
