<svg xmlns="http://www.w3.org/2000/svg" width="135" height="40" viewBox="0 0 135 40"><g fill="none"><path fill="#000" d="M130 40H5c-2.8 0-5-2.2-5-5V5c0-2.8 2.2-5 5-5h125c2.8 0 5 2.2 5 5v30c0 2.7-2.2 5-5 5z"/><path fill="#FFF" d="M47.987 30l-1.021-3.096h-4.408L41.537 30h-2.208l4.25-11.978h2.415L50.244 30h-2.257zm-3.254-9.861l-1.677 5.113h3.403l-1.668-5.113h-.058zm11.538.689c2.307 0 3.777 1.793 3.777 4.64 0 2.839-1.461 4.632-3.744 4.632-1.303 0-2.324-.59-2.847-1.602h-.042v4.49h-2.067v-12.06h2.017v1.527h.042c.498-.997 1.594-1.627 2.864-1.627zm-.606 7.553c1.37 0 2.266-1.137 2.266-2.913 0-1.768-.897-2.922-2.266-2.922-1.353 0-2.258 1.179-2.258 2.922 0 1.751.905 2.913 2.258 2.913zm10.691-7.553c2.308 0 3.777 1.793 3.777 4.64 0 2.839-1.46 4.632-3.744 4.632-1.303 0-2.324-.59-2.847-1.602h-.041v4.49h-2.067v-12.06h2.017v1.527h.041c.498-.997 1.594-1.627 2.864-1.627zm-.606 7.553c1.37 0 2.266-1.137 2.266-2.913 0-1.768-.896-2.922-2.266-2.922-1.353 0-2.258 1.179-2.258 2.922 0 1.751.905 2.913 2.258 2.913zm9.256-1.751h2.075c.133 1.104 1.237 1.826 2.698 1.826 1.444 0 2.448-.714 2.448-1.71 0-.863-.614-1.361-2.125-1.718l-1.552-.365c-2.208-.507-3.254-1.57-3.254-3.28 0-2.124 1.851-3.56 4.458-3.56 2.64 0 4.382 1.427 4.432 3.536h-2.042c-.1-1.12-1.037-1.793-2.407-1.793-1.353 0-2.266.664-2.266 1.66 0 .797.606 1.262 2.075 1.61l1.378.316c2.432.556 3.461 1.56 3.461 3.345 0 2.274-1.826 3.702-4.723 3.702-2.756 0-4.565-1.361-4.656-3.57zm11.397-7.728h2.066v2.025h1.719v1.602h-1.719v4.782c0 .747.35 1.104 1.096 1.104.2 0 .482-.025.614-.042v1.585c-.224.05-.647.084-1.087.084-1.926 0-2.69-.698-2.69-2.45V22.53h-1.236v-1.602h1.237v-2.025zm9.23 11.23c-2.673 0-4.366-1.776-4.366-4.673 0-2.863 1.71-4.656 4.366-4.656 2.673 0 4.375 1.784 4.375 4.656 0 2.897-1.685 4.674-4.375 4.674zm0-1.651c1.428 0 2.274-1.112 2.274-3.013 0-1.901-.855-3.013-2.274-3.013-1.411 0-2.266 1.12-2.266 3.013 0 1.9.855 3.013 2.266 3.013zM101.385 30v-9.073h1.984v1.577h.042c.29-1.062 1.104-1.676 2.175-1.676.274 0 .506.033.664.083v1.876c-.175-.067-.498-.117-.855-.117-1.212 0-1.943.789-1.943 2.067V30h-2.067zm9.854-7.587c-1.212 0-2.092.88-2.184 2.175h4.3c-.041-1.312-.888-2.175-2.116-2.175zm2.125 4.89h1.942c-.266 1.676-1.876 2.83-3.993 2.83-2.68 0-4.341-1.777-4.341-4.632 0-2.855 1.668-4.698 4.267-4.698 2.54 0 4.15 1.735 4.15 4.482v.68h-6.35v.125c0 1.461.93 2.432 2.316 2.432.996 0 1.768-.473 2.009-1.22zM40.821 7.377h2.373c1.974 0 3.135 1.212 3.135 3.3 0 2.093-1.161 3.323-3.135 3.323h-2.373V7.377zm1.029.886v4.847h1.248c1.404 0 2.185-.859 2.185-2.424 0-1.56-.78-2.423-2.185-2.423H41.85zm7.49 5.797c-1.441 0-2.359-.983-2.359-2.552 0-1.565.923-2.557 2.36-2.557 1.436 0 2.354.987 2.354 2.557 0 1.57-.914 2.552-2.355 2.552zm0-.827c.845 0 1.345-.637 1.345-1.725s-.5-1.73-1.345-1.73c-.844 0-1.35.647-1.35 1.73 0 1.088.506 1.725 1.35 1.725zm9.699-4.218L57.666 14h-1.028l-1.06-3.754h-.023L54.504 14H53.48l-1.377-4.985h.992l.927 3.948h.018l1.056-3.948h.955l1.06 3.948h.018l.927-3.948h.983zM59.667 14V9.015h.95v.84h.019c.303-.587.803-.895 1.574-.895 1.102 0 1.73.698 1.73 1.845V14h-.996v-3.006c0-.758-.348-1.18-1.078-1.18-.753 0-1.203.523-1.203 1.308V14h-.996zm5.31 0V7.079h.997V14h-.996zm4.191.06c-1.44 0-2.359-.983-2.359-2.552 0-1.565.923-2.557 2.36-2.557 1.436 0 2.354.987 2.354 2.557 0 1.57-.913 2.552-2.355 2.552zm0-.827c.845 0 1.345-.637 1.345-1.725s-.5-1.73-1.345-1.73c-.844 0-1.35.647-1.35 1.73 0 1.088.506 1.725 1.35 1.725zm4.884.023c.739 0 1.299-.472 1.299-1.129v-.39l-1.212.083c-.68.041-1.033.294-1.033.734 0 .427.372.702.946.702zm-.266.794c-.996 0-1.685-.587-1.685-1.477 0-.873.675-1.377 1.905-1.455l1.345-.078v-.386c0-.57-.381-.881-1.047-.881-.541 0-.936.28-1.023.711h-.932c.028-.881.863-1.533 1.983-1.533 1.216 0 2.001.643 2.001 1.63V14h-.95v-.83h-.023c-.275.54-.895.88-1.574.88zm5.425 0c-1.249 0-2.102-1.005-2.102-2.547 0-1.533.853-2.538 2.093-2.538.716 0 1.285.326 1.57.877h.022V7.079h.992V14h-.964v-.845h-.018c-.294.565-.863.895-1.593.895zm.252-4.24c-.803 0-1.335.67-1.335 1.698 0 1.032.528 1.698 1.335 1.698.799 0 1.336-.68 1.336-1.698 0-1.015-.537-1.699-1.336-1.699zm7.68 4.25c-1.442 0-2.36-.983-2.36-2.552 0-1.565.923-2.557 2.36-2.557 1.436 0 2.354.987 2.354 2.557 0 1.57-.914 2.552-2.355 2.552zm0-.827c.844 0 1.344-.637 1.344-1.725s-.5-1.73-1.345-1.73c-.844 0-1.35.647-1.35 1.73 0 1.088.506 1.725 1.35 1.725zm3.152.767V9.015h.95v.84h.019c.303-.587.803-.895 1.574-.895 1.102 0 1.73.698 1.73 1.845V14h-.995v-3.006c0-.758-.35-1.18-1.08-1.18-.752 0-1.202.523-1.202 1.308V14h-.996zm7.734-6.104h.992v1.12h.954V9.8h-.954v2.786c0 .432.192.634.61.634.106 0 .275-.014.34-.023v.785c-.11.027-.344.05-.56.05-.996 0-1.382-.38-1.382-1.345V9.8h-.688v-.785h.688v-1.12zM100.857 14V7.079h.986v2.776h.023c.299-.587.813-.895 1.575-.895 1.097 0 1.753.73 1.753 1.855V14h-.996v-2.993c0-.743-.372-1.193-1.102-1.193-.775 0-1.243.532-1.243 1.331V14h-.996zm7.408-4.236c-.716 0-1.235.523-1.29 1.29h2.529c-.023-.776-.514-1.29-1.24-1.29zm1.234 2.776h.95c-.142.895-1.019 1.52-2.139 1.52-1.445 0-2.345-.973-2.345-2.534 0-1.56.909-2.575 2.304-2.575 1.368 0 2.23.95 2.23 2.46v.35h-3.529v.059c0 .863.542 1.432 1.359 1.432.578 0 1.033-.276 1.17-.712zm-85.58-2.134c.802-1.035 1.41-2.498 1.19-3.991-1.31.09-2.843.93-3.736 2.022-.815.99-1.485 2.463-1.223 3.893 1.432.045 2.91-.814 3.769-1.924zM31 24.453c-.573 1.278-.85 1.849-1.588 2.98-1.03 1.58-2.483 3.548-4.285 3.562-1.6.018-2.011-1.048-4.183-1.035-2.17.012-2.624 1.056-4.226 1.04-1.8-.016-3.177-1.791-4.207-3.371-2.883-4.415-3.186-9.598-1.408-12.354 1.264-1.958 3.259-3.103 5.132-3.103 1.907 0 3.107 1.053 4.686 1.053 1.532 0 2.465-1.055 4.67-1.055 1.67 0 3.439.915 4.698 2.493-4.127 2.276-3.459 8.204.711 9.79z"/></g></svg>