<svg width="599" height="148" viewBox="0 0 599 148" xmlns="http://www.w3.org/2000/svg"><path d="M48.161 76.39V.429h5.592c16.33-.001 32.66-.022 48.99.004 13.777.023 21.471 7.609 21.51 21.26.045 16.497.01 32.994.011 49.49v5.207H48.161zm367.249-1.587c.181 7.493 1.303 14.66 5.911 20.845 5.393 7.237 12.81 9.83 21.53 8.888 8.99-.972 14.421-6.337 16.978-14.756 2.883-9.495 3.342-19.21-.349-28.427-1.68-4.198-4.896-8.73-8.682-10.97-14.375-8.505-30.805-.764-34.202 15.528-.609 2.919-.8 5.926-1.186 8.892m-4.968 65.802L414.58 132c36.096 14.316 50.882-4.86 46.601-26.942-4.972 5.415-10.638 9.05-17.865 9.918-16.56 1.987-30.207-5.512-36.232-21.083-5.195-13.423-5.062-27.1 1.556-40.172 9.637-19.038 35.985-23.266 51.463-8.436.335.32.745.564 1.612 1.209l.61-7.797h10.77v8.682c0 21.317.017 42.633-.005 63.95-.024 22.327-11.147 34.246-33.41 35.864-10.553.765-21.697-1.661-29.237-6.588M336.81 79.326c.756 3.19 1.363 8.934 3.494 14.043 3.61 8.654 10.397 13.68 20.16 13.607 9.785-.074 16.875-4.633 20.76-13.612 4.97-11.485 4.629-23.026-.98-34.188-7.278-14.488-26.325-16.33-36.543-3.77-5.126 6.3-6.315 13.74-6.89 23.92zm58.555 36.116h-10.526v-9.39c-.798-.073-1.281-.245-1.39-.11-9.26 11.33-21.31 13.809-34.671 9.979-13.517-3.874-19.954-14.418-22.525-27.435-2.343-11.86-1.43-23.456 4.249-34.514 9.985-19.443 38.663-23.832 53.288-5.808V8.494h11.575v106.948zM539.312 68.2c-.281-13.602-8.777-21.983-21.582-21.65-12.762.331-23.771 10.422-23.503 21.65h45.085zm11.007 10.328h-57.49c.8 11.173 4.714 19.971 14.534 24.984 13.516 6.902 25.777 3.443 37.629-5.79l5.269 8.67c-11.436 9.858-24.365 13.01-38.7 10.021-21.725-4.528-33.983-24.715-29.8-48.507 3.9-22.192 24.612-35.504 46.464-30.179 19.218 4.684 25.83 27.276 22.094 40.801zM305.542 68.293c.268-12.306-7.917-21.159-19.428-21.787-14.41-.786-25.906 10.885-25.804 21.787h45.232zM259.12 78.427c.885 11.486 4.88 20.339 15.025 25.387 11.858 5.901 23.082 4.092 36.727-5.689.27.124.662.175.817.394 5.8 8.183 5.71 8.568-3.076 13.504-17.99 10.106-41.497 5.85-53.297-9.649-12.29-16.143-10.62-41.393 3.666-55.467 10.319-10.166 28.179-13.341 40.843-7.26 11.96 5.743 19.3 20.391 17.984 35.258-.301 3.399-2.083 3.549-4.64 3.542-16.154-.043-32.308-.021-48.462-.02h-5.587zm-71.03-70.1h11.119v96.408h49.103v10.571H188.09zm371.641 30.269h10.841V52.63c3.712-3.865 6.937-7.519 10.508-10.799 1.525-1.4 3.685-2.263 5.7-2.949 10.64-3.618 13.4-1.154 11.461 10.071-17.939 2.564-24.882 9.236-26.783 27.876-1.093 10.71-.476 21.594-.619 32.4-.025 1.954-.004 3.91-.004 6.164h-11.104V38.596zM1.228 76.373h29.13V47.244H1.228zm47.022 46.732h28.766V93.943H48.25zM1.48 94.02h28.875v28.565C11.92 126.504-2.023 116.934 1.48 94.02m28.9-92.84v28.368H1.837C-2.296 11.034 7.986-3.4 30.38 1.18m64.489 121.612V94.208h28.627c4.768 19.52-7.72 32.227-28.627 28.584" fill="#231F20"/></svg>