<svg width="123" height="33" viewBox="0 0 123 33" fill="none" xmlns="http://www.w3.org/2000/svg"><rect x=".895" y=".5" width="32" height="32" rx="8" fill="url(#paint0_linear_251_1086)"/><g clip-path="url(#clip0_251_1086)"><path d="M16.96 23.86c-3.863 0-6.56-2.37-6.56-5.762 0-3.211 3.667-8.493 7.808-9.598-.939.937-2.229 2.349-2.948 3.89-1.02 2.186-1.117 5.522-1.028 5.914l.144.633.612-.237a7.327 7.327 0 001.895-1.094 8.612 8.612 0 001.062-.999c1.313-1.457 2.154-3.343 2.29-5.04 1.87 1.248 3.285 3.972 3.285 6.53 0 3.394-2.698 5.763-6.56 5.763z" fill="#fff"/></g><path d="M95.065 3.762c1.664 0 2.939.299 3.824.896.886.587 1.328 1.504 1.328 2.752 0 .779-.181 1.413-.544 1.904-.352.48-.864.859-1.536 1.136.224.277.459.597.704.96.246.352.486.725.72 1.12.245.384.48.79.704 1.216.224.416.432.827.624 1.232h-2.8c-.203-.363-.41-.73-.624-1.104a18.135 18.135 0 00-.64-1.088 19.99 19.99 0 00-.64-.992 10.11 10.11 0 00-.64-.864h-1.232v4.048h-2.496V4.05a14.164 14.164 0 011.68-.224c.587-.043 1.11-.064 1.568-.064zm.144 2.128c-.181 0-.347.005-.496.016-.138.01-.272.021-.4.032v3.008h.704c.939 0 1.61-.117 2.016-.352.406-.235.608-.635.608-1.2 0-.544-.208-.928-.624-1.152-.405-.235-1.008-.352-1.808-.352zm-4.996-2v2.128H86.87v8.96h-2.496v-8.96H81.03V3.89h9.184zm-14.2 9.184c.352 0 .64-.027.864-.08.235-.064.421-.144.56-.24a.852.852 0 00.288-.368 1.29 1.29 0 00.08-.464c0-.363-.17-.661-.512-.896-.341-.245-.928-.507-1.76-.784a15.383 15.383 0 01-1.088-.432 4.357 4.357 0 01-.976-.624 3.12 3.12 0 01-.704-.912c-.181-.363-.272-.8-.272-1.312s.096-.97.288-1.376c.192-.416.464-.768.816-1.056a3.632 3.632 0 011.28-.656 5.568 5.568 0 011.696-.24c.747 0 1.392.08 1.936.24.544.16.992.336 1.344.528l-.72 1.968a6.214 6.214 0 00-1.04-.416c-.373-.128-.827-.192-1.36-.192-.597 0-1.03.085-1.296.256-.256.16-.384.41-.384.752 0 .203.048.373.144.512.096.139.23.267.4.384.181.107.384.208.608.304.235.085.49.176.768.272.576.213 1.077.427 1.504.64.427.203.779.443 1.056.72.288.277.501.603.64.976s.208.827.208 1.36c0 1.035-.363 1.84-1.088 2.416-.725.565-1.819.848-3.28.848-.49 0-.933-.032-1.328-.096a8.07 8.07 0 01-1.056-.208 6.642 6.642 0 01-.784-.272 6.453 6.453 0 01-.544-.272l.704-1.984c.33.181.736.347 1.216.496.49.139 1.088.208 1.792.208zm-10.078 2.048c-.608 0-1.216-.021-1.824-.064a12.105 12.105 0 01-1.872-.256V4.05a14.748 14.748 0 011.68-.208 19.49 19.49 0 011.696-.08c.704 0 1.35.053 1.936.16.597.096 1.11.267 1.536.512.427.245.757.57.992.976.245.395.368.885.368 1.472 0 .885-.427 1.584-1.28 2.096.704.267 1.184.63 1.44 1.088.256.459.384.976.384 1.552 0 1.163-.427 2.037-1.28 2.624-.843.587-2.101.88-3.776.88zm-1.264-4.976v2.864c.181.021.379.037.592.048.213.01.448.016.704.016.747 0 1.35-.107 1.808-.32.459-.213.688-.608.688-1.184 0-.512-.192-.875-.576-1.088-.384-.224-.933-.336-1.648-.336h-1.568zm0-1.904h1.216c.768 0 1.317-.096 1.648-.288.33-.203.496-.523.496-.96 0-.448-.17-.763-.512-.944-.341-.181-.843-.272-1.504-.272-.213 0-.443.005-.688.016-.245 0-.464.01-.656.032v2.416zM51.694 9.426c0 .544.064 1.035.192 1.472.14.437.331.816.576 1.136.256.31.566.55.928.72a2.9 2.9 0 001.248.256c.46 0 .87-.085 1.232-.256.374-.17.683-.41.928-.72.256-.32.448-.699.576-1.136.14-.437.208-.928.208-1.472 0-.544-.069-1.035-.208-1.472a3.086 3.086 0 00-.576-1.136 2.416 2.416 0 00-.928-.736 2.86 2.86 0 00-1.232-.256c-.469 0-.885.09-1.248.272-.362.17-.672.416-.928.736a3.45 3.45 0 00-.576 1.136 5.173 5.173 0 00-.192 1.456zm8.464 0c0 .95-.144 1.787-.432 2.512a5.155 5.155 0 01-1.152 1.808 4.79 4.79 0 01-1.76 1.088 6.298 6.298 0 01-2.176.368 6.204 6.204 0 01-2.144-.368 4.987 4.987 0 01-1.76-1.088 5.224 5.224 0 01-1.184-1.808c-.288-.725-.432-1.563-.432-2.512 0-.95.15-1.781.448-2.496.3-.725.7-1.333 1.2-1.824a5.064 5.064 0 011.76-1.104 6.11 6.11 0 012.112-.368c.758 0 1.472.123 2.144.368a4.876 4.876 0 011.76 1.104c.502.49.896 1.099 1.184 1.824.288.715.432 1.547.432 2.496zm-11.855 3.408v2.144h-7.408V3.89h2.496v8.944h4.912z" fill="#1F4B65"/><path d="M118.38 21.743c.235-.059.546-.121.935-.187a8.092 8.092 0 011.342-.099c.455 0 .832.066 1.133.198.301.125.539.304.715.539.183.227.312.502.385.825.073.323.11.678.11 1.067v3.212h-1.023v-2.992c0-.352-.026-.653-.077-.902a1.47 1.47 0 00-.231-.605.904.904 0 00-.44-.33 1.844 1.844 0 00-.682-.11 5.411 5.411 0 00-.682.044 3.044 3.044 0 00-.462.066v4.829h-1.023v-5.555zm-1.439 2.695c0 .455-.066.865-.198 1.232a2.77 2.77 0 01-.561.946c-.235.264-.517.47-.847.616-.33.14-.69.209-1.078.209a2.74 2.74 0 01-1.078-.21 2.563 2.563 0 01-.858-.615 2.862 2.862 0 01-.55-.946 3.618 3.618 0 01-.198-1.232c0-.447.066-.854.198-1.221.132-.374.315-.693.55-.957.242-.264.528-.466.858-.605.33-.147.689-.22 1.078-.22.388 0 .748.073 1.078.22.33.14.612.34.847.605.242.264.429.583.561.957.132.367.198.774.198 1.22zm-1.067 0c0-.645-.147-1.155-.44-1.53-.286-.38-.679-.571-1.177-.571-.499 0-.895.19-1.188.572-.286.374-.429.884-.429 1.529 0 .645.143 1.159.429 1.54.293.374.689.56 1.188.56.498 0 .891-.186 1.177-.56.293-.381.44-.895.44-1.54zm-5.741 2.86h-1.023v-5.72h1.023v5.72zm-.517-6.754a.687.687 0 01-.473-.176.668.668 0 01-.187-.495c0-.205.062-.367.187-.484a.664.664 0 01.473-.187c.183 0 .337.062.462.187a.614.614 0 01.198.484.65.65 0 01-.198.495.65.65 0 01-.462.176zm-4.085 6.016c.418 0 .726-.054.924-.164a.555.555 0 00.308-.528.701.701 0 00-.297-.594c-.198-.147-.524-.312-.979-.495-.22-.088-.432-.176-.638-.264a2.408 2.408 0 01-.517-.33 1.425 1.425 0 01-.352-.451 1.441 1.441 0 01-.132-.65c0-.505.187-.905.561-1.198.374-.3.884-.451 1.529-.451.162 0 .323.01.484.033.162.015.312.037.451.066.14.022.261.048.363.077.11.03.195.055.253.077l-.187.88a2.416 2.416 0 00-.517-.176 3.156 3.156 0 00-.847-.1c-.286 0-.535.06-.748.177a.555.555 0 00-.319.528.78.78 0 00.066.33.933.933 0 00.22.264c.103.073.228.143.374.209.147.066.323.136.528.209.272.103.514.205.726.308.213.095.393.209.539.34.154.133.272.294.352.485.081.183.121.41.121.682 0 .528-.198.928-.594 1.199-.388.271-.946.407-1.672.407-.506 0-.902-.044-1.188-.132a5.636 5.636 0 01-.583-.187l.187-.88c.118.044.305.11.561.198.257.088.598.132 1.023.132zm-7.647-4.817c.235-.059.546-.121.935-.187a8.09 8.09 0 011.342-.099c.455 0 .832.066 1.133.198.301.125.539.304.715.539.183.227.312.502.385.825.073.323.11.678.11 1.067v3.212h-1.023v-2.992c0-.352-.026-.653-.077-.902a1.47 1.47 0 00-.231-.605.904.904 0 00-.44-.33 1.844 1.844 0 00-.682-.11 5.42 5.42 0 00-.682.044 3.055 3.055 0 00-.462.066v4.829h-1.023v-5.555zm-6.464 2.706c0-.506.074-.946.22-1.32.147-.381.341-.697.583-.946.242-.25.521-.436.836-.561.316-.125.638-.187.968-.187.77 0 1.36.242 1.771.726.411.477.616 1.206.616 2.189v.176c0 .066-.003.128-.01.187h-3.917c.044.594.217 1.045.517 1.353.301.308.77.462 1.408.462.36 0 .66-.03.902-.088.25-.066.437-.128.561-.187l.143.858c-.124.066-.344.136-.66.209-.308.073-.66.11-1.056.11-.498 0-.93-.073-1.298-.22a2.476 2.476 0 01-.89-.627 2.604 2.604 0 01-.529-.935 4.157 4.157 0 01-.165-1.2zm3.927-.561c.008-.462-.11-.84-.352-1.133-.234-.3-.56-.451-.979-.451a1.34 1.34 0 00-.627.143 1.418 1.418 0 00-.45.352 1.736 1.736 0 00-.298.506c-.066.19-.11.385-.132.583h2.838zm-6.969-2.31h2.167v.858h-2.167v2.64c0 .286.022.524.066.715.044.183.11.33.198.44a.73.73 0 00.33.22c.132.044.286.066.462.066.308 0 .554-.033.737-.1.19-.072.323-.124.396-.153l.198.847a3.502 3.502 0 01-.539.187c-.257.08-.55.12-.88.12-.389 0-.711-.047-.968-.142a1.447 1.447 0 01-.605-.451 1.838 1.838 0 01-.33-.726 5.196 5.196 0 01-.088-1.012v-5.104l1.023-.176v1.77zm-3.154 5.72a8.771 8.771 0 00-.297-.54 12.752 12.752 0 00-.385-.604 23.626 23.626 0 00-.858-1.21c-.14.183-.282.381-.43.594-.146.205-.289.414-.428.627-.132.205-.257.407-.374.605-.117.198-.216.374-.297.528h-1.056c.257-.499.56-1.005.913-1.518a47.9 47.9 0 011.067-1.485l-1.892-2.717h1.155l1.364 2.002 1.375-2.002h1.089l-1.848 2.65c.352.478.711.984 1.078 1.519.374.528.69 1.045.946 1.55h-1.122zm-9.884-2.849c0-.506.073-.946.22-1.32a2.76 2.76 0 01.582-.946c.242-.25.521-.436.836-.561.316-.125.638-.187.968-.187.77 0 1.36.242 1.771.726.411.477.616 1.206.616 2.189v.176c0 .066-.003.128-.01.187h-3.917c.044.594.217 1.045.517 1.353.301.308.77.462 1.408.462.36 0 .66-.03.902-.088.25-.066.437-.128.561-.187l.143.858c-.124.066-.344.136-.66.209-.308.073-.66.11-1.056.11-.498 0-.931-.073-1.298-.22a2.474 2.474 0 01-.89-.627 2.604 2.604 0 01-.529-.935 4.157 4.157 0 01-.165-1.2zm3.926-.561c.008-.462-.11-.84-.352-1.133-.234-.3-.56-.451-.979-.451a1.34 1.34 0 00-.627.143 1.417 1.417 0 00-.45.352 1.736 1.736 0 00-.298.506c-.066.19-.11.385-.132.583h2.838zm-8.285-2.431c.088 0 .187.007.297.022.118.007.231.022.341.044.11.015.21.033.297.055.096.015.165.03.21.044l-.177.891a2.969 2.969 0 00-.407-.099 3.16 3.16 0 00-.715-.066c-.19 0-.381.022-.572.066a9.59 9.59 0 00-.363.077v4.807H68.87V21.82c.242-.088.543-.169.902-.242.36-.08.763-.121 1.21-.121zm-8.575 2.992c0-.506.073-.946.22-1.32a2.76 2.76 0 01.583-.946c.242-.25.52-.436.836-.561.315-.125.638-.187.968-.187.77 0 1.36.242 1.77.726.411.477.617 1.206.617 2.189v.176c0 .066-.004.128-.011.187h-3.916c.044.594.216 1.045.517 1.353.3.308.77.462 1.408.462.36 0 .66-.03.902-.088.25-.066.436-.128.56-.187l.144.858c-.125.066-.345.136-.66.209-.308.073-.66.11-1.056.11-.499 0-.932-.073-1.298-.22a2.474 2.474 0 01-.891-.627 2.604 2.604 0 01-.528-.935 4.157 4.157 0 01-.165-1.2zm3.927-.561c.007-.462-.11-.84-.352-1.133-.235-.3-.561-.451-.98-.451a1.34 1.34 0 00-.626.143 1.417 1.417 0 00-.451.352 1.736 1.736 0 00-.297.506c-.066.19-.11.385-.132.583h2.838zm-9.925-2.145c.235-.059.547-.121.935-.187a8.09 8.09 0 011.342-.099c.455 0 .833.066 1.133.198.301.125.54.304.715.539.184.227.312.502.385.825.074.323.11.678.11 1.067v3.212h-1.023v-2.992c0-.352-.025-.653-.077-.902a1.47 1.47 0 00-.23-.605.903.903 0 00-.44-.33 1.843 1.843 0 00-.683-.11 5.42 5.42 0 00-.682.044 3.06 3.06 0 00-.462.066v4.829h-1.023v-5.555zm-2.773 4.983c-.088.059-.26.136-.517.231a2.65 2.65 0 01-.88.132c-.345 0-.671-.055-.979-.165-.3-.11-.565-.279-.792-.506a2.531 2.531 0 01-.539-.869c-.132-.345-.198-.755-.198-1.232 0-.418.062-.8.187-1.144.125-.352.304-.653.539-.902.242-.257.535-.455.88-.594a2.95 2.95 0 011.166-.22c.477 0 .891.037 1.243.11.36.066.66.128.902.187v5.104c0 .88-.227 1.518-.682 1.914-.455.396-1.144.594-2.068.594a5.72 5.72 0 01-1.848-.297l.187-.891c.205.08.455.15.748.209.3.066.612.099.935.099.609 0 1.045-.121 1.309-.363.271-.242.407-.627.407-1.155v-.242zm-.011-4.246a2.888 2.888 0 00-.418-.077c-.169-.03-.4-.044-.693-.044-.55 0-.975.18-1.276.539-.293.36-.44.836-.44 1.43 0 .33.04.612.121.847a1.8 1.8 0 00.341.583c.147.154.312.268.495.341.19.073.385.11.583.11.271 0 .52-.037.748-.11.227-.08.407-.172.539-.275V22.48zm-5.334 4.818h-1.023v-5.72h1.023v5.72zm-.517-6.754a.688.688 0 01-.473-.176.67.67 0 01-.187-.495c0-.205.062-.367.187-.484a.665.665 0 01.473-.187c.183 0 .337.062.462.187a.614.614 0 01.198.484.65.65 0 01-.198.495.649.649 0 01-.462.176zm-4.523 5.995c1.114 0 1.671-.381 1.671-1.144a1.08 1.08 0 00-.154-.594 1.298 1.298 0 00-.396-.429 2.6 2.6 0 00-.583-.319 16.45 16.45 0 00-.682-.264 7.768 7.768 0 01-.792-.319 3.021 3.021 0 01-.649-.429 1.958 1.958 0 01-.44-.594 1.996 1.996 0 01-.154-.825c0-.667.228-1.188.682-1.562.455-.374 1.082-.561 1.881-.561.462 0 .88.051 1.254.154.382.095.66.202.836.319l-.34.869c-.155-.095-.386-.187-.694-.275a3.502 3.502 0 00-1.056-.143c-.205 0-.396.022-.572.066-.176.044-.33.11-.462.198a1.014 1.014 0 00-.319.341.959.959 0 00-.11.473c0 .205.04.378.121.517.08.14.195.264.341.374.147.103.316.198.506.286.198.088.415.176.65.264.33.132.63.264.901.396.279.132.517.29.715.473.206.183.363.403.473.66.11.25.165.554.165.913 0 .667-.245 1.18-.737 1.54-.484.36-1.17.539-2.057.539-.3 0-.58-.022-.836-.066a6.416 6.416 0 01-.67-.132 6.013 6.013 0 01-.518-.176 6.746 6.746 0 01-.33-.165l.32-.88c.168.095.425.202.77.319.344.117.766.176 1.264.176z" fill="#1F4B65" fill-opacity=".54"/><defs><linearGradient id="paint0_linear_251_1086" x1="16.895" y1=".5" x2="16.895" y2="32.5" gradientUnits="userSpaceOnUse"><stop stop-color="#5CB3CB"/><stop offset="1" stop-color="#4594AF"/></linearGradient><clipPath id="clip0_251_1086"><path fill="#fff" transform="translate(8.895 8.5)" d="M0 0h15.36v15.36H0z"/></clipPath></defs></svg>