<svg xmlns="http://www.w3.org/2000/svg" xmlns:xlink="http://www.w3.org/1999/xlink" width="68" height="79"><defs><path id="a" d="M38.878 19.011c0 10.46-8.684 18.975-19.37 19.012h-.069C8.721 38.023 0 29.494 0 19.011 0 8.53 8.721 0 19.44 0h.068c10.686.037 19.37 8.552 19.37 19.011z"/></defs><g fill="none" fill-rule="evenodd"><path fill="#69C76F" fill-rule="nonzero" d="M67.068 20.108c-.095-2.055-.095-4.017-.095-5.979 0-1.588-1.24-2.802-2.863-2.802-11.927 0-20.99-3.363-28.529-10.556a2.99 2.99 0 00-4.007 0C24.036 7.964 14.972 11.327 3.045 11.327c-1.622 0-2.862 1.214-2.862 2.802 0 1.962 0 3.924-.096 5.979-.381 19.618-.954 46.522 32.537 57.825l.954.187.954-.187C67.927 66.63 67.45 39.82 67.068 20.108z"/><path fill="#61C067" fill-rule="nonzero" d="M67.068 20.108c-.095-2.055-.095-4.017-.095-5.979 0-1.588-1.24-2.802-2.863-2.802-11.927 0-20.99-3.363-28.529-10.556a2.993 2.993 0 00-1.888-.769c-.503-.02-.541 26.02-.115 78.118l.954-.187C67.927 66.63 67.45 39.82 67.068 20.108z"/><g transform="translate(13.43 19.357)"><mask id="b" fill="#fff"><use xlink:href="#a"/></mask><use fill="#FFF" fill-rule="nonzero" xlink:href="#a"/><path fill="#B4D2D7" fill-rule="nonzero" d="M29.708 15.478l-8.982 8.35-1.94 1.803a2.435 2.435 0 01-1.661.64 2.437 2.437 0 01-1.662-.64l-4.172-3.88a2.075 2.075 0 010-3.086c.915-.852 2.403-.852 3.32 0l2.514 2.337 9.263-8.61c.917-.853 2.404-.853 3.32 0a2.075 2.075 0 010 3.086z" mask="url(#b)"/><path fill="#336F89" fill-rule="nonzero" d="M49.48 19.702c0 15.786-13.309 28.635-29.688 28.69v-57.38c16.379.057 29.689 12.906 29.689 28.69z" mask="url(#b)" opacity=".05"/></g></g></svg>