<svg xmlns="http://www.w3.org/2000/svg" xmlns:xlink="http://www.w3.org/1999/xlink" width="67" height="78" viewBox="0 0 67 78"><defs><path id="a" d="M38.79 18.982c0 10.444-8.665 18.945-19.327 18.983h-.068C8.702 37.965 0 29.449 0 18.982 0 8.516 8.702 0 19.395 0h.068C30.125.037 38.79 8.539 38.79 18.982z"/></defs><g fill="none" fill-rule="evenodd"><path fill="#69C76F" fill-rule="nonzero" d="M66.916 20.077c-.095-2.052-.095-4.01-.095-5.97 0-1.585-1.238-2.798-2.856-2.798-11.9 0-20.944-3.357-28.464-10.54a2.982 2.982 0 00-3.999 0c-7.52 7.183-16.564 10.54-28.464 10.54-1.618 0-2.856 1.213-2.856 2.799 0 1.958 0 3.917-.095 5.97-.38 19.587-.952 46.45 32.463 57.735l.952.187.952-.187c33.319-11.286 32.843-38.055 32.462-57.736z"/><path fill="#61C067" fill-rule="nonzero" d="M66.916 20.075c-.095-2.052-.095-4.01-.095-5.97 0-1.585-1.238-2.798-2.856-2.798-11.9 0-20.944-3.358-28.464-10.54A2.985 2.985 0 0033.616 0c-.501-.02-.54 25.98-.114 77.998l.952-.187c33.319-11.286 32.843-38.055 32.462-57.736z"/><g transform="translate(14.038 19.327)"><mask id="b" fill="#fff"><use xlink:href="#a"/></mask><use fill="#FFF" fill-rule="nonzero" xlink:href="#a"/><path fill="#B4D2D7" fill-rule="nonzero" d="M29.002 15.454l-8.961 8.337-1.937 1.801a2.429 2.429 0 01-1.656.638c-.6 0-1.2-.212-1.658-.638l-4.163-3.874a2.072 2.072 0 010-3.081c.914-.851 2.397-.851 3.312 0l2.509 2.333 9.242-8.597c.915-.851 2.398-.851 3.312 0a2.072 2.072 0 010 3.081z" mask="url(#b)"/><path fill="#336F89" fill-rule="nonzero" d="M48.764 19.672c0 15.761-13.28 28.59-29.621 28.647V-8.973c16.341.056 29.62 12.885 29.62 28.645z" mask="url(#b)" opacity=".05"/></g></g></svg>