<svg width="107" height="130" viewBox="0 0 107 130" xmlns="http://www.w3.org/2000/svg"><path d="M91.711 56.518L1 102.538v-5.762L107 43v5.762l-9.336 4.736-.005 6.888c-.028 13.961-5.12 27.741-13.921 38.577-6.458 7.95-14.983 14.318-24.58 17.77-.982.354-1.976.677-2.979.97-1.497.43-3.079.378-4.569-.062-5.97-1.774-11.598-4.654-16.599-8.36A59.485 59.485 0 0124.9 99.736l5.451-2.765a54.43 54.43 0 004.607 4.626c5.177 4.607 11.318 8.209 17.917 10.236.536.165 1.072.344 1.634.185 4.734-1.364 9.318-3.595 13.445-6.43 13.864-9.522 22.83-25.775 23.69-42.613a53.1 53.1 0 00.068-2.667v-3.79zm-79.274 18.92a60.196 60.196 0 01-1.795-9.665 59.02 59.02 0 01-.3-5.836c-.007-8.89-.05-17.78 0-26.671.004-.445.07-.91.388-1.235.347-.355.862-.465 1.33-.581 5.141-1.284 10.18-2.986 15.093-4.95 8.315-3.324 16.296-7.477 23.64-12.608.718-.5 1.428-1.016 2.132-1.531.085-.06.1-.068.148-.098a1.84 1.84 0 01.945-.263c.465.006.884.235 1.274.52 9.426 6.916 20.153 12.253 31.137 16.064l-7.2 3.653a138.411 138.411 0 01-4.725-1.97c-6.94-3.044-13.632-6.675-19.862-10.938a1.142 1.142 0 00-1.277-.005c-8.967 6.133-18.778 10.93-28.987 14.554a128.057 128.057 0 01-7.27 2.343 1.134 1.134 0 00-.82 1.08c0 7.543-.004 15.086 0 22.629a53.756 53.756 0 001.58 12.754L107 27.47v5.761L1 87v-5.76l11.437-5.802z" fill="#0607AC"/></svg>