<svg xmlns="http://www.w3.org/2000/svg" width="187" height="187" viewBox="0 0 187 187"><defs><linearGradient id="a" x1="98.979%" x2="-41.314%" y1="-26.087%" y2="191.85%"><stop offset="0%" stop-color="#F1F9FF"/><stop offset="100%" stop-color="#DDF1FF"/></linearGradient><linearGradient id="b" x1="98.972%" x2="-41.3%" y1="-26.087%" y2="191.85%"><stop offset="0%" stop-color="#F1F9FF"/><stop offset="100%" stop-color="#DDF1FF"/></linearGradient><linearGradient id="c" x1="98.959%" x2="-41.277%" y1="-26.087%" y2="191.85%"><stop offset="0%" stop-color="#F1F9FF"/><stop offset="100%" stop-color="#DDF1FF"/></linearGradient><linearGradient id="d" x1="98.976%" x2="-41.308%" y1="-26.087%" y2="191.85%"><stop offset="0%" stop-color="#F1F9FF"/><stop offset="100%" stop-color="#DDF1FF"/></linearGradient></defs><g fill="none"><g opacity=".9"><path fill="#DDF1FF" d="M42.038 87.543c.802-16.588 9.68-33.347 21.675-44.567 7.786-7.276 20.893-15.473 31.6-9.251-6.423-3.74-9.817-5.865-17.388-4.315-9.88 2.04-18.36 9.52-24.552 17.092-6.507 7.942-11.512 17.316-14.123 27.278a51.52 51.52 0 00-1.816 12.444c-.146 12.58 3.607 17.772 13.651 23.61-7.61-4.434-9.435-14.206-9.047-22.29z"/><path fill="url(#a)" d="M35.36 7c17.241-9.95 31.28-1.96 31.317 17.848.038 19.809-13.875 43.949-31.113 53.9C18.326 88.7 4.284 80.716 4.24 60.897 4.196 41.08 18.112 16.96 35.36 7.001z" transform="translate(37.4 28.56)"/><path fill="url(#b)" d="M35.377 13.457c14.14-8.16 25.636-1.611 25.68 14.637.044 16.249-11.373 36.04-25.5 44.2C21.43 80.454 9.904 73.9 9.86 57.654 9.816 41.409 21.24 21.62 35.377 13.457z" transform="translate(37.4 28.56)"/><path fill="#B6D2F7" d="M77.962 68.02c1.17.313 1.863 1.48 1.873 3.139 0 2.907-2.04 6.46-4.566 7.911v2.108l-1.829 1.058V80.13l-2.75 1.588v2.105l-1.833 1.06v-2.108l-2.747 1.588v-2.108l1.832-1.057-.04-14.746-1.833 1.057v-2.108l2.747-1.587V61.71l1.833-1.06v2.107l2.75-1.588v-2.108l1.833-1.057v2.108c2.533-1.462 4.583-.303 4.597 2.587-.007 1.673-.694 3.649-1.867 5.321zm-8.126-2.692v6.32l5.501-3.175c1.517-.878 2.744-3.003 2.74-4.76-.003-1.758-1.24-2.448-2.76-1.571l-5.498 3.175.017.01zm5.525 11.55c1.516-.878 2.744-3.003 2.74-4.76-.003-1.758-1.24-2.449-2.76-1.575l-5.498 3.176.017 6.32 5.501-3.175v.013z"/></g><path fill="#B6D2F7" d="M143.453 31.413c.455-.266.826-.051.826.472v5.053a1.809 1.809 0 01-.799 1.424l-11.288 6.518c-.456.262-.826.048-.826-.473l-.017-5.055c.032-.58.34-1.11.826-1.425l11.278-6.514zm-9 8.323a.146.146 0 01-.112-.153.486.486 0 01.102-.282.85.85 0 01.275-.249.31.31 0 01.276-.054c.068.03.102.109.102.238l.652-.377a.653.653 0 00-.129-.436.425.425 0 00-.36-.132c-.188.02-.368.083-.527.183-.2.114-.38.256-.537.422-.153.153-.28.33-.374.524a1.265 1.265 0 00-.13.533.459.459 0 00.53.507c.141-.004.281-.021.419-.051a.813.813 0 01.357 0c.068.024.102.088.102.197a.48.48 0 01-.095.282.751.751 0 01-.255.225c-.167.098-.293.129-.367.092-.075-.038-.113-.136-.113-.303l-.649.374a.71.71 0 00.136.466.46.46 0 00.405.14c.212-.024.417-.095.598-.208.29-.163.542-.388.734-.66.17-.23.263-.509.266-.795 0-.34-.147-.527-.442-.548a1.479 1.479 0 00-.463.041.921.921 0 01-.394.024h-.007zm3.509-2.496v-.581l-1.88 1.081v3.118l1.876-1.078v-.578l-1.213.7v-.748l1.02-.591v-.558l-1.02.595v-.66l1.217-.7zm2.064 1.36v-.588l-1.14.656v-2.54l-.656.378v3.118l1.792-1.02.004-.004zm2.063-1.2v-.581l-1.139.656v-2.54l-.652.377v3.118l1.791-1.03z"/><path d="M19.802 108.457l-.01-4.138-2.39 1.38-.021-7.653-1.194.69.02 7.653-2.267 1.31.014 4.137 2.264-1.305.017 5.902 1.197-.69-.017-5.906zm5.671-3.067l2.39-1.38-.024-8.256-2.39 1.377-.01-3.532-1.194.69.01 3.532-2.267 1.31.024 8.258 2.267-1.309.007 2.897 1.197-.69-.01-2.897zm139.842-56.63l-.01-4.138-2.39 1.377-.021-7.65-1.197.69.024 7.65-2.268 1.309.01 4.141 2.268-1.309.017 5.902 1.197-.69-.017-5.902zM33.997 116.664v.068l2.386-1.377-.068-24.497-2.39 1.38-.017-6.929-1.193.69.017 6.926-2.268 1.313.068 24.493 2.271-1.309.01 3.781 1.194-.687-.01-3.784zm10.268 10.493l-.048-17.038-2.387 1.377-.024-8.133-1.193.69.024 8.133-2.268 1.31.048 17.037 2.267-1.31.031 11.109 1.197-.69-.034-11.105zm16.282-14.45l-.02-6.756-2.387 1.38-.024-7.97-1.193.687.024 7.97-2.268 1.309.02 6.756 2.268-1.31.014 4.846 1.19-.687-.014-4.845zm8.119 1.598l-.017-6.324-2.386 1.377-.024-8.402-1.194.687.024 8.405-2.268 1.309.017 6.327 2.272-1.312.006 3.298 1.194-.69-.01-3.295zm5.682.255l2.39-1.38-.014-3.836-2.386 1.38-.01-4.192-1.194.69.01 4.19-2.268 1.312.01 3.835 2.272-1.313.013 4.852 1.19-.69-.013-4.848zm10.832 24.449l-.088-31.47-2.387 1.377-.01-4.19-1.197.691.01 4.189-2.264 1.309.088 31.47 2.268-1.309.007 2.764 1.193-.69-.007-2.764zm16.045-19.699l-.116-40.12-2.387 1.38-.078-28.132-1.197.69.082 28.132v.003-.003l-2.268 1.309.112 40.12 2.268-1.285.007 2.08 1.193-.693-.003-2.105zm8.228-8.303l-.085-29.523-2.387 1.377-.048-16.16-1.193.69.044 16.16v.004-.003l-2.268 1.309.085 29.522 2.268-1.299.017 5.644 1.194-.69-.017-5.654zm7.752-33.028l-.01-3.835-2.387 1.38-.044-15.473-1.194.69.044 15.47-2.27 1.312.01 3.836 2.27-1.313.055 19.027 1.193-.687-.054-19.027zm6.021-6.875l2.387-1.38-.04-14.48-2.388 1.376-.044-15.46-1.193.69.044 15.46-2.271 1.31.04 14.483 2.272-1.312.007 2.958 1.193-.69-.007-2.955zm47.26-10.176l2.387-1.38-.04-14.481-2.388 1.377-.044-15.46-1.193.69.044 15.46-2.271 1.31.044 14.483 2.268-1.312.01 2.958 1.19-.69-.007-2.955zm-36.934-6.871l-.01-3.417-2.387 1.38-.007-2.666-1.197.69.007 2.666-2.268 1.31.01 3.413 2.268-1.32v.01l.068 23.277 1.194-.69-.065-23.273zm13.968 13.368l2.386-1.38-.02-6.888-2.387 1.38-.004-1.673-1.193.69.003 1.67-2.264 1.309.017 6.888 2.268-1.309-.01-3.444.01 3.444.01 3.954 1.193-.686-.01-3.955zm10.056-5.81l-.023-8.667-2.387 1.38-.014-4.453-1.193.69.013 4.45-2.267 1.313.023 8.666 2.268-1.278.014 3.92 1.19-.687-.01-3.954z" fill="#B6D2F7" opacity=".3"/><path fill="#68C86F" d="M52.459 122.427l-.034-11.71-2.387 1.381-.01-3.02-1.194.691.01 3.016-2.267 1.312.03 11.706 2.268-1.309.051 18.02 1.197-.69-.051-18.02zm40.647 12.006l-.147-50.531-2.386 1.377-.038-13.988-1.193.69.037 13.988v.003l-2.264 1.306.143 50.53 2.267-1.308v-.004.004l.014 5.834 1.193-.687-.017-5.834z"/><path fill="#B6D2F7" d="M141.92 63.855l-.045-15.653-2.387 1.38-.013-3.971-1.194.69.01 3.968v.003l-2.267 1.306.044 15.657 2.268-1.312.03 11.033 1.197-.69-.03-11.034z"/><path fill="#68C86F" d="M96.676 141.848c.428-.248.778-.048.778.445v4.76a1.7 1.7 0 01-.775 1.343l-10.615 6.12c-.432.249-.778.048-.782-.445v-4.76a1.7 1.7 0 01.775-1.343l10.619-6.12zm-2.55 5.304l.816-2.353-.68.381-.466 1.547-.476-1.003-.66.384.826 1.404v1.068l.626-.36v-1.054l.014-.014zm-1.646 1v-1.925l-.615.34v1.918a.932.932 0 01-.099.449.738.738 0 01-.289.289c-.252.146-.38.057-.391-.259v-1.948l-.615.34v1.935c0 .32.095.523.275.605a.826.826 0 00.734-.146c.202-.115.384-.262.538-.436a1.9 1.9 0 00.34-.564c.078-.202.118-.416.119-.632l.003.034zm-2.58 2.247a1.4 1.4 0 00.234-.785.462.462 0 00-.109-.34.3.3 0 00-.306-.048 1.163 1.163 0 00.357-.833c0-.265-.085-.415-.258-.456a1.166 1.166 0 00-.752.225l-.914.53v2.934l1.02-.598c.278-.153.519-.367.704-.626l.023-.003z"/><path fill="#4EC594" d="M89.08 148.723a.432.432 0 01.3-.089c.06 0 .091.089.094.215 0 .104-.03.205-.088.292a.816.816 0 01-.286.252l-.32.183v-.68l.3-.173zm.14 1.071c.21-.123.316-.061.319.183a.568.568 0 01-.088.3.755.755 0 01-.259.234l-.401.235v-.704l.428-.248z"/><path fill="#DDF1FF" d="M107.44 133.742c.816-16.585 9.68-33.343 21.675-44.563 7.786-7.283 20.893-15.474 31.6-9.252-6.423-3.74-9.816-5.865-17.388-4.314-9.88 2.04-18.36 9.52-24.551 17.088-6.508 7.946-11.513 17.316-14.124 27.271a51.72 51.72 0 00-1.819 12.448c-.143 12.58 3.61 17.772 13.654 23.606-7.605-4.42-9.431-14.198-9.047-22.284z"/><path fill="url(#c)" d="M124.226 53.203c17.238-9.955 31.26-1.965 31.317 17.847.058 19.812-13.875 43.945-31.103 53.9-17.228 9.955-31.28 1.965-31.324-17.85-.044-19.815 13.862-43.942 31.11-53.897z" transform="translate(13.94 28.56)"/><path fill="url(#d)" d="M124.243 59.66c14.137-8.16 25.636-1.612 25.68 14.62.044 16.231-11.373 36.04-25.5 44.2-14.127 8.16-25.64 1.608-25.687-14.637-.048-16.245 11.366-36.02 25.507-44.183z" transform="translate(13.94 28.56)"/><path fill="#B6D2F7" d="M150.521 105.325v-.071l-.06.064a1816.86 1816.86 0 01-3.846 4.482l-8.35 9.72-10.384 12.09-.401.466v2.292l.068-.075 4.505-5.25 7.14-8.299c2.556-2.982 5.117-5.96 7.731-8.959.02.252.048.5.055.758a12.138 12.138 0 01-.272 2.982c-.918 4.393-3.917 8.84-7.392 11.003-.102.06-.2.122-.3.176a8.53 8.53 0 01-1.937.847 7.324 7.324 0 01-2.006.279l-1.336 1.56c-.15.165-.286.341-.408.527.241.041.476.099.72.126a7.844 7.844 0 004.108-.843 13.627 13.627 0 002.213-1.34 17.724 17.724 0 002.139-1.87 23.066 23.066 0 005.606-9.683c.325-1.135.531-2.3.616-3.478a13.26 13.26 0 000-1.7 3.033 3.033 0 010-.496 3.947 3.947 0 01.979-2.173l.755-.874a.19.19 0 00.054-.132c.007-.694.007-1.415.003-2.129zm-9.965 9.18c1.956-2.266 3.91-4.543 5.862-6.83l3.947-4.594a.19.19 0 00.061-.156v-2.207l-19.424 22.617v-.068c-.017-.187-.037-.377-.048-.568a11.72 11.72 0 01.232-2.948 17.955 17.955 0 012.607-6.273 16.255 16.255 0 014.42-4.647 10.139 10.139 0 012.007-1.071 7.296 7.296 0 012.641-.507c.432-.51.867-1.02 1.302-1.52l.473-.55-.061-.018c-1.517-.34-3.196-.074-5.046.85l-.275.133-.728.418-.262.177a18.234 18.234 0 00-3.988 3.618 22.875 22.875 0 00-2.856 4.335 21.1 21.1 0 00-1.955 5.531 14.834 14.834 0 00-.296 3.366c0 .187.028.368.028.561a3.692 3.692 0 01-.891 2.33c-.293.37-.605.713-.911 1.067v2.295l4.865-5.678c2.765-3.219 5.53-6.44 8.296-9.663z"/></g></svg>