<svg xmlns="http://www.w3.org/2000/svg" xmlns:xlink="http://www.w3.org/1999/xlink" width="109" height="131"><defs><path id="a" d="M0 .023h108.508V131H0z"/></defs><g fill="none" fill-rule="evenodd"><path fill="#2B5282" d="M53.805.076h.867c5.938 1.617 10.72 5.467 16.05 8.265 10.093 5.298 20.42 10.049 31.471 13.11 5.626 1.56 5.858 2.044 5.761 7.878-.246 14.83.551 29.666-.76 44.496-.855 9.657-4.555 18.125-9.64 26.07-6.932 10.83-15.704 19.779-27.182 25.983-11.783 6.37-23.147 5.604-34.365-1.186-2.355-1.426-4.556-2.977-7.556-2.7-1.333.124-2.575-.62-3.01-2.028-.592-1.912.163-3.366 1.795-4.363.204-.1.394-.251.532-.426-.196-.025-.432-.035-.74-.025-1.277-.373-1.875-1.118-1.489-2.408-.04.046-.169.088-.196.145-.4 1.142-.565 2.292-1.243 3.28-1.035 1.51-2.24 2.84-4.232 2.306-2.097-.563-2.344-2.343-2.077-4.186.502-3.472-1.183-6.144-3.118-8.716-3.75-4.986-6.649-10.448-9.372-16.048C1.124 80.933.784 71.693.57 62.487.303 51.083.672 39.663.412 28.259c-.088-3.887 1.232-5.831 4.885-6.854 14.69-4.111 28.578-10.043 41.251-18.644 2.193-1.488 4.93-1.54 7.257-2.685"/><g transform="translate(0 -.023)"><mask id="b" fill="#fff"><use xlink:href="#a"/></mask><path fill="#FEFEFE" d="M28.731 115.487c-.488 1.64-2.214 2.667-2.334 5.208 4.314-2.45 7.396-.044 10.53 2.173 11.544 8.164 22.918 7.946 34.734.146 21.846-14.422 33.92-34.527 35.584-60.547.735-11.5.113-23.083.275-34.626.035-2.481-1.1-3.064-3.17-3.632-17.354-4.773-33.589-11.977-48.189-22.63-.56-.407-.995-.983-1.489-1.48 17.044 0 34.09.046 51.133-.057 2.168-.013 2.66.49 2.656 2.657-.075 41.889-.105 83.778.047 125.666.011 2.982-1.246 2.623-3.136 2.62-35.1-.026-70.2-.02-105.3-.02 0-42.61.03-85.221-.072-127.833C-.006.548.517.002 3.106.024c16.898.147 33.8.075 50.7.075C39.35 11.224 23.088 18.665 5.591 23.473c-3.35.92-4.887 2.144-4.702 6.007.621 12.95-.655 25.948.844 38.894 1.422 12.275 5.914 23.396 12.862 33.499 3.342 4.859 7.874 9.133 4.396 16.149 3.646-2.028 4.918-5.347 7.16-7.815.76-.121 1.31-.053.838.932.39 1.054-2.828 2.816.641 3.264.942-.222 1.307.142 1.1 1.084" mask="url(#b)"/></g><path fill="#FEFEFE" d="M41.538 74.66c-3.798-5.098-14.903-3.533-17.1-3.357 4.958-6.505 8.607-9.736 17.936-11.337 3.101-.532 4.52-1.336 5.891-3.773 3.803-6.756 7.224-13.857 14.88-17.399 5.024-2.326 10.178-3.902 15.736-4.234 2.636-.156 3.891.82 4.516 3.39 2.763 11.342 2.432 22.022-6.008 31.185-.975 1.06-1.777 2.281-2.775 3.316-2.495 2.588-2.65 4.588-2.27 9.027.64 7.47.008 12.753-4.832 19.441-.202-8.854-7.411-15.612-7.672-15.419-1.096 1.694-3.717 3.904-5.3 3.256-.81.113-1.62.228-2.393-.174-3.694-1.687-7.089-3.825-10.02-6.659-1.069-.746-1.5-1.857-1.765-3.065-.487-.708 1.512-3.425 1.176-4.198z"/><path fill="#EC9942" d="M52.797 87.637l1.742 1.12c-2.342 3.895-5.32 7.144-9.456 9.18-5.784 2.846-10.132-.006-9.813-6.46.235-4.78 2.452-8.794 5.092-12.619.972.262 1.708.843 2.264 1.671 1.086 1.505.299 2.986-.061 4.473-.464 1.914-1.395 4.106.637 5.462 1.839 1.228 3.529-.269 4.942-1.404 1.407-1.13 2.832-1.826 4.653-1.423"/><path fill="#2C5383" d="M67.503 47.965c4 .052 7.552 3.84 7.448 7.948-.102 4.07-3.408 7.343-7.462 7.389-4.094.046-7.64-3.52-7.65-7.693-.01-4.217 3.48-7.7 7.664-7.644"/><path fill="#F2B948" d="M52.797 87.637c-2.233 1.52-3.798 3.856-6.381 4.982-3.992 1.74-6.406.246-6.488-4.126-.057-2.989 1.013-5.576 2.698-7.964 3.636 2.018 6.946 4.502 10.17 7.108"/></g></svg>