<svg xmlns="http://www.w3.org/2000/svg" xmlns:xlink="http://www.w3.org/1999/xlink" width="187" height="187" viewBox="0 0 187 187"><defs><linearGradient id="a" x1="75.655%" x2="2.17%" y1="-26.087%" y2="191.85%"><stop offset="0%" stop-color="#F1F9FF"/><stop offset="100%" stop-color="#DDF1FF"/></linearGradient><linearGradient id="c" x1="117.087%" x2="-75.073%" y1="-26.087%" y2="191.85%"><stop offset="0%" stop-color="#F1F9FF"/><stop offset="100%" stop-color="#DDF1FF"/></linearGradient><linearGradient id="e" x1="0%" y1="49.971%" y2="49.971%"><stop offset="0%" stop-color="#FFF"/><stop offset="100%" stop-color="#DEEEF1"/></linearGradient><linearGradient id="f" x1="121.495%" x2="-83.292%" y1="-26.087%" y2="191.85%"><stop offset="0%" stop-color="#F1F9FF"/><stop offset="100%" stop-color="#DDF1FF"/></linearGradient><linearGradient id="g" x1="109.914%" x2="-61.701%" y1="-26.087%" y2="191.85%"><stop offset="0%" stop-color="#F1F9FF"/><stop offset="100%" stop-color="#DDF1FF"/></linearGradient><linearGradient id="h" x1="120.083%" x2="-80.659%" y1="-26.087%" y2="191.85%"><stop offset="0%" stop-color="#F1F9FF"/><stop offset="100%" stop-color="#DDF1FF"/></linearGradient><linearGradient id="i" x1="131.031%" x2="-101.07%" y1="40.405%" y2="67.889%"><stop offset="0%" stop-color="#F1F9FF"/><stop offset="100%" stop-color="#DDF1FF"/></linearGradient><path id="b" d="M91.48.35c2.556-1.002 4.634.222 4.64 2.742l.177 62.018c0 2.51-2.06 5.356-4.616 6.358L4.86 105.46c-2.571.987-4.655-.232-4.655-2.745L.027 40.696c0-2.51 2.06-5.355 4.616-6.358L91.48.35z"/></defs><g fill="none" fill-rule="evenodd"><path d="M48.427 152.998l-1.02-.435c-.686-.29-1.121-1.167-1.124-2.526l1.032.436c-.009 1.35.427 2.236 1.112 2.525z"/><path fill="url(#a)" fill-rule="nonzero" d="M92.69 22.345c1.828-1.444 3.293-.582 3.299 1.932l.177 62.018c0 2.51-1.46 5.715-3.272 7.16L31.22 142.54c-1.828 1.444-3.29.582-3.297-1.928l-.176-62.016c0-2.51 1.459-5.715 3.271-7.159L92.69 22.345z" transform="translate(19.38 9.86)"/><path fill="#D0ECFF" fill-rule="nonzero" d="M113.21 31.185l-.123-.043h-.737a.436.436 0 00-.085.021l-.08.019h-.045l-.15.052-.066.024h-.019a3.235 3.235 0 00-.246.119h-.04a4.12 4.12 0 00-.573.387l-61.68 49.095-.177.15-.088.079-.134.128a3.947 3.947 0 00-.183.183l-.128.137c-.061.067-.119.137-.18.207l-.119.143c-.064.076-.121.158-.182.238l-.104.137-.021.03-.052.076c-.1.144-.195.305-.305.439 0 .027-.033.052-.052.08l-.06.109-.128.22-.067.115-.07.137c-.031.055-.058.11-.086.165l-.049.091c-.04.08-.076.161-.112.244l-.046.094a.11.11 0 000 .028 6.148 6.148 0 00-.152.353l-.025.055c0 .033-.024.067-.04.1l-.072.186-.064.183-.037.1-.018.055a6.36 6.36 0 00-.11.342v.045l-.027.092c-.019.07-.04.137-.058.204l-.043.17-.027.113-.018.067c-.028.122-.052.244-.077.366v.091c-.018.1-.036.201-.051.305a.579.579 0 010 .076c0 .064-.016.125-.022.186-.006.06 0 .118-.021.176a2.606 2.606 0 01-.018.393v.281l.176 62.018c0 1.359.439 2.236 1.124 2.526l1.033.435c-.685-.29-1.12-1.166-1.124-2.525l-.225-62.025v-.283c0-.095 0-.198.018-.305.018-.106 0-.173.024-.262.025-.088 0-.125.022-.189.018-.122.04-.246.06-.371v-.077c.028-.149.061-.304.098-.45l.027-.113c.034-.125.067-.247.104-.372 0-.03 0-.06.024-.091.046-.15.095-.305.144-.445l.064-.088a6.79 6.79 0 01.137-.369c0-.033.027-.067.04-.1.06-.15.121-.305.188-.44l.046-.09c.052-.116.106-.226.161-.339l.086-.161.137-.256.128-.216.112-.19c.095-.151.19-.304.305-.438l.073-.106c.034-.05.067-.092.104-.138.036-.045.118-.161.182-.24l.12-.143c.06-.07.118-.14.179-.208l.131-.137.18-.182.134-.125c.088-.08.176-.159.265-.229l61.653-49.099a4.027 4.027 0 01.588-.39h.039c.086-.046.175-.088.265-.124l.067-.025.195-.064.08-.021.176-.034h.07a1.41 1.41 0 01.226 0h.024c.066.004.13.012.195.025h.064c.064.017.127.037.189.06l-1.042-.447z"/><path fill="#DDF1FF" fill-rule="nonzero" d="M71.391 71.781v-1.313c0-.085 0-.247.022-.372l.018-.252.036-.363c0-.097.022-.192.034-.305.012-.112.021-.164.033-.243.013-.08.03-.214.05-.323.017-.11.023-.159.039-.24.015-.083.021-.129.033-.196.052-.268.107-.536.168-.807v-.061c.06-.262.13-.524.2-.786l.056-.195c.064-.222.13-.445.2-.664 0-.034.022-.067.034-.1.08-.247.165-.491.253-.732l.073-.192c.073-.192.15-.384.226-.572l.073-.177c.1-.24.204-.478.304-.713l.064-.134c.095-.204.195-.408.305-.61.03-.057.058-.118.091-.176.128-.247.26-.49.396-.734l.061-.107c.144-.247.305-.493.442-.734l.061-.097c.192-.305.39-.594.594-.88l.082-.114c.125-.173.253-.347.381-.514l.021-.028c.14-.18.28-.353.42-.524l.278-.32.076-.088c.119-.134.244-.268.366-.4l.103-.106c.092-.094.183-.189.278-.28l.137-.137.25-.235.152-.14.253-.22.149-.127.277-.222.128-.104c.137-.107.274-.21.414-.305.14-.094.366-.25.549-.365l.155-.095c.14-.085.28-.164.417-.24l.147-.08c.13-.07.262-.134.39-.191l.094-.046c.162-.073.305-.14.478-.198.092-.037.186-.067.278-.098l.13-.045c.135-.043.272-.083.403-.116h.018c.122-.03.244-.058.363-.08l.121-.02.26-.037h.118l.268-.022h.74c.156 0 .305.034.464.064h.02c.147.03.287.067.424.107l.122.04c.119.04.238.082.354.13l.112.05-1.91-.884-.052-.021-.06-.025a4.949 4.949 0 00-.354-.134l-.064-.024h-.058a3.912 3.912 0 00-.423-.107h-.018a4.577 4.577 0 00-.464-.06h-.74c-.091 0-.18 0-.271.02h-.204l-.17.031-.123.018c-.118.025-.24.05-.362.08h-.018a5.51 5.51 0 00-.405.115l-.128.043c-.086.03-.168.055-.253.088h-.025c-.158.061-.304.125-.478.198l-.094.046c-.131.06-.26.125-.39.192l-.052.024-.095.055c-.14.076-.277.156-.417.24l-.155.098a11.541 11.541 0 00-.963.667l-.13.104-.275.222-.152.128-.25.223-.153.137a8.975 8.975 0 00-.25.237l-.136.135c-.095.09-.186.185-.278.28l-.103.106a15.59 15.59 0 00-.369.403l-.073.088c-.082.091-.161.183-.24.277l-.037.043c-.14.17-.28.344-.42.52l-.022.031-.384.512-.036.049-.043.067c-.203.286-.406.579-.61.877l-.018.027c0 .022-.027.05-.042.07-.153.241-.305.488-.442.738a.573.573 0 00-.043.073l-.018.033c-.137.241-.271.485-.399.732l-.036.07-.052.11c-.104.2-.204.404-.305.609-.015.03-.033.06-.049.094v.037c-.11.237-.213.475-.304.712l-.028.058-.045.12c-.08.191-.153.383-.226.575-.015.04-.033.08-.046.119l-.027.07a23.4 23.4 0 00-.253.73v.025c0 .025 0 .052-.024.076-.07.223-.137.442-.201.665 0 .036-.022.073-.03.106-.01.034 0 .061-.025.092a18.7 18.7 0 00-.201.782v.061c-.064.272-.116.543-.168.81 0 .034-.015.068-.018.101l-.018.095-.037.24c-.018.107-.033.214-.049.32-.015.107-.024.165-.033.244l-.021.17c-.006.055 0 .08 0 .122l-.058.378-.019.253c0 .125 0 .247-.02.372v.176a.588.588 0 000 .073v1.219c0 .169.011.336.036.503.228 2.333 1.066 4.045 2.297 5.03.28.224.587.415.914.566l1.91.883c-1.725-.798-2.93-2.723-3.208-5.599a8.955 8.955 0 01-.04-.5c0-.051 0-.103-.003-.155z"/><path fill="#C6DFFF" fill-rule="nonzero" d="M79.04 55.86c4.76-3.38 9.073-1.431 9.636 4.35.564 5.783-2.845 13.213-7.616 16.595-4.77 3.381-9.075 1.431-9.635-4.354-.56-5.785 2.854-13.221 7.616-16.59z"/><path fill="#B6D2F7" fill-rule="nonzero" d="M79.223 57.734c3.903-2.772 7.44-1.176 7.9 3.564.46 4.74-2.33 10.837-6.233 13.609-3.903 2.772-7.442 1.173-7.902-3.568-.46-4.74 2.33-10.833 6.235-13.605z"/><path fill="#EEF8FF" fill-rule="nonzero" d="M81.64 66.706a1.127 1.127 0 00-1.164.097 3.318 3.318 0 00-1.161 1.243l-1.776 3.156.853-.49 1.352-2.404a2.05 2.05 0 01.735-.786.707.707 0 01.734-.06l1.362.834.853-.49-1.789-1.1zm-1.167-.393a3.318 3.318 0 001.16-1.243l1.767-3.138-.853.49-1.34 2.386a2.096 2.096 0 01-.734.786.713.713 0 01-.738.06l-1.35-.828-.852.494 1.779 1.09c.375.187.822.15 1.16-.097z"/><path fill="#19859B" fill-rule="nonzero" d="M132.036 76.061c2.94-.582 5.575 1.475 5.889 4.594.313 3.12-1.828 6.127-4.762 6.702-2.934.576-5.578-1.474-5.889-4.594-.31-3.12 1.82-6.117 4.762-6.702z"/><path fill="#DDF1FF" fill-rule="nonzero" d="M98.026 52.257c0-.238-.018-.475-.021-.716v-1.419c0-.168.015-.336.02-.503 0-.247.025-.497.044-.747 0-.17.027-.341.042-.509.021-.243.043-.487.07-.73.022-.196.043-.39.067-.586.025-.195.043-.326.067-.49.03-.216.064-.43.098-.646.024-.161.052-.323.079-.484.027-.162.049-.262.073-.39.098-.542.208-1.085.332-1.627l.028-.125c.121-.527.258-1.05.405-1.578.033-.13.073-.262.11-.396.127-.445.261-.89.405-1.334l.064-.204c.16-.49.33-.98.511-1.469.046-.128.098-.256.144-.384.146-.387.304-.77.456-1.154.05-.119.095-.238.147-.357.203-.481.413-.96.63-1.434.04-.089.086-.177.125-.266l.61-1.218c.06-.122.118-.24.182-.36a44.6 44.6 0 01.795-1.471l.128-.216c.289-.508.585-1 .89-1.478.04-.064.08-.13.122-.195.384-.609.783-1.19 1.19-1.767l.165-.231c.253-.35.51-.695.771-1.033l.043-.06a38 38 0 011.398-1.695l.152-.173c.244-.274.49-.546.74-.81l.208-.21c.183-.193.368-.382.554-.567l.28-.272.503-.475.305-.277c.167-.152.335-.305.506-.445l.304-.256c.186-.155.372-.304.558-.45l.274-.223c.274-.213.551-.42.828-.61.372-.261.738-.502 1.103-.733l.305-.192c.28-.17.56-.332.838-.482a4.31 4.31 0 01.304-.161c.262-.137.521-.265.783-.387l.19-.091a15.129 15.129 0 011.517-.594l.264-.092c.271-.085.546-.164.814-.231h.033c.244-.061.488-.113.731-.162l.244-.04c.174-.03.35-.054.524-.079l.231-.024c.183-.018.363-.034.543-.043h.393c.283 0 .563 0 .838.019.085 0 .17 0 .255.018.305.027.631.067.939.125h.04c.304.058.575.13.852.213l.244.08c.24.078.478.167.71.264l.228.095-3.841-1.773-.107-.049c-.04-.018-.082-.027-.125-.046a8.221 8.221 0 00-.707-.268l-.13-.049c-.037 0-.077-.018-.113-.027a8.116 8.116 0 00-.853-.213h-.034a8.53 8.53 0 00-.935-.125l-.11-.015h-.146a10.906 10.906 0 00-.838-.022h-.396c-.176 0-.36.025-.539.043l-.234.027-.18.022a6.175 6.175 0 00-.344.058l-.241.04a13.2 13.2 0 00-.734.158h-.03c-.269.067-.54.146-.814.231l-.262.092c-.168.054-.335.11-.506.173l-.052.021c-.304.12-.636.253-.96.397l-.191.094c-.26.119-.521.247-.783.384l-.104.052c-.064.033-.128.076-.192.11-.277.152-.554.304-.834.48l-.305.196c-.365.23-.733.474-1.103.734-.28.198-.557.405-.831.609-.089.067-.174.14-.262.21-.186.146-.372.305-.555.448l-.304.259c-.171.146-.342.305-.506.442l-.305.277c-.17.155-.335.305-.502.475-.095.092-.19.18-.28.274-.19.183-.372.375-.558.564-.067.073-.137.14-.204.213-.25.265-.497.533-.74.807l-.153.177c-.161.186-.326.372-.484.56l-.07.086c-.287.344-.567.692-.844 1.048l-.046.058c-.262.338-.518.685-.77 1.033l-.074.1-.088.131a53.824 53.824 0 00-1.228 1.822c-.03.046-.058.094-.088.143-.327.483-.63.977-.911 1.48-.027.052-.058.098-.088.147l-.037.07c-.274.484-.54.978-.798 1.474l-.076.14c-.037.074-.07.147-.107.217-.207.408-.405.82-.61 1.218-.03.067-.063.128-.094.195l-.033.073c-.22.476-.427.954-.63 1.435-.016.04-.034.076-.053.116-.018.04-.06.158-.094.238-.155.384-.305.77-.454 1.157l-.094.238c-.019.049-.034.097-.049.143a44.367 44.367 0 00-.53 1.517l-.046.156c-.143.444-.277.89-.405 1.337-.021.073-.046.143-.067.216-.021.073-.027.119-.046.18-.143.524-.28 1.051-.402 1.578v.03l-.018.092a39.546 39.546 0 00-.335 1.627c0 .067-.03.137-.04.204-.009.067-.021.125-.033.189-.028.161-.052.323-.08.484-.033.213-.067.43-.097.643l-.064.493-.046.342c0 .082-.015.161-.021.243a31 31 0 00-.073.728c0 .17-.028.342-.04.51-.018.249-.03.499-.042.748 0 .12 0 .238-.019.354v1.569c0 .237 0 .475.025.713v.304c.018.338.042.677.076 1.009.454 4.697 2.132 8.137 4.618 10.12a8.66 8.66 0 001.828 1.14l3.842 1.775c-3.47-1.602-5.895-5.483-6.456-11.272-.033-.335-.058-.67-.076-1.01-.006-.071-.009-.178-.015-.284z"/><path fill="#C6DFFF" fill-rule="nonzero" d="M113.413 20.218c9.575-6.8 18.254-2.882 19.381 8.749 1.128 11.631-5.718 26.58-15.293 33.38-9.574 6.799-18.257 2.881-19.384-8.753-1.127-11.634 5.718-26.583 15.296-33.376z"/><path fill="#B6D2F7" fill-rule="nonzero" d="M113.782 24.001c7.853-5.578 14.964-2.367 15.893 7.184.93 9.55-4.688 21.794-12.542 27.369-7.854 5.575-14.97 2.364-15.896-7.178-.926-9.541 4.691-21.8 12.545-27.375z"/><path fill="#EEF8FF" fill-rule="nonzero" d="M124.526 30.576v-.058l-.045.058c-.878 1.245-1.761 2.488-2.638 3.731l-5.728 8.092L109 52.452c-.091.13-.186.259-.277.387l.17 1.767.05-.064 3.085-4.369 4.89-6.91c1.754-2.479 3.509-4.962 5.303-7.46.034.192.073.38.1.579.097.77.097 1.548 0 2.318-.386 3.449-2.372 7.104-4.892 9.008l-.216.159c-.443.32-.924.587-1.432.792a5.627 5.627 0 01-1.523.36l-.914 1.297a3.314 3.314 0 00-.277.439c.189 0 .375.04.564.043a6.035 6.035 0 003.104-.951c.216-.128.43-.268.643-.417.335-.242.657-.5.965-.774a14.071 14.071 0 001.524-1.596 17.84 17.84 0 003.613-7.863c.169-.898.243-1.81.219-2.724a9.794 9.794 0 00-.113-1.297 2.486 2.486 0 01-.036-.381c.019-.63.232-1.238.609-1.743.174-.243.344-.487.518-.728a.143.143 0 00.033-.106c-.076-.534-.128-1.085-.183-1.642zm-7.006 7.801l4.018-5.687 2.705-3.824a.158.158 0 00.037-.124 265.99 265.99 0 00-.159-1.633v-.064L110.8 45.868v-.051c-.024-.144-.054-.287-.076-.433a8.905 8.905 0 01-.033-2.288 13.864 13.864 0 011.55-5.02 12.59 12.59 0 013.065-3.9 7.634 7.634 0 011.468-.972 5.685 5.685 0 011.996-.581c.298-.42.596-.842.892-1.265l.326-.457-.076-.02c-1.194-.165-2.47.175-3.826 1.02l-.201.122-.518.38-.189.156a14.096 14.096 0 00-2.809 3.074 17.94 17.94 0 00-1.885 3.546 16.317 16.317 0 00-1.103 4.402c-.093.869-.088 1.745.015 2.613.018.147.049.28.061.43a2.86 2.86 0 01-.515 1.858c-.2.305-.414.61-.624.89.058.589.115 1.177.17 1.764l3.351-4.725a4604.66 4604.66 0 015.682-8.034z"/><g transform="translate(47.812 48.422)"><mask id="d" fill="#fff"><use xlink:href="#b"/></mask><use fill="url(#c)" fill-rule="nonzero" xlink:href="#b"/><path fill="#D0ECFF" fill-rule="nonzero" d="M-10.358 76.604l8.414-3.774 2.172 1.03 22.236-5.767-32.212 28.164zM92.833 46.402l20.697 4.658.085 23.299c0 1.075-.895 2.26-2.01 2.647l-36.73 12.77c-1.116.39-2.023-.167-2.03-1.239l-.088-23.299 20.076-18.836z" mask="url(#d)" opacity=".5"/></g><path fill="#D0ECFF" fill-rule="nonzero" d="M139.713 48.632l.21-.061.094-.022.198-.04.104-.02.213-.031h.076c.08 0 .156 0 .229-.015h.326c.111.003.222.014.332.03h.058c.097 0 .192.037.286.058l.064.018c.067.019.131.04.195.064l.076.028.18.076.052.024c.073.037.143.076.21.116l.049.033.149.104.131.104-.713-.61-.106-.088a.073.073 0 01-.025-.018l-.15-.1-.039-.028a2.321 2.321 0 00-.21-.116l-.04-.018-.18-.08h-.074l-.195-.06h-.064a2.977 2.977 0 00-.287-.058h-.059a3.953 3.953 0 00-.332-.03h-.326c-.076 0-.152 0-.228.018h-.061l-.213.03-.104.018-.198.043-.11.027-.207.061-.097.028a4.61 4.61 0 00-.305.11L51.8 82.217c-.15.058-.305.125-.439.195l-.137.07-.201.104-.11.064-.085.051c-.122.074-.24.147-.36.229l-.02.015c-.065.043-.123.092-.187.137l-.207.153-.03.027-.18.015c-.067.055-.134.11-.198.168l-.07.064-.113.106c-.04.037-.082.074-.119.113l-.11.159-.094.097-.048.049a8.749 8.749 0 00-.253.29v.017c0 .016-.028.034-.043.052-.06.076-.125.153-.183.229-.024.03-.045.064-.07.097l-.082.11-.073.103c-.049.07-.095.147-.143.22-.019.027-.037.052-.052.079l-.018.027a6.25 6.25 0 00-.205.35l-.018.034-.064.122c-.04.076-.079.152-.116.232 0 .021-.02.045-.033.07-.012.024-.058.137-.088.204-.03.067-.052.113-.074.167-.02.055 0 .05-.027.077-.04.11-.076.219-.113.329l-.048.14v.058l-.037.14c-.027.1-.052.2-.073.304l-.027.156a5.25 5.25 0 00-.046.304v.137c0 .147-.022.29-.022.436l.177 62.019a3.083 3.083 0 00.99 2.415l.713.61a3.095 3.095 0 01-1.048-2.425l-.177-62.019c0-.143 0-.29.022-.435l.018-.138c0-.1.024-.204.043-.304 0-.052.018-.104.03-.156a3.7 3.7 0 01.07-.304l.037-.14c.018-.067.042-.131.064-.198.021-.067.073-.22.116-.33.042-.109.064-.16.097-.243.034-.082.058-.134.088-.204.03-.07.098-.201.15-.305.024-.042.042-.085.064-.125a8.03 8.03 0 01.292-.49c.07-.11.142-.216.22-.32a8.492 8.492 0 01.332-.439l.042-.052c.1-.121.207-.24.305-.356l.094-.094c.082-.086.168-.171.253-.253l.113-.107a5.21 5.21 0 01.268-.228l.116-.098c.076-.064.155-.122.237-.18.082-.057.119-.091.183-.134.125-.088.253-.17.38-.246l.086-.052.305-.168.137-.07c.146-.07.304-.137.439-.195l86.852-33.982c.104-.043.208-.08.305-.11l.116-.03z"/><path fill="#DDF1FF" fill-rule="nonzero" d="M71.132 29.701v-1.407c0-.089 0-.268.022-.402 0-.089 0-.18.02-.271.022-.092.025-.26.04-.39.016-.131.022-.208.037-.305.015-.098.021-.177.034-.262.012-.085.033-.232.051-.344l.043-.26c.015-.085.027-.14.04-.21.051-.289.112-.578.176-.868 0-.021 0-.042.016-.067.067-.28.14-.56.216-.84l.058-.214c.07-.237.14-.475.216-.713 0-.036.024-.07.034-.106.089-.262.18-.524.274-.786.027-.067.051-.137.079-.204.076-.207.158-.412.24-.61.028-.06.052-.124.08-.188.106-.256.22-.512.335-.765l.07-.143c.104-.22.21-.439.32-.658l.097-.192c.137-.265.28-.527.427-.786l.067-.116c.152-.265.304-.53.475-.789l.064-.104c.204-.322.417-.636.637-.944l.088-.125c.134-.186.271-.368.411-.551l.025-.03c.146-.19.304-.378.45-.561.098-.116.196-.232.305-.344l.073-.107c.131-.146.262-.29.396-.43l.11-.112.305-.305.149-.143c.088-.089.177-.17.268-.256l.161-.146.272-.238.161-.137.305-.24.14-.113c.146-.113.304-.223.445-.33.198-.14.393-.268.588-.39l.17-.103c.15-.091.305-.177.445-.259l.158-.085c.14-.073.28-.14.418-.204l.103-.052a10.6 10.6 0 01.512-.21c.1-.04.198-.073.305-.107l.14-.049c.146-.045.29-.085.432-.122h.019c.13-.033.262-.06.39-.085l.13-.024.28-.04h.126c.097 0 .192-.018.304-.021h.793c.17 0 .338.036.502.067h.022c.153.03.304.067.453.113l.131.042c.128.043.256.089.378.14l.122.052-2.05-.947-.058-.025-.064-.027a5.622 5.622 0 00-.378-.14l-.106-.03h-.061a4.548 4.548 0 00-.457-.113h-.019a5.467 5.467 0 00-.5-.067h-.808c-.095 0-.192 0-.29.021h-.219l-.186.03-.128.025a5.95 5.95 0 00-.39.085h-.021a8.447 8.447 0 00-.433.122l-.14.049-.271.094h-.025c-.17.064-.34.134-.514.21l-.1.052a8.549 8.549 0 00-.421.204l-.055.028-.1.058c-.15.082-.305.167-.449.258l-.167.104c-.198.122-.393.25-.591.39-.15.107-.305.216-.442.329l-.14.113-.305.24-.161.137c-.088.08-.18.156-.268.238l-.165.146-.268.256-.149.143c-.1.1-.198.201-.305.305l-.11.113c-.133.14-.264.283-.395.43l-.083.094-.259.304-.036.046c-.152.183-.305.372-.45.56l-.025.031-.412.551-.04.055-.045.07c-.22.305-.432.61-.637.945l-.02.027c-.016.025-.028.052-.047.076-.161.26-.32.524-.475.79L72 17.71a32.267 32.267 0 00-.448.823c0 .027-.027.05-.039.075l-.055.116c-.113.22-.22.436-.323.658 0 .034-.033.067-.048.104l-.019.04a37.58 37.58 0 00-.338.764l-.027.064c-.019.04-.034.085-.049.125-.085.207-.165.411-.244.609l-.048.128a20.077 20.077 0 00-.302.862v.024c0 .028 0 .055-.024.083-.077.237-.15.475-.217.713l-.036.115c0 .034 0 .064-.025.098-.076.28-.149.56-.216.84a.04.04 0 010 .019v.049c-.067.304-.125.578-.18.868 0 .036-.015.073-.021.11-.006.036 0 .067-.015.1-.016.085-.03.17-.043.259-.012.088-.036.229-.052.344l-.036.262c0 .061 0 .122-.025.183-.024.061 0 .085 0 .128l-.036.39c0 .091-.015.183-.022.271 0 .134-.018.268-.024.402v1.579c0 .18.021.36.04.54.243 2.507 1.142 4.344 2.467 5.4.3.244.63.449.981.61l2.05.947c-1.852-.846-3.153-2.915-3.457-6.001-.015-.18-.028-.36-.04-.54a1.07 1.07 0 00.003-.17z"/><path fill="#C6DFFF" fill-rule="nonzero" d="M79.348 12.602c5.112-3.632 9.749-1.523 10.358 4.673.61 6.196-3.061 14.178-8.18 17.81-5.117 3.63-9.748 1.522-10.357-4.674-.61-6.196 3.064-14.19 8.18-17.81z"/><path fill="#B6D2F7" fill-rule="nonzero" d="M79.543 14.612c4.195-2.979 7.994-1.264 8.488 3.833.493 5.096-2.505 11.637-6.702 14.622-4.198 2.986-7.994 1.262-8.488-3.832-.493-5.093 2.51-11.646 6.702-14.623z"/><path fill="#EEF8FF" fill-rule="nonzero" d="M82.846 22.856c.447.122.716.57.722 1.219a3.872 3.872 0 01-1.761 3.046v.804l-.707.405v-.8l-1.057.608v.81l-.704.409v-.816l-1.06.609v-.81l.704-.409v-5.678l-.725.402v-.807l1.06-.61v-.813l.707-.405v.807l1.06-.61v-.81l.697-.408v.814c.975-.564 1.767-.12 1.773.996a3.726 3.726 0 01-.71 2.047zm-3.132-1.036v2.437l2.132-1.218A2.315 2.315 0 0082.9 21.21c0-.67-.478-.941-1.06-.61l-2.132 1.22h.006zm2.126 4.457a2.324 2.324 0 001.054-1.828c0-.673-.478-.944-1.06-.61l-2.132 1.22v2.437l2.132-1.219h.006z"/><path fill="#B6D2F7" fill-rule="nonzero" d="M125.855 85.496c2.242-1.59 4.265-.676 4.533 2.047.268 2.724-1.338 6.215-3.577 7.805-2.239 1.59-4.265.673-4.533-2.047-.268-2.72 1.338-6.215 3.577-7.805z"/><g fill-rule="nonzero"><path fill="#CCDFE2" d="M126.954 141.178l-.664-.61a1.365 1.365 0 01-.405-1.02l.664.61c-.012.381.135.75.405 1.02z"/><path fill="#DEEEF1" d="M126.954 141.178l-.664-.61a1.365 1.365 0 01-.405-1.02l.664.61c-.013.382.134.753.405 1.023"/><path fill="url(#e)" d="M20.837.731L20.173.11l20.698 4.658.66.621z" transform="translate(125.7 97.292)"/><path fill="url(#f)" d="M20.837.731L41.532 5.39l.088 23.299c0 1.072-.896 2.257-2.014 2.644L2.88 44.106c-1.118.387-2.026-.168-2.03-1.243L.763 19.564 20.837.731z" transform="translate(125.7 97.292)"/><path fill="#D0ECFF" d="M126.55 140.155l-.665-.619-.085-23.299.661.619z"/><path fill="#D0ECFF" d="M126.461 116.856l-.661-.619 20.073-18.836.664.622z"/></g><path fill="#D0ECFF" fill-rule="nonzero" d="M167.23 102.68l-40.769 14.176 20.43 5.431zM34.106 166.33l.338-21.508 40.405-19.698z"/><path fill="url(#g)" fill-rule="nonzero" d="M14.738 156.417l7.342-16.024 6.437 3.156z" transform="translate(19.38 9.86)"/><path fill="url(#h)" fill-rule="nonzero" d="M22.08 140.393l17.182 10.772 16.207-35.901z" transform="translate(19.38 9.86)"/><path fill="url(#i)" fill-rule="nonzero" d="M15.064 134.962l40.405-19.698L0 130.434z" transform="translate(19.38 9.86)"/></g></svg>