<svg xmlns="http://www.w3.org/2000/svg" xmlns:xlink="http://www.w3.org/1999/xlink" width="187" height="187" viewBox="0 0 187 187"><defs><linearGradient id="b" x1="131.031%" x2="-101.07%" y1="22.399%" y2="101.457%"><stop offset="0%" stop-color="#F1F9FF"/><stop offset="100%" stop-color="#DDF1FF"/></linearGradient><linearGradient id="e" x1="93.161%" x2="-30.467%" y1="-26.087%" y2="191.85%"><stop offset="0%" stop-color="#F1F9FF"/><stop offset="100%" stop-color="#DDF1FF"/></linearGradient><linearGradient id="h" x1="117.278%" x2="79.302%" y1="-87.116%" y2="3.428%"><stop offset="0%" stop-color="#F1F9FF"/><stop offset="100%" stop-color="#DDF1FF"/></linearGradient><linearGradient id="k" x1="99.141%" x2="-41.616%" y1="-26.087%" y2="191.85%"><stop offset="0%" stop-color="#F1F9FF"/><stop offset="100%" stop-color="#DDF1FF"/></linearGradient><linearGradient id="l" x1="98.419%" x2="-40.27%" y1="-26.087%" y2="191.85%"><stop offset="0%" stop-color="#F1F9FF"/><stop offset="100%" stop-color="#DDF1FF"/></linearGradient><linearGradient id="m" x1="98.323%" x2="-40.09%" y1="-26.087%" y2="191.85%"><stop offset="0%" stop-color="#F1F9FF"/><stop offset="100%" stop-color="#DDF1FF"/></linearGradient><path id="a" d="M17.159.985L1.966 8.56c-2.196 1.268-2.41 3.33-.478 4.605L12.98 24.157c1.932 1.276 5.278 1.282 7.474.014L40.01 13.037c2.196-1.268 2.41-3.33.478-4.606L24.633 1c-.97-.64-2.296-.96-3.654-.96-1.348 0-2.727.315-3.82.946"/><path id="d" d="M89.454.676L3.63 50.146C1.651 51.288.051 54.06.057 56.334l.196 68.995c.006 2.273 1.617 3.193 3.595 2.05l85.825-49.47c1.98-1.143 3.58-3.916 3.574-6.19L93.05 2.726c-.005-1.61-.813-2.541-1.988-2.541-.484 0-1.03.158-1.609.492"/><path id="g" d="M89.454.676L3.63 50.146C1.651 51.288.051 54.06.057 56.334l.196 68.995c.006 2.273 1.617 3.193 3.595 2.05l85.825-49.47c1.98-1.143 3.58-3.916 3.574-6.19L93.05 2.726c-.005-1.61-.813-2.541-1.988-2.541-.484 0-1.03.158-1.609.492"/><path id="i" d="M89.397.492L3.572 49.962C1.593 51.104-.006 53.875 0 56.15l.196 68.996c.006 2.272 1.616 3.192 3.595 2.05l85.825-49.47c1.98-1.144 3.58-3.917 3.573-6.19l-.196-68.995C92.99.931 92.18 0 91.005 0c-.484 0-1.03.158-1.608.492"/></defs><g fill="none" fill-rule="evenodd"><g transform="translate(81.6 120.027)"><mask id="c" fill="#fff"><use xlink:href="#a"/></mask><path fill="url(#b)" fill-rule="nonzero" d="M17.159.985L1.966 8.56c-2.196 1.268-2.41 3.33-.478 4.605L12.98 24.157c1.932 1.276 5.278 1.282 7.474.014L40.01 13.037c2.196-1.268 2.41-3.33.478-4.606L24.633 1c-.97-.64-2.296-.96-3.654-.96-1.348 0-2.727.315-3.82.946" mask="url(#c)"/></g><path d="M123.469 131.774v-.025a2.066 2.066 0 000-.215l-.065-1.076c.004.072.004.143 0 .215l-.003.051c-.008.095-.02.19-.04.285l-.008.032a2.2 2.2 0 01-.093.306l-.031.074c-.015.033-.028.067-.044.1l-.041.078c-.016.032-.032.064-.05.096l-.03.048a3.1 3.1 0 01-.09.142l-.048.066a2.745 2.745 0 01-.14.179c-.072.086-.15.17-.235.253l-.04.04c-.09.084-.185.167-.287.248l-.04.03a4.524 4.524 0 01-.29.209c-.091.06-.185.12-.285.177l.004.062-19.576 11.06c-.157.09-.322.172-.49.25-.066.03-.134.057-.201.086a6.417 6.417 0 01-.255.104c-.072.027-.145.051-.219.076-.087.03-.174.06-.262.085l-.186.051a8.55 8.55 0 01-.447.108c-.06.012-.117.026-.177.036a8.65 8.65 0 01-.364.059c-.06.008-.12.019-.18.026-.111.013-.222.021-.333.031-.064.005-.128.013-.191.016-.105.006-.21.007-.314.01-.068.002-.136.006-.203.006-.125 0-.25-.006-.374-.012-.047-.002-.094 0-.14-.004a8.35 8.35 0 01-.52-.049c-.035-.004-.07-.011-.106-.016a7.589 7.589 0 01-.428-.071l-.144-.032a6.992 6.992 0 01-.482-.123c-.059-.018-.118-.034-.176-.053l-.15-.051a6.247 6.247 0 01-.26-.1l-.145-.06a5.022 5.022 0 01-.258-.124l-.12-.06a4.677 4.677 0 01-.35-.208l-11.47-11.028c-.838-.554-1.272-1.256-1.315-1.977l.064 1.076c.043.721.477 1.423 1.315 1.977l11.47 11.028c.112.074.23.143.35.208l.12.06c.084.043.17.085.258.124l.144.06c.085.035.172.068.26.1l.15.051c.028.01.054.02.082.028.03.01.064.016.095.025.157.046.318.087.482.123.031.007.06.017.092.024l.052.008c.14.028.284.051.428.07.03.005.06.012.092.016l.015.001c.17.022.344.039.519.05h.005l.135.004c.124.005.249.01.374.01l.014.001c.063 0 .126-.004.19-.006.104-.002.208-.004.312-.01h.023c.056-.004.112-.011.169-.016.11-.01.222-.018.333-.03.012-.003.025-.003.037-.005.048-.005.095-.016.143-.022a8.65 8.65 0 00.364-.058c.023-.005.047-.007.07-.011.036-.008.07-.019.107-.026.15-.032.3-.068.447-.108.035-.01.072-.015.107-.025l.079-.026c.088-.026.175-.055.262-.085.074-.024.147-.049.22-.076.085-.032.17-.068.254-.104.051-.022.105-.04.156-.063.016-.007.03-.016.045-.023.168-.078.332-.16.49-.25l19.592-11.069-.004-.062c.094-.055.183-.11.27-.168l.072-.05c.075-.051.148-.104.217-.158l.033-.024.008-.007c.102-.08.196-.164.285-.249l.042-.039a3.45 3.45 0 00.235-.253l.02-.022c.01-.012.017-.024.027-.035.032-.04.063-.081.093-.122l.046-.066c.033-.047.063-.094.091-.142.008-.013.018-.026.025-.039a.245.245 0 00.005-.009l.051-.096c.013-.026.028-.052.04-.078.016-.033.03-.066.044-.1.01-.023.021-.046.03-.07l.002-.004c.039-.102.07-.204.093-.307.001-.007.004-.013.006-.02l.001-.01c.02-.096.033-.191.04-.286 0-.009.003-.018.004-.026m20.104-101.72a3.62 3.62 0 01.31-.124l.018-.006a3.14 3.14 0 01.599-.134c.036-.004.072-.008.108-.01a2.39 2.39 0 01.23-.005h.052c.091.006.18.017.265.034l.063.014a1.8 1.8 0 01.198.057l.06.022c.081.032.16.068.235.111l-.916-.532-.02-.011a1.797 1.797 0 00-.18-.088l-.035-.013c-.02-.008-.04-.014-.06-.02-.032-.012-.062-.025-.094-.034-.034-.01-.069-.016-.104-.024l-.063-.015-.035-.008a2.02 2.02 0 00-.216-.025h-.066c-.057-.003-.113-.003-.171-.003-.02.002-.04.006-.06.007l-.107.011c-.034.004-.066.005-.1.01-.03.005-.06.014-.09.02-.048.008-.097.019-.147.03-.027.007-.052.01-.079.017-.06.017-.122.036-.183.057l-.018.005a4.04 4.04 0 00-.221.084c-.03.012-.059.028-.089.04a4.549 4.549 0 00-.414.21L56.42 79.2c-.115.067-.23.14-.342.217-.036.025-.072.053-.108.079a5.509 5.509 0 00-.55.448c-.04.037-.081.074-.121.113l-.076.07c-.026.026-.05.055-.076.082a7.227 7.227 0 00-.239.254c-.025.028-.052.053-.076.08l-.06.075a8.57 8.57 0 00-.14.17c-.03.037-.061.072-.091.11-.024.031-.047.064-.07.096a9.81 9.81 0 00-.1.135c-.022.031-.046.06-.068.093a5.86 5.86 0 00-.11.164l-.069.102-.029.043a7.24 7.24 0 00-.185.304l-.012.02-.035.064c-.041.072-.083.144-.121.217-.019.035-.035.07-.053.105a6.31 6.31 0 00-.054.107l-.048.093a9.58 9.58 0 00-.116.255l-.02.045-.006.012c-.047.106-.09.214-.132.321l-.021.06-.043.118c-.019.054-.04.107-.057.16l-.039.127-.045.148c-.009.03-.02.06-.028.091-.015.055-.027.11-.04.165l-.045.183-.016.064c-.01.044-.014.087-.022.132a6.208 6.208 0 00-.05.286c-.003.026-.01.053-.013.079-.008.06-.012.119-.018.179l-.012.126c-.01.134-.016.266-.016.397l.196 68.994c.001.565.102 1.047.282 1.434.181.386.442.678.764.865l.916.533c-.644-.374-1.043-1.17-1.046-2.3l-.196-68.994c0-.13.006-.263.016-.396.003-.043.008-.085.013-.128a5.63 5.63 0 01.08-.543c.012-.066.023-.13.038-.196l.045-.183a6.478 6.478 0 01.21-.69 8.58 8.58 0 01.201-.513l.02-.043c.051-.117.106-.233.163-.349l.055-.107a9.99 9.99 0 01.174-.322l.035-.063c.072-.124.148-.247.226-.367.022-.035.046-.068.07-.103a7.493 7.493 0 01.438-.599 7.37 7.37 0 01.14-.169c.044-.053.09-.104.136-.155a8.28 8.28 0 01.238-.254c.051-.05.101-.103.153-.152a5.318 5.318 0 01.323-.29l.123-.101c.074-.059.15-.115.225-.17l.108-.078c.113-.078.227-.151.342-.217l85.825-49.471c.11-.064.22-.119.328-.17l.085-.04" fill="#D0ECFF" fill-rule="nonzero"/><g transform="translate(53.72 29.587)"><mask id="f" fill="#fff"><use xlink:href="#d"/></mask><path fill="url(#e)" fill-rule="nonzero" d="M89.454.676L3.63 50.146C1.651 51.288.051 54.06.057 56.334l.196 68.995c.006 2.273 1.617 3.193 3.595 2.05l85.825-49.47c1.98-1.143 3.58-3.916 3.574-6.19L93.05 2.726c-.005-1.61-.813-2.541-1.988-2.541-.484 0-1.03.158-1.609.492" mask="url(#f)"/><path fill="url(#e)" fill-rule="nonzero" d="M89.397.824L3.572 50.294C1.593 51.438-.006 54.209 0 56.484l.196 68.995c.006 2.273 1.616 3.193 3.595 2.05l85.825-49.47c1.98-1.144 3.58-3.916 3.573-6.19l-.196-68.994C92.99 1.263 92.18.333 91.005.333c-.484 0-1.03.158-1.608.491" mask="url(#f)"/><g mask="url(#f)"><use fill="url(#e)" fill-rule="nonzero" xlink:href="#g"/></g></g><path fill="url(#h)" fill-rule="nonzero" d="M88.185 3.54c1.876-1.083 3.4-.214 3.407 1.94l.185 59.903L1.86 116.941l-.185-59.902c-.006-2.155 1.509-4.779 3.383-5.86l83.127-47.64z" transform="translate(53.72 29.587)"/><g transform="translate(53.72 29.92)"><mask id="j" fill="#fff"><use xlink:href="#i"/></mask><path fill="#D0ECFF" fill-rule="nonzero" d="M90.255 11.264c-9.693 5.634-17.526 19.29-17.495 30.503.032 11.213 7.916 15.737 17.61 10.103 9.692-5.634 17.522-19.292 17.49-30.505-.022-7.94-3.979-12.526-9.73-12.525-2.37 0-5.046.78-7.875 2.424M24.787 94.075c-5.821 3.71-10.526 12.698-10.507 20.08.019 7.38 4.754 10.358 10.575 6.65 5.822-3.709 10.524-12.7 10.505-20.08-.013-5.227-2.39-8.246-5.844-8.245-1.423 0-3.03.513-4.73 1.595" mask="url(#j)" opacity=".5"/></g><path fill="#D0ECFF" fill-rule="nonzero" d="M82.948 97.655c.024.01.044.02.062.03l-2.396-1.393-.005-.003a.575.575 0 00-.046-.022l-.012-.004a.198.198 0 00-.032-.011c-.011-.004-.02-.008-.035-.012a1.617 1.617 0 00-.05-.014h-.003a.637.637 0 00-.064-.008h-.005a.697.697 0 00-.075 0h-.029a.692.692 0 00-.051.007l-.043.008a.92.92 0 00-.185.057 1.18 1.18 0 00-.12.057l-1.116.605 2.397 1.392 1.116-.604a1.258 1.258 0 01.304-.115.87.87 0 01.204-.014.61.61 0 01.066.008c.036.009.061.017.085.025l.033.011"/><g fill-rule="nonzero"><path fill="url(#k)" d="M11.294 1.552C5.036 5.158-.02 13.899 0 21.077c.02 7.178 5.11 10.074 11.367 6.467 6.257-3.606 11.312-12.349 11.291-19.527C22.644 2.935 20.09 0 16.378 0c-1.53 0-3.258.499-5.084 1.552" transform="translate(72.42 125.12)"/><path d="M83.805 136.44l4.39-3.272-.013 4.47-4.388 2.57zm-.023 7.962l.01-3.722 4.389-2.569-.013 4.425zm-3.66 1.558l.009-3.136 3.299-1.931-.01 3.665zm.01-3.609l.01-3.18 3.3-2.462-.011 3.711z" fill="#B6D2F7"/></g><g fill-rule="nonzero"><path fill="url(#l)" d="M14.836 2.054C6.616 6.826-.027 18.394 0 27.894c.027 9.5 6.713 13.332 14.933 8.559 8.22-4.773 14.859-16.343 14.832-25.843C29.746 3.884 26.391 0 21.514 0c-2.01 0-4.28.66-6.678 2.054" transform="translate(42.5 63.92)"/><path fill="#B6D2F7" d="M56.173 79.377c-.148.087-.273.35-.31.628a.665.665 0 01.21-.34.342.342 0 01.036-.025c.158-.093.3.005.336.232a.643.643 0 01.007.077l.032-.035a1.19 1.19 0 00.008-.129c0-.322-.145-.51-.319-.408m1.33-.895c-.237.138-.429.535-.43.885 0 .086.011.163.034.23.01 0 .02-.002.03-.004a1.1 1.1 0 01-.002-.057c.001-.289.164-.617.363-.733.204-.12.363.016.362.309 0 .066-.01.135-.026.204a1.22 1.22 0 00.095-.45c.001-.35-.19-.523-.426-.384m-.73 1.697l-.011.005c-.077.045-.232.247-.386.503-.076.125-.225.346-.284.435.013.052.13.137.313.168l.073.015a.787.787 0 01.017.004h.006c.003.002.007.002.01.003l.007.001.008.001.007.002a.09.09 0 01.007 0l.007.002h.007l.007.001h.007l.005.001h.028l.008-.001.004-.001.007-.001.005-.002a.096.096 0 00.006-.002l.005-.001.007-.002.005-.002a.143.143 0 01.011-.006l.01-.006.011-.006.017-.011c.108-.08.505-.591.674-.81l.042-.055c.063-.08.114-.14.154-.189.08-.095.088-.107.092-.128-.01-.022-.084-.05-.227-.024-.046.008-.11.015-.185.024-.163.02-.384.047-.474.082m4.395 5.028c.013-.02.015-.028.015-.028-.003-.06-.219-.066-.3-.069h-.034c-.227-.007-.346-.317-.33-.614a.308.308 0 00-.01-.119 3.111 3.111 0 01-.175.368c-.122.212-.42.54-.687.696a.645.645 0 01-.27.097c-.267.021-.302-.347-.302-.54l-.01.01c-.017.077-.001.294.008.44.005.078.011.158.014.234.015.331-.08.964-.162 1.435-.078.462.064.67.237.631a.174.174 0 00.053-.022c.16-.094.425-.442.66-.865.167-.3.537-.737.865-1.123.184-.217.375-.442.428-.53m-5.552 4.18c.052-.293-.154-.48-.283-.564-.142-.094-.413-.466-.61-.738-.067-.09-.125-.169-.155-.207-.122-.15-.334-.273-.435-.214l-.018.015c-.053.068-.099.203-.144.334-.06.182-.13.388-.258.552a2.542 2.542 0 01-.378.359c-.099.083-.33.277-.342.339a.584.584 0 00.017.236c.02.1.046.228.024.414a3.88 3.88 0 01-.073.356c-.039.162-.083.347-.046.373.047.021.325-.09.528-.17.256-.102.52-.206.681-.222l.044-.005c.288-.027.828-.08 1.1-.24a.412.412 0 00.063-.043c.048-.064.248-.347.285-.575m2.966-4.443c.018-.107.086-.31.345-.462a.958.958 0 01.11-.056c.041-.22.122-.768.048-1.331-.092-.712-1.014-2.558-1.172-2.73-.094.07-.341.38-.542.633-.233.293-.474.595-.638.746a.664.664 0 01-.107.08c-.239.14-.498.056-.664-.033a3.81 3.81 0 01-.375 1.27c-.113.215-.215.618-.312 1.006-.092.36-.185.732-.3 1.009-.233.554-.367 1.444-.2 1.808.08.177.375.268.635.35.317.098.59.184.621.415.034.273-.101.515-.235.67l.34.255a3.03 3.03 0 00.378-.194c.232-.136.49-.31.766-.52.679-.514 1.153-1.44 1.247-1.633 0-.183.008-1 .055-1.283m3.13-.12c.01.228-.123.53-.367.83l-.267.325c-.435.528-1.03 1.25-1.268 1.682-.24.432-.54.65-.699.744-.148.086-.293.134-.397.128-.189-.007-.306-.167-.351-.24-.311.113-.352.13-.396.148l-.522.25a4.38 4.38 0 00-.056.032l-.13.075-.067.04c-.523.321-1.03.731-1.178.852-.06.165-.246.59-.656.83a1.16 1.16 0 01-.121.061c-.272.12-.57.168-.858.215-.294.047-.6.097-.877.22-.466.21-.92.378-1.074.193-.058-.072-.07-.184-.035-.336l.062-.263c.083-.338.13-.523.058-.734a.869.869 0 01-.002-.62c.068-.177.199-.346.387-.5.412-.334.61-.58.708-.879.081-.245.177-.406.243-.498-.036-.135-.079-.447.097-.91.093-.243.189-.613.29-1.006.138-.535.28-1.09.457-1.5.147-.342.327-.721.486-1.057.154-.324.3-.63.33-.725.045-.146.08-.557.045-1.279l-.019-.275c-.055-.724-.139-1.82.517-2.729.321-.445.737-.835 1.142-1.073.68-.398 1.226-.306 1.496.252.248.512.263 1.095.276 1.609.013.54.024 1.005.291 1.284.653.676 1.285 1.383 1.49 1.967.193.546.046 1.392-.004 1.64.082.053.253.211.239.572-.015.31.122.433.442.399.168-.019.278.088.288.276"/></g><g fill-rule="nonzero"><path fill="url(#m)" d="M17.495 2.424C7.802 8.058-.03 21.714 0 32.927.032 44.14 7.916 48.664 17.61 43.03c9.692-5.634 17.522-19.292 17.49-30.505C35.079 4.585 31.122-.001 25.37 0 23 0 20.324.78 17.495 2.424" transform="translate(132.94 42.84)"/><g fill="#B6D2F7"><path d="M150.634 60.847c-.062.03-.11.005-.118-.058-.125-1.018.363-2.375.859-3.305.585-1.104 1.56-2.225 2.373-2.725l.015-.007.024-.009c.014-.003.018-.003.022-.003.013 0 .017.002.02.003.012.003.015.005.018.007.01.007.012.01.014.013.008.01.01.015.012.02a.109.109 0 01.008.031c.092.918-.223 2.18-.841 3.376-.588 1.133-1.446 2.118-2.24 2.57a2.72 2.72 0 01-.166.087"/><path d="M156.872 65.703c.07-.004.099.056.078.139-.117.48-.446 1.71-1.102 3.158-.627 1.384-1.338 2.954-2.492 3.634l-.074.042c-.016.01-.032.018-.048.026a2.778 2.778 0 01-.139.07l-.043.02-.045.02-.041.017-.044.017a2.211 2.211 0 01-.082.03 2.224 2.224 0 01-.156.047l-.075.019-.073.015-.072.012-.073.011-.067.008-.133.013-.092.007c-.359.03-.73.058-1.312.39-.612.347-1.003.757-1.381 1.153-.337.352-.685.718-1.166 1.012l-.058.035c-1.025.582-1.769-.076-2.503-.862-1.472-1.572-2.312-5.066-.966-8.449.707-1.78 1.986-3.378 3.336-4.168.622-.354 1.17-.42 1.653-.478.361-.043.674-.081.914-.218.215-.122.526-.436.886-.8.522-.529 1.172-1.187 1.849-1.572.087-.05.173-.093.257-.131.577-.3 2.008-.882 2.938.132.02.022.027.058.02.1a.29.29 0 01-.058.127c-.284.36-1.64 2.176-1.63 4.142.012 2.422 1.79 2.303 1.994 2.282"/></g></g></g></svg>