<svg xmlns="http://www.w3.org/2000/svg" xmlns:xlink="http://www.w3.org/1999/xlink" width="187" height="187" viewBox="0 0 187 187"><defs><linearGradient id="a" x1="9.823%" x2="82.747%" y1="103.819%" y2="-6.885%"><stop offset="0%" stop-color="#F1F9FF"/><stop offset="100%" stop-color="#DDF1FF"/></linearGradient><linearGradient id="b" x1="44.534%" x2="55%" y1="14.839%" y2="5.63%"><stop offset="0%" stop-color="#F1F9FF"/><stop offset="100%" stop-color="#DDF1FF"/></linearGradient><linearGradient id="e" x1="131.031%" x2="-101.07%" y1="-2.425%" y2="147.736%"><stop offset="0%" stop-color="#F1F9FF"/><stop offset="100%" stop-color="#DDF1FF"/></linearGradient><linearGradient id="f" x1="87.056%" x2="-19.086%" y1="-26.087%" y2="191.85%"><stop offset="0%" stop-color="#F1F9FF"/><stop offset="100%" stop-color="#DDF1FF"/></linearGradient><linearGradient id="g" x1="92.584%" x2="-29.392%" y1="-26.087%" y2="191.85%"><stop offset="0%" stop-color="#F1F9FF"/><stop offset="100%" stop-color="#DDF1FF"/></linearGradient><path id="c" d="M44.256 16.157c.44.058 8.796 1.142 21.186-3.533a93.214 93.214 0 0013.43-6.46A99.022 99.022 0 0088.392 0c.126 1.771 2.499 35.411-10.479 71.128-9.143 25.16-33.32 55.689-33.32 55.692-1.214-.126-24.286-2.536-33.544-17.078C-2.09 89.104.087 52.836.203 50.922c.19-.078 3.8-1.527 9.52-4.828a118.218 118.218 0 0013.423-9.037 130.254 130.254 0 0021.11-20.9z"/></defs><g fill="none" fill-rule="evenodd"><g fill-rule="nonzero"><path fill="url(#a)" d="M48.637 18.496c.439.058 8.796 1.142 21.185-3.533a93.214 93.214 0 0013.43-6.46 99.022 99.022 0 009.52-6.164c.126 1.772 2.5 35.411-10.478 71.128-9.143 25.16-33.32 55.689-33.32 55.692-1.214-.126-24.287-2.536-33.545-17.078C2.292 91.443 4.468 55.175 4.583 53.261c.19-.078 3.801-1.527 9.52-4.828a118.218 118.218 0 0013.423-9.037 130.254 130.254 0 0021.111-20.9z" transform="translate(41.82 18.36)"/><path fill="#D0ECFF" d="M130.56 18.36a99.426 99.426 0 01-9.52 6.16 93.214 93.214 0 01-13.43 6.46c-12.39 4.676-20.74 3.591-21.185 3.537A130.254 130.254 0 0165.297 55.42a119.136 119.136 0 01-13.423 9.037c-5.716 3.302-9.326 4.76-9.52 4.825l4.022 2.339c.19-.078 3.801-1.527 9.52-4.828a118.218 118.218 0 0013.423-9.037 130.254 130.254 0 0021.138-20.9c.439.058 8.796 1.142 21.185-3.533a93.214 93.214 0 0013.43-6.46 99.022 99.022 0 009.52-6.164l-4.032-2.339z"/><path fill="#D0ECFF" d="M53.203 128.102c2.72 4.243 6.58 7.453 10.748 9.86l4.018 2.339c-4.165-2.424-8.044-5.634-10.744-9.877-13.137-20.638-10.961-56.906-10.846-58.82l-4.022-2.34c-.115 1.932-2.291 38.196 10.846 58.838z"/></g><path fill="url(#b)" fill-rule="nonzero" d="M103.36 73.464c-9.143 25.16-33.32 55.688-33.32 55.692a554.778 554.778 0 004.42-56.712c.68-29.832-4.76-53.948-4.76-53.948.439.058 8.796 1.142 21.185-3.533a93.214 93.214 0 0013.43-6.46 101.02 101.02 0 009.52-6.16c.133 1.764 2.51 35.397-10.475 71.12z" transform="translate(20.74 18.36)"/><g transform="translate(46.2 20.7)"><mask id="d" fill="#fff"><use xlink:href="#c"/></mask><path fill="#D0ECFF" fill-rule="nonzero" d="M105.664 10.989c1.343-.779 2.438-.153 2.441 1.39l.071 25.188a5.355 5.355 0 01-2.424 4.205L78.96 57.24c-1.343.775-2.438.153-2.44-1.394l-.072-25.187a5.338 5.338 0 012.427-4.203l26.789-15.466z" mask="url(#d)" opacity=".5"/></g><path fill="#B6D2F7" fill-rule="nonzero" d="M34.48 59.293c1.788.105 2.88 1.655 2.838 4.035v1.581c-.001.22.011.441.038.66a1.02 1.02 0 01-.408.853.34.34 0 01-.065.041c-.234.14-.442.055-.472-.2a5.658 5.658 0 01-.051-.772v-1.608c.023-2.724-1.717-4.02-4.057-3-.16.076-.323.16-.482.252-1.598.922-3.091 2.748-3.914 4.825a8.408 8.408 0 00-.622 2.992l.02 7.174c-.003 1.632.633 2.812 1.728 3.21l1.047.387 2.4.874c.133.048.197.204.17.415-.035.225-.14.434-.299.598a.745.745 0 01-.17.133.36.36 0 01-.303.05l-2.4-.873-1.047-.367c-1.316-.476-2.081-1.884-2.081-3.832l-.02-7.198c0-.281.014-.563.044-.843.11-.964.355-1.909.727-2.805a13.32 13.32 0 011.7-3.06 10.353 10.353 0 013.013-2.778 4.828 4.828 0 012.665-.744zm-9.561 17.312c.261-.15.479-.027.479.276v1.397c-.01.552.073 1.102.248 1.625a.945.945 0 01-.299.867.904.904 0 01-.153.116c-.204.119-.388.075-.452-.112a5.719 5.719 0 01-.3-1.894v-1.448c.019-.336.195-.643.477-.827zM31.82 62.24c1.944-1.111 3.525-.261 3.6 1.918v2.883c-.038.835.185 1.66.636 2.363a.585.585 0 010 .554c-.079.216-.226.4-.418.524-.18.102-.344.082-.425-.051a4.835 4.835 0 01-.765-2.802v-2.798a.558.558 0 010-.078c-.048-1.605-1.21-2.234-2.628-1.421a3.631 3.631 0 00-.446.299 5.845 5.845 0 00-1.567 1.952 5.165 5.165 0 00-.599 2.094 1.16 1.16 0 000 .187v6.123c-.003 1.636.63 2.819 1.731 3.22l.466.167c1.724.629 3.349 1.22 3.444 1.251.204.061.245.37.112.7a1.02 1.02 0 01-.384.453.411.411 0 01-.262.06c-.04-.006-.047-.01-3.495-1.264l-.462-.167c-1.313-.476-2.081-1.883-2.081-3.831v-6.161a2.329 2.329 0 010-.303c.068-.983.345-1.94.812-2.808a7.939 7.939 0 012.125-2.652c.192-.152.394-.29.606-.412zm.003 2.21c.33-.235.758-.284 1.132-.129.39.252.607.7.561 1.163v3.777c0 1.602.622 2.758 1.7 3.159l.605.194c.133.044.198.204.174.411a1.108 1.108 0 01-.303.602.765.765 0 01-.17.136.374.374 0 01-.302.051l-.568-.207c-1.299-.483-2.067-1.874-2.067-3.802v-3.784a.571.571 0 00-.262-.537.462.462 0 00-.466.044l-.037.024c-.4.278-.65.722-.68 1.207v5.117c.003 1.622.639 2.791 1.73 3.19l2.38.856.044.02.436.157.309.109c.177.03.255.238.2.493-.06.27-.224.504-.455.656a.537.537 0 01-.153.058c-.092.017-.092.017-.493-.13l-.483-.166-.044-.02-2.35-.847c-1.315-.476-2.087-1.88-2.087-3.832v-5.093a3.689 3.689 0 011.564-2.826zm-4.566-2.145a.32.32 0 01.36-.017c.17.109.153.476-.037.789a14.895 14.895 0 00-1.884 4.396 10.91 10.91 0 00-.323 2.59v4.615a1.06 1.06 0 01-.476.826c-.265.15-.48.027-.48-.276v-4.613c.006-.997.13-1.988.371-2.955a16.32 16.32 0 011.269-3.454c.27-.55.57-1.085.897-1.602a.901.901 0 01.303-.299zm4.773-6.797c.17-.091.327-.074.408.051a.64.64 0 010 .558 1.05 1.05 0 01-.408.496l-.258.147c-3.267 1.883-6.236 5.803-7.568 10.02a14.895 14.895 0 00-.745 3.882v2.404c-.01.333-.178.642-.452.833-.276.16-.5.054-.5-.224v-2.51c.075-1.476.35-2.935.816-4.338 1.49-4.706 4.797-9.064 8.439-11.166.088-.054.18-.105.268-.153zm-8.126 6.413a.34.34 0 01.34-.041c.19.099.204.439.02.755a22.93 22.93 0 00-2.253 5.705c-.063.267-.224.5-.453.653a.524.524 0 01-.146.058.248.248 0 01-.279-.113.53.53 0 01-.03-.404 25.004 25.004 0 012.461-6.24.98.98 0 01.34-.373zM35.02 49.912a.252.252 0 01.34.197.836.836 0 01-.119.612.949.949 0 01-.34.34.422.422 0 01-.13.055 12.814 12.814 0 00-3.1 1.309l-.051.03c-3.301 1.9-6.436 5.277-8.687 9.337a1.02 1.02 0 01-.34.38.503.503 0 01-.109.048.258.258 0 01-.35-.184.802.802 0 01.116-.601c2.414-4.376 5.8-8.031 9.346-10.071l.041-.024a13.719 13.719 0 013.383-1.428zm-1.955 7.18c3.142-1.264 5.671.405 6.14 4.057a1.02 1.02 0 01-.404.85l-.065.044c-.241.14-.442.051-.476-.2-.418-3.21-2.628-4.686-5.348-3.59-.262.108-.439-.052-.401-.392a1.07 1.07 0 01.469-.741zm-1.982 1.14c.238-.14.442-.055.472.194a1.02 1.02 0 01-.414.853 14.379 14.379 0 00-2.244 2.04.87.87 0 01-.198.167.398.398 0 01-.278.057c-.14-.047-.201-.18-.201-.387.027-.226.124-.438.279-.605a16.15 16.15 0 012.523-2.282zm7.238-3.013a.34.34 0 01.34-.027c1.405.908 2.275 2.608 2.482 4.862a.911.911 0 01-.108.466 1.02 1.02 0 01-.34.38l-.041.028c-.252.143-.46.044-.483-.224-.17-2.006-.952-3.536-2.21-4.356-.18-.109-.17-.469.02-.789.082-.14.2-.258.34-.34zm-9.639.541a.34.34 0 01.34-.037c.136.064.177.234.136.448-.05.227-.168.432-.34.589a23.46 23.46 0 00-3.196 3.604.935.935 0 01-.275.258.476.476 0 01-.2.065c-.157.006-.276-.106-.276-.293a.969.969 0 01.2-.612 25.449 25.449 0 013.479-3.923.836.836 0 01.132-.099zm3.162-2.343c5.712-3.298 10.537-1.142 11.193 5.022.005.335-.152.652-.421.85a.405.405 0 01-.051.03c-.245.127-.45.052-.476-.213-.609-5.638-5.029-7.61-10.241-4.59l-.051.03c-.384.221-.769.47-1.15.738l-.06.037a.31.31 0 01-.385 0 .517.517 0 01-.054-.52c.07-.22.207-.412.39-.55a16.51 16.51 0 011.255-.803zm3.145-5.807c.259-.088.425.099.371.439a1.064 1.064 0 01-.48.704.68.68 0 01-.101.047 16.949 16.949 0 00-3.101 1.418 26.676 26.676 0 00-6.613 5.586.898.898 0 01-.211.177c-.173.119-.343.085-.415-.061a.547.547 0 01-.024-.405c.043-.169.126-.325.242-.455a28.404 28.404 0 017.031-5.94 18.102 18.102 0 013.301-1.51zm-.751 7a5.93 5.93 0 012.856-.125c.14.04.204.177.204.38a1.064 1.064 0 01-.473.78.411.411 0 01-.275.06 5.24 5.24 0 00-2.547.11l-.17.047a.255.255 0 01-.353-.177.82.82 0 01.115-.608.996.996 0 01.34-.36.68.68 0 01.126-.055zm2.74-5.086a6.735 6.735 0 015.131 1.65c.12.14.149.337.075.506a1.1 1.1 0 01-.364.534.32.32 0 01-.061.04.313.313 0 01-.384 0 6.287 6.287 0 00-4.76-1.523c-.18.02-.3-.112-.3-.34.016-.255.123-.497.303-.68l.075-.057a.738.738 0 01.098-.082.442.442 0 01.143-.048.221.221 0 01.044 0zm.004-2.434a8.673 8.673 0 011.982.082c.146.02.228.156.228.36a1.04 1.04 0 01-.476.802.388.388 0 01-.269.058 8.068 8.068 0 00-1.846-.075c-.167.024-.282-.078-.306-.268a.955.955 0 01.197-.633.89.89 0 01.276-.258.415.415 0 01.214-.068z"/><path fill="#D0ECFF" fill-rule="nonzero" d="M85.34 131.24c0 1.91-1.336 4.24-3.002 5.202 0 0-.884.918-5.083 3.424-1.22.727-2.907 1.642-4.903 2.679-5.328-2.38-10.68-5.868-14.32-10.938 9.159-4.114 16.4-7.67 20.06-9.83C82.813 118.97 82.96 119 82.96 119c1.666-.962 2.346-.143 2.353 1.768l.027 10.472z" opacity=".5"/><path fill="#D0ECFF" fill-rule="nonzero" d="M91.164 120.479l.146-.065.048-.023.136-.051h.03l.164-.051h.024c.081-.022.164-.039.248-.051l.2-.02h.245l.136.016h.041l.15.034.136.048h.04l.11.054.037.017-.626-.367h-.02l-.11-.054h-.04l-.133-.048a1.071 1.071 0 00-.15-.037h-.42l-.2.02a2.217 2.217 0 00-.252.054h-.024l-.16.048h-.034l-.132.051h-.052l-.146.068-.055.024-.19.105-52.268 30.151a3.747 3.747 0 00-.29.184l-.091.065-.19.142-.103.085-.17.15-.102.095-.064.058-.065.071c-.068.068-.132.14-.2.215l-.065.068c-.017.017-.03.04-.048.06-.017.021-.081.096-.119.144l-.078.091-.058.082-.085.112c-.017.027-.037.051-.057.078l-.089.136-.061.089-.024.037c-.054.085-.105.17-.156.255v.017l-.03.051c-.035.061-.072.123-.103.187-.03.065-.03.058-.044.085l-.048.092-.04.078c-.031.072-.065.14-.096.211a8.884 8.884 0 00-.143.36l-.037.099c0 .044-.034.092-.047.136-.014.044-.02.071-.034.105-.014.034-.024.082-.038.126l-.024.075c0 .048-.02.092-.034.14a2.012 2.012 0 00-.037.152v.167c0 .037-.03.16-.04.238v.663l.03 10.479c0 .948.34 1.618.877 1.931l.636.37c-.636-.309-.976-.979-.976-1.927l-.027-10.479v-.445c0-.034 0-.147.024-.218l.04-.241c0-.055.02-.11.034-.164.014-.054.024-.102.038-.153.013-.05.037-.146.058-.217a1.67 1.67 0 01.037-.123c.014-.04.051-.163.082-.241.03-.078.023-.068.034-.099l.136-.34a.184.184 0 01.017-.037c.044-.099.088-.197.136-.292 0-.031.03-.062.047-.089.048-.092.095-.183.146-.272l.028-.054c.06-.102.125-.204.19-.306l.061-.089.146-.214.085-.115.136-.174.116-.143.116-.129.2-.214.13-.13.101-.091.17-.15.102-.085c.065-.05.126-.098.19-.142l.093-.068c.095-.065.19-.126.285-.18l52.245-30.165.19-.102.078-.014z"/><path fill="url(#e)" fill-rule="nonzero" d="M70.18 102.262c1.665-.962 3.019-.19 3.022 1.72l.03 10.479c0 1.914-1.339 4.243-3.002 5.202l-52.244 30.165c-1.666.959-3.02.19-3.026-1.724l-.027-10.479c0-1.91 1.34-4.24 3.002-5.202l52.244-30.161z" transform="translate(20.74 18.36)"/><path fill="#B6D2F7" fill-rule="nonzero" d="M85 130.999l-.119 2.012 1.4-1.866.456.625-1.492 1.71 1.5-.023-.453 1.163-1.408-.249.133 1.86-.915.527.102-1.992-1.37 1.85-.459-.64 1.49-1.696-1.493.01.452-1.146 1.374.262-.11-1.88zm-7.613 4.396l-.122 2.013 1.4-1.864.456.623-1.492 1.71 1.5-.024-.453 1.163-1.408-.248.133 1.863-.911.527.095-1.996-1.367 1.85-.459-.64 1.49-1.696-1.493.01.452-1.146 1.374.262-.11-1.88zm-7.616 4.396l-.122 2.013 1.4-1.863.456.622-1.492 1.713 1.5-.027-.453 1.163-1.408-.248.133 1.863-.915.527.099-1.996-1.367 1.853-.455-.642 1.485-1.697-1.492.014.452-1.15 1.374.262-.11-1.88zm-7.616 4.396l-.122 2.016 1.4-1.866.456.625-1.489 1.71 1.496-.027-.452 1.167-1.408-.249.133 1.86-.911.527.095-1.996-1.367 1.853-.459-.639 1.49-1.7-1.493.014.452-1.15 1.374.266-.11-1.884z" opacity=".5"/><path fill="#68C86F" fill-rule="nonzero" d="M54.54 148.583l-.123 2.017 1.4-1.867.456.626-1.492 1.71 1.5-.027-.453 1.166-1.408-.248.133 1.86-.911.526.098-1.992-1.37 1.85-.455-.64 1.485-1.696-1.492.01.452-1.146 1.374.262-.11-1.884zm-7.617 4.4l-.122 2.013 1.4-1.863.456.622-1.492 1.71 1.5-.024-.453 1.163-1.408-.248.133 1.86-.915.53.102-1.996-1.37 1.85-.459-.64 1.49-1.696-1.493.014.452-1.15 1.374.262-.11-1.88z"/><path fill="#DEEEF1" fill-rule="nonzero" d="M164.56 42.027l.102-.04.15-.051.095-.028.085-.017h.343c.053.004.105.01.157.02h.037l.119.035h.034c.048.018.095.04.14.064l-7.436-4.321-.11-.051h-.053l-.057-.02h-.78l-.15.05-.05.018-.052.023-.054.031c-.063.03-.128.063-.194.102l7.412 4.318c.064-.039.128-.073.194-.102l.068-.03z"/><path fill="#D0ECFF" fill-rule="nonzero" d="M138.951 81.148l-7.415-4.308c0 .68.238 1.139.619 1.36l7.415 4.308c-.38-.228-.615-.69-.619-1.36z"/><path fill="#D0ECFF" fill-rule="nonzero" d="M131.536 76.84l.2-22.114 7.154 4.166.065 22.26zm9.476-21.24l-7.426-4.314 23.293-13.447 7.426 4.31z"/><path fill="url(#f)" fill-rule="nonzero" d="M143.555 23.8c1.17-.68 2.121-.133 2.125 1.214l.061 21.9a4.655 4.655 0 01-2.111 3.654l-23.294 13.447c-1.17.68-2.118.133-2.121-1.21l-.065-21.9a4.651 4.651 0 012.111-3.655l23.294-13.45z" transform="translate(20.74 18.36)"/><path fill="#D0ECFF" fill-rule="nonzero" d="M138.91 59.09a.82.82 0 01.048-.212.2.2 0 010-.047v-.146c0-.028 0-.055.017-.082v-.048l.051-.21v-.034c.017-.062.037-.123.058-.184.02-.058.04-.119.064-.177a2.606 2.606 0 01.075-.19v-.024l.075-.163.02-.041.065-.13.02-.037.089-.16.017-.027.081-.136.028-.037c.034-.054.068-.109.105-.16l.065-.03c.037-.055.078-.11.119-.16v-.02a4.23 4.23 0 01.156-.191l.02-.024.102-.112.11-.109.023-.024.143-.132c.05-.044.102-.089.156-.13l.027-.02.157-.115.03-.017.187-.202-7.432-4.273-.167.105h-.03l-.153.116-.03.02-.157.13c-.051.04-.099.088-.146.132-.038.034-.072.071-.11.109l-.098.112c-.05.061-.105.126-.153.19a3.904 3.904 0 00-.224.32l-.017.024-.082.136v.02l-.088.16a.068.068 0 010 .027 2.25 2.25 0 01-.065.13.085.085 0 010 .023l-.075.163a.048.048 0 000 .02 1.336 1.336 0 00-.06.147v.024a.048.048 0 000 .02c-.025.058-.045.119-.065.177l-.058.183a.085.085 0 010 .024l-.051.211v.187a.796.796 0 000 .088v.038c0 .061 0 .122-.02.183v.221c4.781 2.95 7.172 4.405 7.172 4.364z"/><g fill-rule="nonzero"><path fill="#D0ECFF" d="M155.448 44.68l-2.55-1.483-.017-6.106 2.55 1.482z"/><path fill="#D0ECFF" d="M155.428 38.573l-2.55-1.482c0-1.585-.565-2.7-1.462-3.224l2.55 1.483c.897.523 1.458 1.639 1.462 3.223m-6.548-7.079l2.55 1.483c-.304.13-.6.276-.888.438l-.048.027v-.017l-.09.055-.173.119-.04.024-.259.166-.08.06-.13.09-.129.09-.04.028-.266.2c-.056.044-.115.09-.172.137l-.086.071-.038.027-.295.255-.283.259-.251.241-.1.1-.074.073-.057.062-.116.119-.031.035-.034.033-.112.122-.187.21-.292.344-.148.184-.12.153-.235.31-.038.05-.19.265v.02l-.18.26-.208.319v.017l-.163.225-.04.071-.068.11-.065.108a.813.813 0 01-.045.071l-.07.126-.069.126-.103.21-.102.18-.17.33-.066.131-.063.13-.037.076-.096.204-.016.036-.018.035-.115.265-.02.041-.096.235-.034.074-.095.245v.03l-.105.283c-.007.024-.024.048-.024.071l-.046.128-.043.127v.034l-.05.153-.069.218-.045.153-.043.153v.03c-.03.103-.065.222-.092.34-.03.106-.058.222-.081.34 0 .018.01-.006 0 .052-.008.043-.023.086-.03.128l-.004.042v.06l-.029.115a.712.712 0 00-.011.057l-.005.057v.05l-.03.177v.082l-.02.143v.071c-.01.102-.035.204-.035.306-.023.102-.023.2-.023.3a.34.34 0 000 .057.655.655 0 01-.043.18l-.021.052v.354l.017 6.191-2.55-1.482-.017-6.192v-.607c0-.099.033-.2.033-.298l-.001-.048v-.047c.008-.102.113-.164.113-.262.008-.077.023-.153.03-.23l.004-.076v-.072l.02-.142a.68.68 0 010-.082c.007-.05.065-.022.08-.028l.003-.005v-.13c.01-.059.022-.073.034-.115l.01-.037v-.061c.008-.041.023-.084.03-.125l.004-.042v-.024a.099.099 0 010-.03l.052-.223.03-.117.068-.251.024-.09v-.02l.043-.152.065-.218.048-.153.051-.153v-.027c.027-.085.058-.17.088-.255l.02-.048a.073.073 0 00.004-.024l.054-.14.052-.142v-.024l.095-.245.034-.074.095-.235.017-.03.116-.266.034-.068.047-.105.068-.146.017-.031.13-.262.063-.127.066-.124.017-.034.235-.428.07-.123.021-.038.024-.034.132-.22.041-.072.163-.258.082-.127.085-.125.04-.065.09-.132.091-.13V35.8l.19-.266.038-.05.099-.133.101-.13v-.023l.02-.024c.082-.102.16-.204.242-.303l.015-.015.012-.019.255-.299.019-.017.015-.02.13-.143.057-.068.113-.122.033-.033.031-.035.116-.12.058-.06.17-.17.251-.242.282-.258.296-.252.296-.238.306-.228.128-.091.13-.089.048-.034.258-.167.041-.023.135-.085.138-.082.047-.027c.287-.163.584-.31.887-.439zm2.362-.472l.007.004.133.011a4.134 4.134 0 01.666.127l2.397 1.387-2.397-1.393c.124.036.245.08.364.129l1.275.741-1.275-.748c.119.051.238.109.34.17l2.55 1.482a3.64 3.64 0 00-.15-.08l.197.114-.037-.02-.173-.101a3.325 3.325 0 00-.177-.083v.014l-.036-.021-.084-.033-.121-.043-.124-.04-.127-.034a2.917 2.917 0 00-.26-.053v.006a4.134 4.134 0 00-.418-.05l-.006-.004h-.446a5.063 5.063 0 00-1.105.18 6.46 6.46 0 00-.806.276l-2.55-1.483c.263-.108.532-.2.806-.275a5.79 5.79 0 01.595-.13c.172-.024.342-.041.51-.05h.452z"/><path fill="url(#g)" d="M9.734 2.485l.048-.027c3.76-2.138 6.83-.323 6.844 4.046l.017 6.12-1.955 1.129-.017-6.12c0-3.142-2.207-4.447-4.896-2.917a9.962 9.962 0 00-3.499 3.662 9.904 9.904 0 00-1.441 4.848v6.191l-1.955 1.13v-6.192c0-2.122.707-4.529 2.013-6.78 1.305-2.25 3.015-4.036 4.841-5.09z" transform="translate(140.76 30.94)"/></g><path fill="#B6D2F7" fill-rule="nonzero" d="M153.483 58.616c1.248-.72 2.264-.143 2.268 1.295a4.988 4.988 0 01-1.36 3.183v2.278a1.948 1.948 0 01-.888 1.53c-.49.282-.887.058-.887-.507v-2.274c-.81.068-1.38-.524-1.384-1.598a4.97 4.97 0 012.25-3.907z"/></g></svg>