<svg width="80" height="80" viewBox="0 0 80 80" xmlns="http://www.w3.org/2000/svg"><g fill="none" fill-rule="evenodd"><circle fill="#69C76F" cx="40" cy="40" r="40"/><path d="M29.808 52.314c1.37 0 2.599-.195 3.686-.585 1.087-.39 2.002-.91 2.747-1.56a6.595 6.595 0 001.7-2.268c.39-.862.586-1.778.586-2.747 0-1.63-.408-2.941-1.223-3.934-.815-.992-1.932-1.772-3.35-2.339l-2.977-1.205c-.496-.213-.957-.408-1.382-.585a7.545 7.545 0 01-1.117-.567 2.597 2.597 0 01-.744-.673c-.177-.248-.266-.55-.266-.904 0-.662.266-1.176.798-1.542.531-.366 1.246-.55 2.144-.55.922 0 1.76.16 2.517.48.756.318 1.512.773 2.268 1.364l2.658-3.296a10.098 10.098 0 00-3.456-2.269c-1.31-.52-2.64-.78-3.987-.78-1.205 0-2.31.178-3.314.532-1.004.355-1.872.845-2.605 1.471a6.644 6.644 0 00-1.701 2.197 6.118 6.118 0 00-.603 2.676c0 .851.13 1.613.39 2.286.26.674.609 1.265 1.046 1.773.437.508.933.95 1.488 1.329a8.974 8.974 0 001.72.921l3.012 1.276 1.365.585a6.3 6.3 0 011.063.567c.295.2.52.431.673.691.154.26.23.567.23.922 0 .685-.265 1.228-.797 1.63-.531.402-1.34.603-2.428.603-.968 0-1.955-.225-2.96-.674a11.256 11.256 0 01-2.746-1.736l-2.977 3.58a11.8 11.8 0 004.023 2.498c1.5.555 3.006.833 4.519.833zm21.69-.425V33.175h6.345V28.78H39.909v4.395h6.344v18.714H51.5z" fill="#FFF" fill-rule="nonzero"/></g></svg>