<svg xmlns="http://www.w3.org/2000/svg" viewBox="0 0 423.87 118.86"><g data-name="Layer 2"><path d="M135.77 92.76h-16.46v-40h-14.58V38.43h45.54v14.34h-14.5zm70.62 0h-18.74l-7.49-17.1h-5.95v17.1h-16.45V38.43h29q9.19 0 14.37 5.34a18.38 18.38 0 015.18 13.32 17.56 17.56 0 01-2.9 10.42 18.21 18.21 0 01-6.88 6zm-22.16-31.44a6.4 6.4 0 003.83-1.1 3.69 3.69 0 001.55-3.22 3.62 3.62 0 00-1.55-3.14 6.47 6.47 0 00-3.83-1.1h-10v8.55zm69.97 31.44H213V38.43h41.2v14.34h-24.76v5.38h24.19v14.33h-24.19v6h24.76zm52.13 0h-43v-13l20.69-27h-20.7V38.43h42.44v13l-20.76 27h21.34zm54.53-6.88q-8.5 7.86-21.22 7.86t-21.21-7.86q-8.52-7.86-8.52-20.24t8.52-20.24q8.51-7.86 21.21-7.86t21.22 7.86q8.52 7.86 8.51 20.24t-8.51 20.24zm-30.62-10.55a13.27 13.27 0 0018.81 0 13.68 13.68 0 003.63-9.69 13.68 13.68 0 00-3.63-9.64 13.27 13.27 0 00-18.81 0 13.68 13.68 0 00-3.63 9.69 13.68 13.68 0 003.63 9.64zm93.63 17.43h-18.74l-7.49-17.1h-5.95v17.1h-16.45V38.43h29q9.19 0 14.37 5.34a18.38 18.38 0 015.17 13.32 17.55 17.55 0 01-2.89 10.42 18.21 18.21 0 01-6.88 6zm-22.16-31.44a6.4 6.4 0 003.83-1.1 3.69 3.69 0 001.55-3.22 3.62 3.62 0 00-1.55-3.14 6.47 6.47 0 00-3.83-1.1h-10v8.55zM76.24 41.51c-.19 0-1.56-.41-3.87-.91v-9.49a31.12 31.12 0 00-62.23 0v9.34c-2.68.6-4.25 1.07-4.44 1.12L0 43.28V105l40.37 13.87 41.81-13.79v-62zm-50.1-10.4a15.12 15.12 0 0130.23 0v7a153.85 153.85 0 00-16.11-.87c-5.14 0-9.89.28-14.12.7zm40 62.39L40.47 102 16 93.57v-38a127.45 127.45 0 0124.26-2.33 144.19 144.19 0 0125.92 2.45z" data-name="Layer 1"/></g></svg>