<svg xmlns="http://www.w3.org/2000/svg" width="31" height="26" viewBox="0 0 31 26"><path fill="#FFF" d="M31 7v2.58l-1.128.554c-.857.423-1.367 1.301-1.294 2.228.024.321.038.647.038.973-.002 4.762-2.769 9.122-7.161 11.284-4.393 2.162-9.67 1.762-13.66-1.036l2.316-1.14.131-.067a11.067 11.067 0 0010.676-.096c3.289-1.86 5.31-5.264 5.313-8.945 0-.456-.03-.912-.092-1.364L8.096 20.853 4.364 22.69 0 24.837v-2.586l4.394-2.162 2.135-1.053L31 7zM9.542 1.382C13.935-.78 19.213-.382 23.204 2.415l-.319.158-2.136 1.05a11.07 11.07 0 00-10.665.107C6.8 5.59 4.78 8.988 4.775 12.663c0 .453.031.905.092 1.354l18.025-8.866 3.733-1.836L31 1.159v2.586l-4.413 2.173-2.136 1.05-19.001 9.35-1.059.52-1.074.53L0 19v-2.588l1.127-.554c.857-.422 1.368-1.3 1.295-2.227-.025-.32-.038-.641-.038-.964 0-4.762 2.765-9.122 7.158-11.285z"/></svg>